<svg width="800" height="800" xmlns="http://www.w3.org/2000/svg">
  <defs>
    <clipPath id="clip-petal1">
      <path d="M -800,-800 h 1600 v 1600 h -1600 Z M 12.56,-24.18 L 13.44,-22.79 L 14.32,-21.36 L 15.19,-19.91 L 16.05,-18.42 L 16.91,-16.89 L 17.75,-15.34 L 18.58,-13.74 L 19.40,-12.12 L 20.20,-10.46 L 20.97,-8.77 L 21.61,-7.07 L 22.09,-5.37 L 22.44,-3.66 L 22.65,-1.97 L 22.73,-0.29 L 22.69,1.38 L 22.53,3.02 L 22.26,4.64 L 21.86,6.22 L 21.36,7.78 L 20.75,9.29 L 20.03,10.75 L 19.20,12.17 L 18.27,13.53 L 17.23,14.83 L 16.08,16.07 L 14.83,17.23 L 13.47,18.31 L 12.01,19.30 L 10.43,20.20 L 8.75,21.00 L 7.07,21.75 L 5.40,22.47 L 3.74,23.16 L 2.09,23.81 L 0.46,24.43 L -1.16,25.01 L -2.76,25.57 L -4.35,26.10 L -5.92,26.60 L -7.48,27.07 L -9.03,27.52 L -10.55,27.94 L -12.07,28.33 L -13.56,28.70 L -15.04,29.05 L -16.51,29.37 L -17.95,29.67 L -19.39,29.95 L -20.80,30.21 L -22.20,30.45 L -23.59,30.67 L -24.96,30.88 L -26.31,31.06 L -27.65,31.23 L -28.97,31.38 L -30.27,31.52 L -31.57,31.64 L -32.84,31.74 L -34.11,31.83 L -35.35,31.91 L -36.59,31.97 L -37.81,32.02 L -39.01,32.06 L -40.21,32.09 L -41.39,32.10 L -42.55,32.10 L -43.71,32.09 L -44.85,32.08 L -45.98,32.05 L -47.10,32.01 L -48.20,31.96 L -49.30,31.90 L -50.38,31.83 L -51.46,31.76 L -52.52,31.67 L -53.57,31.58 L -54.61,31.48 L -55.65,31.37 L -56.67,31.25 L -57.69,31.13 L -58.69,31.00 L -59.69,30.86 L -60.68,30.71 L -61.66,30.56 L -62.63,30.40 L -63.59,30.23 L -64.55,30.06 L -65.50,29.88 L -66.45,29.70 L -67.38,29.50 L -68.31,29.31 L -69.24,29.10 L -70.16,28.89 L -71.07,28.67 L -71.98,28.45 L -72.88,28.22 L -73.78,27.99 L -74.67,27.75 L -75.56,27.50 L -76.44,27.25 L -77.32,26.99 L -78.20,26.72 L -79.07,26.45 L -79.94,26.18 L -80.81,25.89 L -81.67,25.60 L -82.53,25.31 L -83.38,25.01 L -84.24,24.70 L -85.09,24.39 L -85.94,24.07 L -86.79,23.74 L -87.64,23.41 L -88.48,23.07 L -89.32,22.72 L -90.17,22.37 L -91.01,22.01 L -91.85,21.64 L -92.69,21.27 L -93.53,20.88 L -94.36,20.49 L -95.20,20.10 L -96.04,19.69 L -96.88,19.28 L -97.72,18.86 L -98.56,18.43 L -99.40,17.99 L -100.24,17.55 L -101.08,17.09 L -101.92,16.63 L -102.77,16.15 L -103.61,15.67 L -104.46,15.18 L -105.30,14.67 L -106.15,14.16 L -107.00,13.64 L -107.86,13.10 L -108.71,12.56 L -109.57,12.00 L -110.43,11.43 L -111.29,10.85 L -112.15,10.26 L -113.02,9.65 L -113.89,9.03 L -114.76,8.40 L -115.63,7.76 L -116.51,7.10 L -117.39,6.42 L -118.27,5.74 L -119.15,5.03 L -120.04,4.31 L -120.93,3.58 L -121.82,2.82 L -122.72,2.05 L -123.61,1.27 L -124.51,0.46 L -125.42,-0.36 L -126.32,-1.20 L -127.23,-2.06 L -128.14,-2.94 L -129.05,-3.84 L -129.96,-4.77 L -130.87,-5.71 L -131.79,-6.68 L -132.71,-7.66 L -133.62,-8.68 L -134.54,-9.71 L -135.46,-10.77 L -136.38,-11.85 L -137.29,-12.96 L -138.21,-14.10 L -139.13,-15.26 L -140.04,-16.45 L -140.95,-17.67 L -141.86,-18.91 L -142.76,-20.18 L -143.67,-21.49 L -144.56,-22.82 L -145.45,-24.18 L -146.34,-25.58 L -147.22,-27.00 L -148.09,-28.46 L -148.95,-29.95 L -149.80,-31.48 L -150.64,-33.03 L -151.47,-34.62 L -152.29,-36.25 L -153.09,-37.91 L -153.87,-39.60 L -154.50,-41.30 L -154.98,-43.00 L -155.33,-44.70 L -155.54,-46.40 L -155.62,-48.08 L -155.58,-49.74 L -155.42,-51.39 L -155.15,-53.01 L -154.76,-54.59 L -154.25,-56.14 L -153.64,-57.66 L -152.92,-59.12 L -152.09,-60.54 L -151.16,-61.90 L -150.12,-63.20 L -148.97,-64.44 L -147.72,-65.60 L -146.37,-66.68 L -144.90,-67.67 L -143.32,-68.57 L -141.64,-69.37 L -139.96,-70.12 L -138.29,-70.84 L -136.63,-71.52 L -134.99,-72.18 L -133.35,-72.80 L -131.74,-73.38 L -130.13,-73.94 L -128.54,-74.47 L -126.97,-74.97 L -125.41,-75.44 L -123.87,-75.89 L -122.34,-76.30 L -120.83,-76.70 L -119.33,-77.07 L -117.85,-77.42 L -116.39,-77.74 L -114.94,-78.04 L -113.51,-78.32 L -112.09,-78.58 L -110.69,-78.82 L -109.31,-79.04 L -107.94,-79.25 L -106.58,-79.43 L -105.25,-79.60 L -103.93,-79.75 L -102.62,-79.88 L -101.33,-80.00 L -100.05,-80.11 L -98.79,-80.20 L -97.54,-80.28 L -96.30,-80.34 L -95.08,-80.39 L -93.88,-80.43 L -92.69,-80.45 L -91.51,-80.47 L -90.34,-80.47 L -89.18,-80.46 L -88.04,-80.44 L -86.91,-80.42 L -85.79,-80.38 L -84.69,-80.33 L -83.59,-80.27 L -82.51,-80.20 L -81.44,-80.13 L -80.37,-80.04 L -79.32,-79.95 L -78.28,-79.85 L -77.25,-79.74 L -76.22,-79.62 L -75.21,-79.50 L -74.20,-79.37 L -73.20,-79.23 L -72.22,-79.08 L -71.24,-78.93 L -70.26,-78.77 L -69.30,-78.60 L -68.34,-78.43 L -67.39,-78.25 L -66.45,-78.07 L -65.51,-77.87 L -64.58,-77.67 L -63.65,-77.47 L -62.73,-77.26 L -61.82,-77.04 L -60.91,-76.82 L -60.01,-76.59 L -59.11,-76.36 L -58.22,-76.12 L -57.33,-75.87 L -56.45,-75.62 L -55.57,-75.36 L -54.69,-75.09 L -53.82,-74.82 L -52.95,-74.54 L -52.09,-74.26 L -51.22,-73.97 L -50.36,-73.68 L -49.51,-73.38 L -48.65,-73.07 L -47.80,-72.76 L -46.95,-72.44 L -46.10,-72.11 L -45.26,-71.78 L -44.41,-71.44 L -43.57,-71.09 L -42.73,-70.74 L -41.89,-70.38 L -41.05,-70.01 L -40.21,-69.63 L -39.37,-69.25 L -38.53,-68.86 L -37.69,-68.47 L -36.85,-68.06 L -36.01,-67.65 L -35.17,-67.23 L -34.33,-66.80 L -33.49,-66.36 L -32.65,-65.91 L -31.81,-65.46 L -30.97,-65.00 L -30.13,-64.52 L -29.28,-64.04 L -28.44,-63.55 L -27.59,-63.04 L -26.74,-62.53 L -25.89,-62.01 L -25.03,-61.47 L -24.18,-60.93 L -23.32,-60.37 L -22.46,-59.80 L -21.60,-59.22 L -20.74,-58.63 L -19.87,-58.02 L -19.00,-57.40 L -18.13,-56.77 L -17.26,-56.13 L -16.38,-55.47 L -15.51,-54.79 L -14.62,-54.10 L -13.74,-53.40 L -12.85,-52.68 L -11.96,-51.94 L -11.07,-51.19 L -10.18,-50.42 L -9.28,-49.64 L -8.38,-48.83 L -7.48,-48.01 L -6.57,-47.17 L -5.67,-46.31 L -4.76,-45.43 L -3.85,-44.52 L -2.93,-43.60 L -2.02,-42.66 L -1.10,-41.69 L -0.19,-40.70 L 0.73,-39.69 L 1.65,-38.66 L 2.57,-37.60 L 3.48,-36.52 L 4.40,-35.41 L 5.32,-34.27 L 6.23,-33.11 L 7.15,-31.92 L 8.06,-30.70 L 8.97,-29.46 L 9.87,-28.18 L 10.77,-26.88 L 11.67,-25.55 Z" clip-rule="evenodd" />
    </clipPath>
    <clipPath id="clip-petal2">
      <path d="M -800,-800 h 1600 v 1600 h -1600 Z M 29.70,-66.45 L 29.88,-65.50 L 30.06,-64.55 L 30.23,-63.59 L 30.40,-62.63 L 30.56,-61.66 L 30.71,-60.68 L 30.86,-59.69 L 31.00,-58.69 L 31.13,-57.69 L 31.25,-56.67 L 31.37,-55.65 L 31.48,-54.61 L 31.58,-53.57 L 31.67,-52.52 L 31.76,-51.46 L 31.83,-50.38 L 31.90,-49.30 L 31.96,-48.20 L 32.01,-47.10 L 32.05,-45.98 L 32.08,-44.85 L 32.09,-43.71 L 32.10,-42.55 L 32.10,-41.39 L 32.09,-40.21 L 32.06,-39.01 L 32.02,-37.81 L 31.97,-36.59 L 31.91,-35.35 L 31.83,-34.11 L 31.74,-32.84 L 31.64,-31.57 L 31.52,-30.27 L 31.38,-28.97 L 31.23,-27.65 L 31.06,-26.31 L 30.88,-24.96 L 30.67,-23.59 L 30.45,-22.20 L 30.21,-20.80 L 29.95,-19.39 L 29.67,-17.95 L 29.37,-16.51 L 29.05,-15.04 L 28.70,-13.56 L 28.33,-12.07 L 27.94,-10.55 L 27.52,-9.03 L 27.07,-7.48 L 26.60,-5.92 L 26.10,-4.35 L 25.57,-2.76 L 25.01,-1.16 L 24.43,0.46 L 23.81,2.09 L 23.16,3.74 L 22.47,5.40 L 21.75,7.07 L 21.00,8.75 L 20.20,10.43 L 19.30,12.01 L 18.31,13.47 L 17.23,14.83 L 16.07,16.08 L 14.83,17.23 L 13.53,18.27 L 12.17,19.20 L 10.75,20.03 L 9.29,20.75 L 7.78,21.36 L 6.22,21.86 L 4.64,22.26 L 3.02,22.53 L 1.38,22.69 L -0.29,22.73 L -1.97,22.65 L -3.66,22.44 L -5.37,22.09 L -7.07,21.61 L -8.77,20.97 L -10.46,20.20 L -12.12,19.40 L -13.74,18.58 L -15.34,17.75 L -16.89,16.91 L -18.42,16.05 L -19.91,15.19 L -21.36,14.32 L -22.79,13.44 L -24.18,12.56 L -25.55,11.67 L -26.88,10.77 L -28.18,9.87 L -29.46,8.97 L -30.70,8.06 L -31.92,7.15 L -33.11,6.23 L -34.27,5.32 L -35.41,4.40 L -36.52,3.48 L -37.60,2.57 L -38.66,1.65 L -39.69,0.73 L -40.70,-0.19 L -41.69,-1.10 L -42.66,-2.02 L -43.60,-2.93 L -44.52,-3.85 L -45.43,-4.76 L -46.31,-5.67 L -47.17,-6.57 L -48.01,-7.48 L -48.83,-8.38 L -49.64,-9.28 L -50.42,-10.18 L -51.19,-11.07 L -51.94,-11.96 L -52.68,-12.85 L -53.40,-13.74 L -54.10,-14.62 L -54.79,-15.51 L -55.47,-16.38 L -56.13,-17.26 L -56.77,-18.13 L -57.40,-19.00 L -58.02,-19.87 L -58.63,-20.74 L -59.22,-21.60 L -59.80,-22.46 L -60.37,-23.32 L -60.93,-24.18 L -61.47,-25.03 L -62.01,-25.89 L -62.53,-26.74 L -63.04,-27.59 L -63.55,-28.44 L -64.04,-29.28 L -64.52,-30.13 L -65.00,-30.97 L -65.46,-31.81 L -65.91,-32.65 L -66.36,-33.49 L -66.80,-34.33 L -67.23,-35.17 L -67.65,-36.01 L -68.06,-36.85 L -68.47,-37.69 L -68.86,-38.53 L -69.25,-39.37 L -69.63,-40.21 L -70.01,-41.05 L -70.38,-41.89 L -70.74,-42.73 L -71.09,-43.57 L -71.44,-44.41 L -71.78,-45.26 L -72.11,-46.10 L -72.44,-46.95 L -72.76,-47.80 L -73.07,-48.65 L -73.38,-49.51 L -73.68,-50.36 L -73.97,-51.22 L -74.26,-52.09 L -74.54,-52.95 L -74.82,-53.82 L -75.09,-54.69 L -75.36,-55.57 L -75.62,-56.45 L -75.87,-57.33 L -76.12,-58.22 L -76.36,-59.11 L -76.59,-60.01 L -76.82,-60.91 L -77.04,-61.82 L -77.26,-62.73 L -77.47,-63.65 L -77.67,-64.58 L -77.87,-65.51 L -78.07,-66.45 L -78.25,-67.39 L -78.43,-68.34 L -78.60,-69.30 L -78.77,-70.26 L -78.93,-71.24 L -79.08,-72.22 L -79.23,-73.20 L -79.37,-74.20 L -79.50,-75.21 L -79.62,-76.22 L -79.74,-77.25 L -79.85,-78.28 L -79.95,-79.32 L -80.04,-80.37 L -80.13,-81.44 L -80.20,-82.51 L -80.27,-83.59 L -80.33,-84.69 L -80.38,-85.79 L -80.42,-86.91 L -80.44,-88.04 L -80.46,-89.18 L -80.47,-90.34 L -80.47,-91.51 L -80.45,-92.69 L -80.43,-93.88 L -80.39,-95.08 L -80.34,-96.30 L -80.28,-97.54 L -80.20,-98.79 L -80.11,-100.05 L -80.00,-101.33 L -79.88,-102.62 L -79.75,-103.93 L -79.60,-105.25 L -79.43,-106.58 L -79.25,-107.94 L -79.04,-109.31 L -78.82,-110.69 L -78.58,-112.09 L -78.32,-113.51 L -78.04,-114.94 L -77.74,-116.39 L -77.42,-117.85 L -77.07,-119.33 L -76.70,-120.83 L -76.30,-122.34 L -75.89,-123.87 L -75.44,-125.41 L -74.97,-126.97 L -74.47,-128.54 L -73.94,-130.13 L -73.38,-131.74 L -72.80,-133.35 L -72.18,-134.99 L -71.52,-136.63 L -70.84,-138.29 L -70.12,-139.96 L -69.37,-141.64 L -68.57,-143.32 L -67.67,-144.90 L -66.68,-146.37 L -65.60,-147.72 L -64.44,-148.97 L -63.20,-150.12 L -61.90,-151.16 L -60.54,-152.09 L -59.12,-152.92 L -57.66,-153.64 L -56.14,-154.25 L -54.59,-154.76 L -53.01,-155.15 L -51.39,-155.42 L -49.74,-155.58 L -48.08,-155.62 L -46.40,-155.54 L -44.70,-155.33 L -43.00,-154.98 L -41.30,-154.50 L -39.60,-153.87 L -37.91,-153.09 L -36.25,-152.29 L -34.62,-151.47 L -33.03,-150.64 L -31.48,-149.80 L -29.95,-148.95 L -28.46,-148.09 L -27.00,-147.22 L -25.58,-146.34 L -24.18,-145.45 L -22.82,-144.56 L -21.49,-143.67 L -20.18,-142.76 L -18.91,-141.86 L -17.67,-140.95 L -16.45,-140.04 L -15.26,-139.13 L -14.10,-138.21 L -12.96,-137.29 L -11.85,-136.38 L -10.77,-135.46 L -9.71,-134.54 L -8.68,-133.62 L -7.66,-132.71 L -6.68,-131.79 L -5.71,-130.87 L -4.77,-129.96 L -3.84,-129.05 L -2.94,-128.14 L -2.06,-127.23 L -1.20,-126.32 L -0.36,-125.42 L 0.46,-124.51 L 1.27,-123.61 L 2.05,-122.72 L 2.82,-121.82 L 3.58,-120.93 L 4.31,-120.04 L 5.03,-119.15 L 5.74,-118.27 L 6.42,-117.39 L 7.10,-116.51 L 7.76,-115.63 L 8.40,-114.76 L 9.03,-113.89 L 9.65,-113.02 L 10.26,-112.15 L 10.85,-111.29 L 11.43,-110.43 L 12.00,-109.57 L 12.56,-108.71 L 13.10,-107.86 L 13.64,-107.00 L 14.16,-106.15 L 14.67,-105.30 L 15.18,-104.46 L 15.67,-103.61 L 16.15,-102.77 L 16.63,-101.92 L 17.09,-101.08 L 17.55,-100.24 L 17.99,-99.40 L 18.43,-98.56 L 18.86,-97.72 L 19.28,-96.88 L 19.69,-96.04 L 20.10,-95.20 L 20.49,-94.36 L 20.88,-93.53 L 21.27,-92.69 L 21.64,-91.85 L 22.01,-91.01 L 22.37,-90.17 L 22.72,-89.32 L 23.07,-88.48 L 23.41,-87.64 L 23.74,-86.79 L 24.07,-85.94 L 24.39,-85.09 L 24.70,-84.24 L 25.01,-83.38 L 25.31,-82.53 L 25.60,-81.67 L 25.89,-80.81 L 26.18,-79.94 L 26.45,-79.07 L 26.72,-78.20 L 26.99,-77.32 L 27.25,-76.44 L 27.50,-75.56 L 27.75,-74.67 L 27.99,-73.78 L 28.22,-72.88 L 28.45,-71.98 L 28.67,-71.07 L 28.89,-70.16 L 29.10,-69.24 L 29.31,-68.31 L 29.50,-67.38 Z" clip-rule="evenodd" />
    </clipPath>
    <clipPath id="clip-petal3">
      <path d="M -800,-800 h 1600 v 1600 h -1600 Z M 78.07,-66.45 L 77.87,-65.51 L 77.67,-64.58 L 77.47,-63.65 L 77.26,-62.73 L 77.04,-61.82 L 76.82,-60.91 L 76.59,-60.01 L 76.36,-59.11 L 76.12,-58.22 L 75.87,-57.33 L 75.62,-56.45 L 75.36,-55.57 L 75.09,-54.69 L 74.82,-53.82 L 74.54,-52.95 L 74.26,-52.09 L 73.97,-51.22 L 73.68,-50.36 L 73.38,-49.51 L 73.07,-48.65 L 72.76,-47.80 L 72.44,-46.95 L 72.11,-46.10 L 71.78,-45.26 L 71.44,-44.41 L 71.09,-43.57 L 70.74,-42.73 L 70.38,-41.89 L 70.01,-41.05 L 69.63,-40.21 L 69.25,-39.37 L 68.86,-38.53 L 68.47,-37.69 L 68.06,-36.85 L 67.65,-36.01 L 67.23,-35.17 L 66.80,-34.33 L 66.36,-33.49 L 65.91,-32.65 L 65.46,-31.81 L 65.00,-30.97 L 64.52,-30.13 L 64.04,-29.28 L 63.55,-28.44 L 63.04,-27.59 L 62.53,-26.74 L 62.01,-25.89 L 61.47,-25.03 L 60.93,-24.18 L 60.37,-23.32 L 59.80,-22.46 L 59.22,-21.60 L 58.63,-20.74 L 58.02,-19.87 L 57.40,-19.00 L 56.77,-18.13 L 56.13,-17.26 L 55.47,-16.38 L 54.79,-15.51 L 54.10,-14.62 L 53.40,-13.74 L 52.68,-12.85 L 51.94,-11.96 L 51.19,-11.07 L 50.42,-10.18 L 49.64,-9.28 L 48.83,-8.38 L 48.01,-7.48 L 47.17,-6.57 L 46.31,-5.67 L 45.43,-4.76 L 44.52,-3.85 L 43.60,-2.93 L 42.66,-2.02 L 41.69,-1.10 L 40.70,-0.19 L 39.69,0.73 L 38.66,1.65 L 37.60,2.57 L 36.52,3.48 L 35.41,4.40 L 34.27,5.32 L 33.11,6.23 L 31.92,7.15 L 30.70,8.06 L 29.46,8.97 L 28.18,9.87 L 26.88,10.77 L 25.55,11.67 L 24.18,12.56 L 22.79,13.44 L 21.36,14.32 L 19.91,15.19 L 18.42,16.05 L 16.89,16.91 L 15.34,17.75 L 13.74,18.58 L 12.12,19.40 L 10.46,20.20 L 8.77,20.97 L 7.07,21.61 L 5.37,22.09 L 3.66,22.44 L 1.97,22.65 L 0.29,22.73 L -1.38,22.69 L -3.02,22.53 L -4.64,22.26 L -6.22,21.86 L -7.78,21.36 L -9.29,20.75 L -10.75,20.03 L -12.17,19.20 L -13.53,18.27 L -14.83,17.23 L -16.07,16.08 L -17.23,14.83 L -18.31,13.47 L -19.30,12.01 L -20.20,10.43 L -21.00,8.75 L -21.75,7.07 L -22.47,5.40 L -23.16,3.74 L -23.81,2.09 L -24.43,0.46 L -25.01,-1.16 L -25.57,-2.76 L -26.10,-4.35 L -26.60,-5.92 L -27.07,-7.48 L -27.52,-9.03 L -27.94,-10.55 L -28.33,-12.07 L -28.70,-13.56 L -29.05,-15.04 L -29.37,-16.51 L -29.67,-17.95 L -29.95,-19.39 L -30.21,-20.80 L -30.45,-22.20 L -30.67,-23.59 L -30.88,-24.96 L -31.06,-26.31 L -31.23,-27.65 L -31.38,-28.97 L -31.52,-30.27 L -31.64,-31.57 L -31.74,-32.84 L -31.83,-34.11 L -31.91,-35.35 L -31.97,-36.59 L -32.02,-37.81 L -32.06,-39.01 L -32.09,-40.21 L -32.10,-41.39 L -32.10,-42.55 L -32.09,-43.71 L -32.08,-44.85 L -32.05,-45.98 L -32.01,-47.10 L -31.96,-48.20 L -31.90,-49.30 L -31.83,-50.38 L -31.76,-51.46 L -31.67,-52.52 L -31.58,-53.57 L -31.48,-54.61 L -31.37,-55.65 L -31.25,-56.67 L -31.13,-57.69 L -31.00,-58.69 L -30.86,-59.69 L -30.71,-60.68 L -30.56,-61.66 L -30.40,-62.63 L -30.23,-63.59 L -30.06,-64.55 L -29.88,-65.50 L -29.70,-66.45 L -29.50,-67.38 L -29.31,-68.31 L -29.10,-69.24 L -28.89,-70.16 L -28.67,-71.07 L -28.45,-71.98 L -28.22,-72.88 L -27.99,-73.78 L -27.75,-74.67 L -27.50,-75.56 L -27.25,-76.44 L -26.99,-77.32 L -26.72,-78.20 L -26.45,-79.07 L -26.18,-79.94 L -25.89,-80.81 L -25.60,-81.67 L -25.31,-82.53 L -25.01,-83.38 L -24.70,-84.24 L -24.39,-85.09 L -24.07,-85.94 L -23.74,-86.79 L -23.41,-87.64 L -23.07,-88.48 L -22.72,-89.32 L -22.37,-90.17 L -22.01,-91.01 L -21.64,-91.85 L -21.27,-92.69 L -20.88,-93.53 L -20.49,-94.36 L -20.10,-95.20 L -19.69,-96.04 L -19.28,-96.88 L -18.86,-97.72 L -18.43,-98.56 L -17.99,-99.40 L -17.55,-100.24 L -17.09,-101.08 L -16.63,-101.92 L -16.15,-102.77 L -15.67,-103.61 L -15.18,-104.46 L -14.67,-105.30 L -14.16,-106.15 L -13.64,-107.00 L -13.10,-107.86 L -12.56,-108.71 L -12.00,-109.57 L -11.43,-110.43 L -10.85,-111.29 L -10.26,-112.15 L -9.65,-113.02 L -9.03,-113.89 L -8.40,-114.76 L -7.76,-115.63 L -7.10,-116.51 L -6.42,-117.39 L -5.74,-118.27 L -5.03,-119.15 L -4.31,-120.04 L -3.58,-120.93 L -2.82,-121.82 L -2.05,-122.72 L -1.27,-123.61 L -0.46,-124.51 L 0.36,-125.42 L 1.20,-126.32 L 2.06,-127.23 L 2.94,-128.14 L 3.84,-129.05 L 4.77,-129.96 L 5.71,-130.87 L 6.68,-131.79 L 7.66,-132.71 L 8.68,-133.62 L 9.71,-134.54 L 10.77,-135.46 L 11.85,-136.38 L 12.96,-137.29 L 14.10,-138.21 L 15.26,-139.13 L 16.45,-140.04 L 17.67,-140.95 L 18.91,-141.86 L 20.18,-142.76 L 21.49,-143.67 L 22.82,-144.56 L 24.18,-145.45 L 25.58,-146.34 L 27.00,-147.22 L 28.46,-148.09 L 29.95,-148.95 L 31.48,-149.80 L 33.03,-150.64 L 34.62,-151.47 L 36.25,-152.29 L 37.91,-153.09 L 39.60,-153.87 L 41.30,-154.50 L 43.00,-154.98 L 44.70,-155.33 L 46.40,-155.54 L 48.08,-155.62 L 49.74,-155.58 L 51.39,-155.42 L 53.01,-155.15 L 54.59,-154.76 L 56.14,-154.25 L 57.66,-153.64 L 59.12,-152.92 L 60.54,-152.09 L 61.90,-151.16 L 63.20,-150.12 L 64.44,-148.97 L 65.60,-147.72 L 66.68,-146.37 L 67.67,-144.90 L 68.57,-143.32 L 69.37,-141.64 L 70.12,-139.96 L 70.84,-138.29 L 71.52,-136.63 L 72.18,-134.99 L 72.80,-133.35 L 73.38,-131.74 L 73.94,-130.13 L 74.47,-128.54 L 74.97,-126.97 L 75.44,-125.41 L 75.89,-123.87 L 76.30,-122.34 L 76.70,-120.83 L 77.07,-119.33 L 77.42,-117.85 L 77.74,-116.39 L 78.04,-114.94 L 78.32,-113.51 L 78.58,-112.09 L 78.82,-110.69 L 79.04,-109.31 L 79.25,-107.94 L 79.43,-106.58 L 79.60,-105.25 L 79.75,-103.93 L 79.88,-102.62 L 80.00,-101.33 L 80.11,-100.05 L 80.20,-98.79 L 80.28,-97.54 L 80.34,-96.30 L 80.39,-95.08 L 80.43,-93.88 L 80.45,-92.69 L 80.47,-91.51 L 80.47,-90.34 L 80.46,-89.18 L 80.44,-88.04 L 80.42,-86.91 L 80.38,-85.79 L 80.33,-84.69 L 80.27,-83.59 L 80.20,-82.51 L 80.13,-81.44 L 80.04,-80.37 L 79.95,-79.32 L 79.85,-78.28 L 79.74,-77.25 L 79.62,-76.22 L 79.50,-75.21 L 79.37,-74.20 L 79.23,-73.20 L 79.08,-72.22 L 78.93,-71.24 L 78.77,-70.26 L 78.60,-69.30 L 78.43,-68.34 L 78.25,-67.39 Z" clip-rule="evenodd" />
    </clipPath>
  </defs>
  <g transform="translate(400.0, 400.0)">
    <path d="M 2.49,-24.18 L 3.35,-22.97 L 4.21,-21.72 L 5.06,-20.44 L 5.90,-19.13 L 6.75,-17.78 L 7.58,-16.40 L 8.41,-14.99 L 9.23,-13.55 L 10.04,-12.07 L 10.85,-10.56 L 11.64,-9.01 L 12.42,-7.42 L 13.18,-5.80 L 13.78,-4.18 L 14.17,-2.58 L 14.36,-1.01 L 14.39,0.53 L 14.26,2.04 L 13.97,3.50 L 13.53,4.93 L 12.95,6.29 L 12.23,7.60 L 11.36,8.84 L 10.35,10.01 L 9.19,11.09 L 7.87,12.06 L 6.37,12.92 L 4.74,13.67 L 3.13,14.38 L 1.52,15.06 L -0.06,15.70 L -1.64,16.31 L -3.19,16.89 L -4.74,17.44 L -6.26,17.96 L -7.77,18.45 L -9.26,18.91 L -10.74,19.34 L -12.19,19.75 L -13.63,20.13 L -15.06,20.49 L -16.46,20.82 L -17.85,21.13 L -19.22,21.42 L -20.57,21.69 L -21.90,21.94 L -23.22,22.17 L -24.52,22.38 L -25.80,22.58 L -27.06,22.75 L -28.31,22.91 L -29.54,23.06 L -30.75,23.19 L -31.94,23.30 L -33.12,23.40 L -34.29,23.49 L -35.44,23.57 L -36.57,23.63 L -37.69,23.68 L -38.79,23.72 L -39.88,23.74 L -40.95,23.76 L -42.01,23.77 L -43.06,23.77 L -44.09,23.75 L -45.11,23.73 L -46.12,23.70 L -47.11,23.67 L -48.10,23.62 L -49.07,23.57 L -50.03,23.51 L -50.97,23.44 L -51.91,23.36 L -52.84,23.28 L -53.75,23.19 L -54.66,23.10 L -55.55,22.99 L -56.44,22.89 L -57.32,22.77 L -58.19,22.66 L -59.05,22.53 L -59.90,22.40 L -60.74,22.27 L -61.58,22.13 L -62.41,21.98 L -63.23,21.83 L -64.04,21.68 L -64.85,21.52 L -65.65,21.35 L -66.45,21.18 L -67.24,21.01 L -68.02,20.83 L -68.80,20.65 L -69.57,20.46 L -70.34,20.27 L -71.10,20.08 L -71.86,19.88 L -72.61,19.67 L -73.36,19.46 L -74.10,19.25 L -74.85,19.03 L -75.58,18.81 L -76.32,18.58 L -77.05,18.35 L -77.78,18.12 L -78.51,17.88 L -79.23,17.63 L -79.95,17.38 L -80.67,17.13 L -81.39,16.87 L -82.10,16.61 L -82.82,16.34 L -83.53,16.07 L -84.24,15.79 L -84.95,15.50 L -85.66,15.22 L -86.37,14.92 L -87.08,14.62 L -87.79,14.32 L -88.50,14.01 L -89.21,13.69 L -89.91,13.37 L -90.62,13.04 L -91.33,12.71 L -92.04,12.37 L -92.75,12.02 L -93.47,11.67 L -94.18,11.31 L -94.89,10.94 L -95.61,10.57 L -96.33,10.19 L -97.05,9.80 L -97.77,9.40 L -98.49,9.00 L -99.22,8.58 L -99.94,8.16 L -100.67,7.73 L -101.41,7.29 L -102.14,6.85 L -102.88,6.39 L -103.62,5.92 L -104.37,5.44 L -105.12,4.96 L -105.87,4.46 L -106.62,3.95 L -107.38,3.43 L -108.14,2.89 L -108.91,2.35 L -109.68,1.79 L -110.45,1.22 L -111.23,0.64 L -112.01,0.04 L -112.80,-0.57 L -113.59,-1.19 L -114.39,-1.83 L -115.18,-2.48 L -115.99,-3.16 L -116.79,-3.84 L -117.61,-4.55 L -118.42,-5.27 L -119.24,-6.01 L -120.07,-6.76 L -120.89,-7.54 L -121.73,-8.33 L -122.56,-9.15 L -123.40,-9.98 L -124.24,-10.84 L -125.09,-11.72 L -125.94,-12.62 L -126.79,-13.54 L -127.64,-14.49 L -128.50,-15.46 L -129.36,-16.46 L -130.22,-17.48 L -131.08,-18.53 L -131.94,-19.60 L -132.80,-20.71 L -133.67,-21.84 L -134.53,-23.00 L -135.39,-24.18 L -136.24,-25.40 L -137.10,-26.65 L -137.95,-27.93 L -138.80,-29.24 L -139.64,-30.59 L -140.47,-31.97 L -141.30,-33.38 L -142.12,-34.82 L -142.94,-36.30 L -143.74,-37.81 L -144.53,-39.36 L -145.31,-40.95 L -146.07,-42.57 L -146.67,-44.19 L -147.06,-45.78 L -147.26,-47.36 L -147.28,-48.90 L -147.15,-50.41 L -146.86,-51.87 L -146.42,-53.29 L -145.84,-54.66 L -145.12,-55.97 L -144.26,-57.21 L -143.25,-58.38 L -142.08,-59.45 L -140.76,-60.43 L -139.26,-61.28 L -137.63,-62.04 L -136.02,-62.75 L -134.42,-63.43 L -132.83,-64.07 L -131.26,-64.68 L -129.70,-65.26 L -128.16,-65.81 L -126.63,-66.33 L -125.12,-66.81 L -123.63,-67.28 L -122.16,-67.71 L -120.70,-68.12 L -119.26,-68.50 L -117.84,-68.86 L -116.43,-69.19 L -115.04,-69.50 L -113.68,-69.79 L -112.32,-70.06 L -110.99,-70.31 L -109.68,-70.54 L -108.38,-70.75 L -107.10,-70.95 L -105.83,-71.12 L -104.59,-71.28 L -103.36,-71.43 L -102.14,-71.56 L -100.95,-71.67 L -99.77,-71.77 L -98.60,-71.86 L -97.46,-71.93 L -96.32,-72.00 L -95.20,-72.05 L -94.10,-72.09 L -93.01,-72.11 L -91.94,-72.13 L -90.88,-72.14 L -89.83,-72.14 L -88.80,-72.12 L -87.78,-72.10 L -86.77,-72.07 L -85.78,-72.04 L -84.80,-71.99 L -83.83,-71.94 L -82.87,-71.87 L -81.92,-71.81 L -80.98,-71.73 L -80.06,-71.65 L -79.14,-71.56 L -78.23,-71.46 L -77.34,-71.36 L -76.45,-71.26 L -75.57,-71.14 L -74.71,-71.02 L -73.85,-70.90 L -72.99,-70.77 L -72.15,-70.64 L -71.31,-70.50 L -70.49,-70.35 L -69.66,-70.20 L -68.85,-70.05 L -68.04,-69.89 L -67.24,-69.72 L -66.45,-69.55 L -65.66,-69.38 L -64.87,-69.20 L -64.10,-69.02 L -63.32,-68.83 L -62.56,-68.64 L -61.79,-68.44 L -61.04,-68.24 L -60.28,-68.04 L -59.53,-67.83 L -58.79,-67.62 L -58.05,-67.40 L -57.31,-67.18 L -56.57,-66.95 L -55.84,-66.72 L -55.11,-66.48 L -54.39,-66.24 L -53.66,-66.00 L -52.94,-65.75 L -52.22,-65.50 L -51.50,-65.24 L -50.79,-64.98 L -50.07,-64.71 L -49.36,-64.43 L -48.65,-64.16 L -47.94,-63.87 L -47.23,-63.59 L -46.52,-63.29 L -45.81,-62.99 L -45.10,-62.69 L -44.39,-62.38 L -43.69,-62.06 L -42.98,-61.74 L -42.27,-61.41 L -41.56,-61.08 L -40.85,-60.74 L -40.14,-60.39 L -39.43,-60.04 L -38.71,-59.68 L -38.00,-59.31 L -37.28,-58.94 L -36.57,-58.56 L -35.85,-58.17 L -35.13,-57.77 L -34.40,-57.37 L -33.68,-56.95 L -32.95,-56.53 L -32.22,-56.10 L -31.49,-55.66 L -30.75,-55.21 L -30.01,-54.76 L -29.27,-54.29 L -28.52,-53.81 L -27.78,-53.32 L -27.02,-52.83 L -26.27,-52.32 L -25.51,-51.80 L -24.75,-51.26 L -23.98,-50.72 L -23.21,-50.16 L -22.44,-49.59 L -21.66,-49.01 L -20.88,-48.41 L -20.09,-47.80 L -19.30,-47.18 L -18.51,-46.54 L -17.71,-45.88 L -16.91,-45.21 L -16.10,-44.53 L -15.29,-43.82 L -14.47,-43.10 L -13.65,-42.36 L -12.83,-41.61 L -12.00,-40.83 L -11.17,-40.04 L -10.33,-39.22 L -9.49,-38.38 L -8.65,-37.53 L -7.80,-36.65 L -6.95,-35.75 L -6.10,-34.82 L -5.25,-33.88 L -4.39,-32.91 L -3.53,-31.91 L -2.67,-30.89 L -1.81,-29.84 L -0.95,-28.76 L -0.09,-27.66 L 0.77,-26.53 L 1.63,-25.37 Z" fill="#ffbfcd" />
    <path d="M 21.18,-66.45 L 21.35,-65.65 L 21.52,-64.85 L 21.68,-64.04 L 21.83,-63.23 L 21.98,-62.41 L 22.13,-61.58 L 22.27,-60.74 L 22.40,-59.90 L 22.53,-59.05 L 22.66,-58.19 L 22.77,-57.32 L 22.89,-56.44 L 22.99,-55.55 L 23.10,-54.66 L 23.19,-53.75 L 23.28,-52.84 L 23.36,-51.91 L 23.44,-50.97 L 23.51,-50.03 L 23.57,-49.07 L 23.62,-48.10 L 23.67,-47.11 L 23.70,-46.12 L 23.73,-45.11 L 23.75,-44.09 L 23.77,-43.06 L 23.77,-42.01 L 23.76,-40.95 L 23.74,-39.88 L 23.72,-38.79 L 23.68,-37.69 L 23.63,-36.57 L 23.57,-35.44 L 23.49,-34.29 L 23.40,-33.12 L 23.30,-31.94 L 23.19,-30.75 L 23.06,-29.54 L 22.91,-28.31 L 22.75,-27.06 L 22.58,-25.80 L 22.38,-24.52 L 22.17,-23.22 L 21.94,-21.90 L 21.69,-20.57 L 21.42,-19.22 L 21.13,-17.85 L 20.82,-16.46 L 20.49,-15.06 L 20.13,-13.63 L 19.75,-12.19 L 19.34,-10.74 L 18.91,-9.26 L 18.45,-7.77 L 17.96,-6.26 L 17.44,-4.74 L 16.89,-3.19 L 16.31,-1.64 L 15.70,-0.06 L 15.06,1.52 L 14.38,3.13 L 13.67,4.74 L 12.92,6.37 L 12.06,7.87 L 11.09,9.19 L 10.01,10.35 L 8.84,11.36 L 7.60,12.23 L 6.29,12.95 L 4.93,13.53 L 3.50,13.97 L 2.04,14.26 L 0.53,14.39 L -1.01,14.36 L -2.58,14.17 L -4.18,13.78 L -5.80,13.18 L -7.42,12.42 L -9.01,11.64 L -10.56,10.85 L -12.07,10.04 L -13.55,9.23 L -14.99,8.41 L -16.40,7.58 L -17.78,6.75 L -19.13,5.90 L -20.44,5.06 L -21.72,4.21 L -22.97,3.35 L -24.18,2.49 L -25.37,1.63 L -26.53,0.77 L -27.66,-0.09 L -28.76,-0.95 L -29.84,-1.81 L -30.89,-2.67 L -31.91,-3.53 L -32.91,-4.39 L -33.88,-5.25 L -34.82,-6.10 L -35.75,-6.95 L -36.65,-7.80 L -37.53,-8.65 L -38.38,-9.49 L -39.22,-10.33 L -40.04,-11.17 L -40.83,-12.00 L -41.61,-12.83 L -42.36,-13.65 L -43.10,-14.47 L -43.82,-15.29 L -44.53,-16.10 L -45.21,-16.91 L -45.88,-17.71 L -46.54,-18.51 L -47.18,-19.30 L -47.80,-20.09 L -48.41,-20.88 L -49.01,-21.66 L -49.59,-22.44 L -50.16,-23.21 L -50.72,-23.98 L -51.26,-24.75 L -51.80,-25.51 L -52.32,-26.27 L -52.83,-27.02 L -53.32,-27.78 L -53.81,-28.52 L -54.29,-29.27 L -54.76,-30.01 L -55.21,-30.75 L -55.66,-31.49 L -56.10,-32.22 L -56.53,-32.95 L -56.95,-33.68 L -57.37,-34.40 L -57.77,-35.13 L -58.17,-35.85 L -58.56,-36.57 L -58.94,-37.28 L -59.31,-38.00 L -59.68,-38.71 L -60.04,-39.43 L -60.39,-40.14 L -60.74,-40.85 L -61.08,-41.56 L -61.41,-42.27 L -61.74,-42.98 L -62.06,-43.69 L -62.38,-44.39 L -62.69,-45.10 L -62.99,-45.81 L -63.29,-46.52 L -63.59,-47.23 L -63.87,-47.94 L -64.16,-48.65 L -64.43,-49.36 L -64.71,-50.07 L -64.98,-50.79 L -65.24,-51.50 L -65.50,-52.22 L -65.75,-52.94 L -66.00,-53.66 L -66.24,-54.39 L -66.48,-55.11 L -66.72,-55.84 L -66.95,-56.57 L -67.18,-57.31 L -67.40,-58.05 L -67.62,-58.79 L -67.83,-59.53 L -68.04,-60.28 L -68.24,-61.04 L -68.44,-61.79 L -68.64,-62.56 L -68.83,-63.32 L -69.02,-64.10 L -69.20,-64.87 L -69.38,-65.66 L -69.55,-66.45 L -69.72,-67.24 L -69.89,-68.04 L -70.05,-68.85 L -70.20,-69.66 L -70.35,-70.49 L -70.50,-71.31 L -70.64,-72.15 L -70.77,-72.99 L -70.90,-73.85 L -71.02,-74.71 L -71.14,-75.57 L -71.26,-76.45 L -71.36,-77.34 L -71.46,-78.23 L -71.56,-79.14 L -71.65,-80.06 L -71.73,-80.98 L -71.81,-81.92 L -71.87,-82.87 L -71.94,-83.83 L -71.99,-84.80 L -72.04,-85.78 L -72.07,-86.77 L -72.10,-87.78 L -72.12,-88.80 L -72.14,-89.83 L -72.14,-90.88 L -72.13,-91.94 L -72.11,-93.01 L -72.09,-94.10 L -72.05,-95.20 L -72.00,-96.32 L -71.93,-97.46 L -71.86,-98.60 L -71.77,-99.77 L -71.67,-100.95 L -71.56,-102.14 L -71.43,-103.36 L -71.28,-104.59 L -71.12,-105.83 L -70.95,-107.10 L -70.75,-108.38 L -70.54,-109.68 L -70.31,-110.99 L -70.06,-112.32 L -69.79,-113.68 L -69.50,-115.04 L -69.19,-116.43 L -68.86,-117.84 L -68.50,-119.26 L -68.12,-120.70 L -67.71,-122.16 L -67.28,-123.63 L -66.81,-125.12 L -66.33,-126.63 L -65.81,-128.16 L -65.26,-129.70 L -64.68,-131.26 L -64.07,-132.83 L -63.43,-134.42 L -62.75,-136.02 L -62.04,-137.63 L -61.28,-139.26 L -60.43,-140.76 L -59.45,-142.08 L -58.38,-143.25 L -57.21,-144.26 L -55.97,-145.12 L -54.66,-145.84 L -53.29,-146.42 L -51.87,-146.86 L -50.41,-147.15 L -48.90,-147.28 L -47.36,-147.26 L -45.78,-147.06 L -44.19,-146.67 L -42.57,-146.07 L -40.95,-145.31 L -39.36,-144.53 L -37.81,-143.74 L -36.30,-142.94 L -34.82,-142.12 L -33.38,-141.30 L -31.97,-140.47 L -30.59,-139.64 L -29.24,-138.80 L -27.93,-137.95 L -26.65,-137.10 L -25.40,-136.24 L -24.18,-135.39 L -23.00,-134.53 L -21.84,-133.67 L -20.71,-132.80 L -19.60,-131.94 L -18.53,-131.08 L -17.48,-130.22 L -16.46,-129.36 L -15.46,-128.50 L -14.49,-127.64 L -13.54,-126.79 L -12.62,-125.94 L -11.72,-125.09 L -10.84,-124.24 L -9.98,-123.40 L -9.15,-122.56 L -8.33,-121.73 L -7.54,-120.89 L -6.76,-120.07 L -6.01,-119.24 L -5.27,-118.42 L -4.55,-117.61 L -3.84,-116.79 L -3.16,-115.99 L -2.48,-115.18 L -1.83,-114.39 L -1.19,-113.59 L -0.57,-112.80 L 0.04,-112.01 L 0.64,-111.23 L 1.22,-110.45 L 1.79,-109.68 L 2.35,-108.91 L 2.89,-108.14 L 3.43,-107.38 L 3.95,-106.62 L 4.46,-105.87 L 4.96,-105.12 L 5.44,-104.37 L 5.92,-103.62 L 6.39,-102.88 L 6.85,-102.14 L 7.29,-101.41 L 7.73,-100.67 L 8.16,-99.94 L 8.58,-99.22 L 9.00,-98.49 L 9.40,-97.77 L 9.80,-97.05 L 10.19,-96.33 L 10.57,-95.61 L 10.94,-94.89 L 11.31,-94.18 L 11.67,-93.47 L 12.02,-92.75 L 12.37,-92.04 L 12.71,-91.33 L 13.04,-90.62 L 13.37,-89.91 L 13.69,-89.21 L 14.01,-88.50 L 14.32,-87.79 L 14.62,-87.08 L 14.92,-86.37 L 15.22,-85.66 L 15.50,-84.95 L 15.79,-84.24 L 16.07,-83.53 L 16.34,-82.82 L 16.61,-82.10 L 16.87,-81.39 L 17.13,-80.67 L 17.38,-79.95 L 17.63,-79.23 L 17.88,-78.51 L 18.12,-77.78 L 18.35,-77.05 L 18.58,-76.32 L 18.81,-75.58 L 19.03,-74.85 L 19.25,-74.10 L 19.46,-73.36 L 19.67,-72.61 L 19.88,-71.86 L 20.08,-71.10 L 20.27,-70.34 L 20.46,-69.57 L 20.65,-68.80 L 20.83,-68.02 L 21.01,-67.24 Z" fill="#ffb2c3" clip-path="url(#clip-petal1)" />
    <path d="M 69.55,-66.45 L 69.38,-65.66 L 69.20,-64.87 L 69.02,-64.10 L 68.83,-63.32 L 68.64,-62.56 L 68.44,-61.79 L 68.24,-61.04 L 68.04,-60.28 L 67.83,-59.53 L 67.62,-58.79 L 67.40,-58.05 L 67.18,-57.31 L 66.95,-56.57 L 66.72,-55.84 L 66.48,-55.11 L 66.24,-54.39 L 66.00,-53.66 L 65.75,-52.94 L 65.50,-52.22 L 65.24,-51.50 L 64.98,-50.79 L 64.71,-50.07 L 64.43,-49.36 L 64.16,-48.65 L 63.87,-47.94 L 63.59,-47.23 L 63.29,-46.52 L 62.99,-45.81 L 62.69,-45.10 L 62.38,-44.39 L 62.06,-43.69 L 61.74,-42.98 L 61.41,-42.27 L 61.08,-41.56 L 60.74,-40.85 L 60.39,-40.14 L 60.04,-39.43 L 59.68,-38.71 L 59.31,-38.00 L 58.94,-37.28 L 58.56,-36.57 L 58.17,-35.85 L 57.77,-35.13 L 57.37,-34.40 L 56.95,-33.68 L 56.53,-32.95 L 56.10,-32.22 L 55.66,-31.49 L 55.21,-30.75 L 54.76,-30.01 L 54.29,-29.27 L 53.81,-28.52 L 53.32,-27.78 L 52.83,-27.02 L 52.32,-26.27 L 51.80,-25.51 L 51.26,-24.75 L 50.72,-23.98 L 50.16,-23.21 L 49.59,-22.44 L 49.01,-21.66 L 48.41,-20.88 L 47.80,-20.09 L 47.18,-19.30 L 46.54,-18.51 L 45.88,-17.71 L 45.21,-16.91 L 44.53,-16.10 L 43.82,-15.29 L 43.10,-14.47 L 42.36,-13.65 L 41.61,-12.83 L 40.83,-12.00 L 40.04,-11.17 L 39.22,-10.33 L 38.38,-9.49 L 37.53,-8.65 L 36.65,-7.80 L 35.75,-6.95 L 34.82,-6.10 L 33.88,-5.25 L 32.91,-4.39 L 31.91,-3.53 L 30.89,-2.67 L 29.84,-1.81 L 28.76,-0.95 L 27.66,-0.09 L 26.53,0.77 L 25.37,1.63 L 24.18,2.49 L 22.97,3.35 L 21.72,4.21 L 20.44,5.06 L 19.13,5.90 L 17.78,6.75 L 16.40,7.58 L 14.99,8.41 L 13.55,9.23 L 12.07,10.04 L 10.56,10.85 L 9.01,11.64 L 7.42,12.42 L 5.80,13.18 L 4.18,13.78 L 2.58,14.17 L 1.01,14.36 L -0.53,14.39 L -2.04,14.26 L -3.50,13.97 L -4.93,13.53 L -6.29,12.95 L -7.60,12.23 L -8.84,11.36 L -10.01,10.35 L -11.09,9.19 L -12.06,7.87 L -12.92,6.37 L -13.67,4.74 L -14.38,3.13 L -15.06,1.52 L -15.70,-0.06 L -16.31,-1.64 L -16.89,-3.19 L -17.44,-4.74 L -17.96,-6.26 L -18.45,-7.77 L -18.91,-9.26 L -19.34,-10.74 L -19.75,-12.19 L -20.13,-13.63 L -20.49,-15.06 L -20.82,-16.46 L -21.13,-17.85 L -21.42,-19.22 L -21.69,-20.57 L -21.94,-21.90 L -22.17,-23.22 L -22.38,-24.52 L -22.58,-25.80 L -22.75,-27.06 L -22.91,-28.31 L -23.06,-29.54 L -23.19,-30.75 L -23.30,-31.94 L -23.40,-33.12 L -23.49,-34.29 L -23.57,-35.44 L -23.63,-36.57 L -23.68,-37.69 L -23.72,-38.79 L -23.74,-39.88 L -23.76,-40.95 L -23.77,-42.01 L -23.77,-43.06 L -23.75,-44.09 L -23.73,-45.11 L -23.70,-46.12 L -23.67,-47.11 L -23.62,-48.10 L -23.57,-49.07 L -23.51,-50.03 L -23.44,-50.97 L -23.36,-51.91 L -23.28,-52.84 L -23.19,-53.75 L -23.10,-54.66 L -22.99,-55.55 L -22.89,-56.44 L -22.77,-57.32 L -22.66,-58.19 L -22.53,-59.05 L -22.40,-59.90 L -22.27,-60.74 L -22.13,-61.58 L -21.98,-62.41 L -21.83,-63.23 L -21.68,-64.04 L -21.52,-64.85 L -21.35,-65.65 L -21.18,-66.45 L -21.01,-67.24 L -20.83,-68.02 L -20.65,-68.80 L -20.46,-69.57 L -20.27,-70.34 L -20.08,-71.10 L -19.88,-71.86 L -19.67,-72.61 L -19.46,-73.36 L -19.25,-74.10 L -19.03,-74.85 L -18.81,-75.58 L -18.58,-76.32 L -18.35,-77.05 L -18.12,-77.78 L -17.88,-78.51 L -17.63,-79.23 L -17.38,-79.95 L -17.13,-80.67 L -16.87,-81.39 L -16.61,-82.10 L -16.34,-82.82 L -16.07,-83.53 L -15.79,-84.24 L -15.50,-84.95 L -15.22,-85.66 L -14.92,-86.37 L -14.62,-87.08 L -14.32,-87.79 L -14.01,-88.50 L -13.69,-89.21 L -13.37,-89.91 L -13.04,-90.62 L -12.71,-91.33 L -12.37,-92.04 L -12.02,-92.75 L -11.67,-93.47 L -11.31,-94.18 L -10.94,-94.89 L -10.57,-95.61 L -10.19,-96.33 L -9.80,-97.05 L -9.40,-97.77 L -9.00,-98.49 L -8.58,-99.22 L -8.16,-99.94 L -7.73,-100.67 L -7.29,-101.41 L -6.85,-102.14 L -6.39,-102.88 L -5.92,-103.62 L -5.44,-104.37 L -4.96,-105.12 L -4.46,-105.87 L -3.95,-106.62 L -3.43,-107.38 L -2.89,-108.14 L -2.35,-108.91 L -1.79,-109.68 L -1.22,-110.45 L -0.64,-111.23 L -0.04,-112.01 L 0.57,-112.80 L 1.19,-113.59 L 1.83,-114.39 L 2.48,-115.18 L 3.16,-115.99 L 3.84,-116.79 L 4.55,-117.61 L 5.27,-118.42 L 6.01,-119.24 L 6.76,-120.07 L 7.54,-120.89 L 8.33,-121.73 L 9.15,-122.56 L 9.98,-123.40 L 10.84,-124.24 L 11.72,-125.09 L 12.62,-125.94 L 13.54,-126.79 L 14.49,-127.64 L 15.46,-128.50 L 16.46,-129.36 L 17.48,-130.22 L 18.53,-131.08 L 19.60,-131.94 L 20.71,-132.80 L 21.84,-133.67 L 23.00,-134.53 L 24.18,-135.39 L 25.40,-136.24 L 26.65,-137.10 L 27.93,-137.95 L 29.24,-138.80 L 30.59,-139.64 L 31.97,-140.47 L 33.38,-141.30 L 34.82,-142.12 L 36.30,-142.94 L 37.81,-143.74 L 39.36,-144.53 L 40.95,-145.31 L 42.57,-146.07 L 44.19,-146.67 L 45.78,-147.06 L 47.36,-147.26 L 48.90,-147.28 L 50.41,-147.15 L 51.87,-146.86 L 53.29,-146.42 L 54.66,-145.84 L 55.97,-145.12 L 57.21,-144.26 L 58.38,-143.25 L 59.45,-142.08 L 60.43,-140.76 L 61.28,-139.26 L 62.04,-137.63 L 62.75,-136.02 L 63.43,-134.42 L 64.07,-132.83 L 64.68,-131.26 L 65.26,-129.70 L 65.81,-128.16 L 66.33,-126.63 L 66.81,-125.12 L 67.28,-123.63 L 67.71,-122.16 L 68.12,-120.70 L 68.50,-119.26 L 68.86,-117.84 L 69.19,-116.43 L 69.50,-115.04 L 69.79,-113.68 L 70.06,-112.32 L 70.31,-110.99 L 70.54,-109.68 L 70.75,-108.38 L 70.95,-107.10 L 71.12,-105.83 L 71.28,-104.59 L 71.43,-103.36 L 71.56,-102.14 L 71.67,-100.95 L 71.77,-99.77 L 71.86,-98.60 L 71.93,-97.46 L 72.00,-96.32 L 72.05,-95.20 L 72.09,-94.10 L 72.11,-93.01 L 72.13,-91.94 L 72.14,-90.88 L 72.14,-89.83 L 72.12,-88.80 L 72.10,-87.78 L 72.07,-86.77 L 72.04,-85.78 L 71.99,-84.80 L 71.94,-83.83 L 71.87,-82.87 L 71.81,-81.92 L 71.73,-80.98 L 71.65,-80.06 L 71.56,-79.14 L 71.46,-78.23 L 71.36,-77.34 L 71.26,-76.45 L 71.14,-75.57 L 71.02,-74.71 L 70.90,-73.85 L 70.77,-72.99 L 70.64,-72.15 L 70.50,-71.31 L 70.35,-70.49 L 70.20,-69.66 L 70.05,-68.85 L 69.89,-68.04 L 69.72,-67.24 Z" fill="#ffa5b9" clip-path="url(#clip-petal2)" />
    <path d="M 135.39,-24.18 L 134.53,-23.00 L 133.67,-21.84 L 132.80,-20.71 L 131.94,-19.60 L 131.08,-18.53 L 130.22,-17.48 L 129.36,-16.46 L 128.50,-15.46 L 127.64,-14.49 L 126.79,-13.54 L 125.94,-12.62 L 125.09,-11.72 L 124.24,-10.84 L 123.40,-9.98 L 122.56,-9.15 L 121.73,-8.33 L 120.89,-7.54 L 120.07,-6.76 L 119.24,-6.01 L 118.42,-5.27 L 117.61,-4.55 L 116.79,-3.84 L 115.99,-3.16 L 115.18,-2.48 L 114.39,-1.83 L 113.59,-1.19 L 112.80,-0.57 L 112.01,0.04 L 111.23,0.64 L 110.45,1.22 L 109.68,1.79 L 108.91,2.35 L 108.14,2.89 L 107.38,3.43 L 106.62,3.95 L 105.87,4.46 L 105.12,4.96 L 104.37,5.44 L 103.62,5.92 L 102.88,6.39 L 102.14,6.85 L 101.41,7.29 L 100.67,7.73 L 99.94,8.16 L 99.22,8.58 L 98.49,9.00 L 97.77,9.40 L 97.05,9.80 L 96.33,10.19 L 95.61,10.57 L 94.89,10.94 L 94.18,11.31 L 93.47,11.67 L 92.75,12.02 L 92.04,12.37 L 91.33,12.71 L 90.62,13.04 L 89.91,13.37 L 89.21,13.69 L 88.50,14.01 L 87.79,14.32 L 87.08,14.62 L 86.37,14.92 L 85.66,15.22 L 84.95,15.50 L 84.24,15.79 L 83.53,16.07 L 82.82,16.34 L 82.10,16.61 L 81.39,16.87 L 80.67,17.13 L 79.95,17.38 L 79.23,17.63 L 78.51,17.88 L 77.78,18.12 L 77.05,18.35 L 76.32,18.58 L 75.58,18.81 L 74.85,19.03 L 74.10,19.25 L 73.36,19.46 L 72.61,19.67 L 71.86,19.88 L 71.10,20.08 L 70.34,20.27 L 69.57,20.46 L 68.80,20.65 L 68.02,20.83 L 67.24,21.01 L 66.45,21.18 L 65.65,21.35 L 64.85,21.52 L 64.04,21.68 L 63.23,21.83 L 62.41,21.98 L 61.58,22.13 L 60.74,22.27 L 59.90,22.40 L 59.05,22.53 L 58.19,22.66 L 57.32,22.77 L 56.44,22.89 L 55.55,22.99 L 54.66,23.10 L 53.75,23.19 L 52.84,23.28 L 51.91,23.36 L 50.97,23.44 L 50.03,23.51 L 49.07,23.57 L 48.10,23.62 L 47.11,23.67 L 46.12,23.70 L 45.11,23.73 L 44.09,23.75 L 43.06,23.77 L 42.01,23.77 L 40.95,23.76 L 39.88,23.74 L 38.79,23.72 L 37.69,23.68 L 36.57,23.63 L 35.44,23.57 L 34.29,23.49 L 33.12,23.40 L 31.94,23.30 L 30.75,23.19 L 29.54,23.06 L 28.31,22.91 L 27.06,22.75 L 25.80,22.58 L 24.52,22.38 L 23.22,22.17 L 21.90,21.94 L 20.57,21.69 L 19.22,21.42 L 17.85,21.13 L 16.46,20.82 L 15.06,20.49 L 13.63,20.13 L 12.19,19.75 L 10.74,19.34 L 9.26,18.91 L 7.77,18.45 L 6.26,17.96 L 4.74,17.44 L 3.19,16.89 L 1.64,16.31 L 0.06,15.70 L -1.52,15.06 L -3.13,14.38 L -4.74,13.67 L -6.37,12.92 L -7.87,12.06 L -9.19,11.09 L -10.35,10.01 L -11.36,8.84 L -12.23,7.60 L -12.95,6.29 L -13.53,4.93 L -13.97,3.50 L -14.26,2.04 L -14.39,0.53 L -14.36,-1.01 L -14.17,-2.58 L -13.78,-4.18 L -13.18,-5.80 L -12.42,-7.42 L -11.64,-9.01 L -10.85,-10.56 L -10.04,-12.07 L -9.23,-13.55 L -8.41,-14.99 L -7.58,-16.40 L -6.75,-17.78 L -5.90,-19.13 L -5.06,-20.44 L -4.21,-21.72 L -3.35,-22.97 L -2.49,-24.18 L -1.63,-25.37 L -0.77,-26.53 L 0.09,-27.66 L 0.95,-28.76 L 1.81,-29.84 L 2.67,-30.89 L 3.53,-31.91 L 4.39,-32.91 L 5.25,-33.88 L 6.10,-34.82 L 6.95,-35.75 L 7.80,-36.65 L 8.65,-37.53 L 9.49,-38.38 L 10.33,-39.22 L 11.17,-40.04 L 12.00,-40.83 L 12.83,-41.61 L 13.65,-42.36 L 14.47,-43.10 L 15.29,-43.82 L 16.10,-44.53 L 16.91,-45.21 L 17.71,-45.88 L 18.51,-46.54 L 19.30,-47.18 L 20.09,-47.80 L 20.88,-48.41 L 21.66,-49.01 L 22.44,-49.59 L 23.21,-50.16 L 23.98,-50.72 L 24.75,-51.26 L 25.51,-51.80 L 26.27,-52.32 L 27.02,-52.83 L 27.78,-53.32 L 28.52,-53.81 L 29.27,-54.29 L 30.01,-54.76 L 30.75,-55.21 L 31.49,-55.66 L 32.22,-56.10 L 32.95,-56.53 L 33.68,-56.95 L 34.40,-57.37 L 35.13,-57.77 L 35.85,-58.17 L 36.57,-58.56 L 37.28,-58.94 L 38.00,-59.31 L 38.71,-59.68 L 39.43,-60.04 L 40.14,-60.39 L 40.85,-60.74 L 41.56,-61.08 L 42.27,-61.41 L 42.98,-61.74 L 43.69,-62.06 L 44.39,-62.38 L 45.10,-62.69 L 45.81,-62.99 L 46.52,-63.29 L 47.23,-63.59 L 47.94,-63.87 L 48.65,-64.16 L 49.36,-64.43 L 50.07,-64.71 L 50.79,-64.98 L 51.50,-65.24 L 52.22,-65.50 L 52.94,-65.75 L 53.66,-66.00 L 54.39,-66.24 L 55.11,-66.48 L 55.84,-66.72 L 56.57,-66.95 L 57.31,-67.18 L 58.05,-67.40 L 58.79,-67.62 L 59.53,-67.83 L 60.28,-68.04 L 61.04,-68.24 L 61.79,-68.44 L 62.56,-68.64 L 63.32,-68.83 L 64.10,-69.02 L 64.87,-69.20 L 65.66,-69.38 L 66.45,-69.55 L 67.24,-69.72 L 68.04,-69.89 L 68.85,-70.05 L 69.66,-70.20 L 70.49,-70.35 L 71.31,-70.50 L 72.15,-70.64 L 72.99,-70.77 L 73.85,-70.90 L 74.71,-71.02 L 75.57,-71.14 L 76.45,-71.26 L 77.34,-71.36 L 78.23,-71.46 L 79.14,-71.56 L 80.06,-71.65 L 80.98,-71.73 L 81.92,-71.81 L 82.87,-71.87 L 83.83,-71.94 L 84.80,-71.99 L 85.78,-72.04 L 86.77,-72.07 L 87.78,-72.10 L 88.80,-72.12 L 89.83,-72.14 L 90.88,-72.14 L 91.94,-72.13 L 93.01,-72.11 L 94.10,-72.09 L 95.20,-72.05 L 96.32,-72.00 L 97.46,-71.93 L 98.60,-71.86 L 99.77,-71.77 L 100.95,-71.67 L 102.14,-71.56 L 103.36,-71.43 L 104.59,-71.28 L 105.83,-71.12 L 107.10,-70.95 L 108.38,-70.75 L 109.68,-70.54 L 110.99,-70.31 L 112.32,-70.06 L 113.68,-69.79 L 115.04,-69.50 L 116.43,-69.19 L 117.84,-68.86 L 119.26,-68.50 L 120.70,-68.12 L 122.16,-67.71 L 123.63,-67.28 L 125.12,-66.81 L 126.63,-66.33 L 128.16,-65.81 L 129.70,-65.26 L 131.26,-64.68 L 132.83,-64.07 L 134.42,-63.43 L 136.02,-62.75 L 137.63,-62.04 L 139.26,-61.28 L 140.76,-60.43 L 142.08,-59.45 L 143.25,-58.38 L 144.26,-57.21 L 145.12,-55.97 L 145.84,-54.66 L 146.42,-53.29 L 146.86,-51.87 L 147.15,-50.41 L 147.28,-48.90 L 147.26,-47.36 L 147.06,-45.78 L 146.67,-44.19 L 146.07,-42.57 L 145.31,-40.95 L 144.53,-39.36 L 143.74,-37.81 L 142.94,-36.30 L 142.12,-34.82 L 141.30,-33.38 L 140.47,-31.97 L 139.64,-30.59 L 138.80,-29.24 L 137.95,-27.93 L 137.10,-26.65 L 136.24,-25.40 Z" fill="#ff99af" clip-path="url(#clip-petal3)" />
  </g>
</svg>