<svg width="800" height="800" xmlns="http://www.w3.org/2000/svg">
  <defs>
    <clipPath id="clip-petal1">
      <path d="M -800,-800 h 1600 v 1600 h -1600 Z M 9.69,-24.18 L 10.57,-22.84 L 11.44,-21.46 L 12.31,-20.06 L 13.17,-18.62 L 14.02,-17.14 L 14.86,-15.64 L 15.69,-14.10 L 16.51,-12.53 L 17.31,-10.92 L 18.11,-9.28 L 18.86,-7.60 L 19.45,-5.93 L 19.88,-4.25 L 20.17,-2.59 L 20.31,-0.94 L 20.32,0.70 L 20.20,2.31 L 19.96,3.89 L 19.59,5.44 L 19.11,6.95 L 18.51,8.43 L 17.79,9.85 L 16.96,11.22 L 16.01,12.53 L 14.96,13.77 L 13.79,14.95 L 12.50,16.04 L 11.09,17.04 L 9.56,17.95 L 7.91,18.74 L 6.24,19.49 L 4.59,20.21 L 2.95,20.88 L 1.33,21.53 L -0.28,22.14 L -1.88,22.72 L -3.46,23.28 L -5.03,23.80 L -6.58,24.29 L -8.12,24.76 L -9.64,25.20 L -11.14,25.61 L -12.63,26.00 L -14.10,26.36 L -15.56,26.70 L -17.00,27.02 L -18.42,27.32 L -19.83,27.59 L -21.22,27.85 L -22.59,28.08 L -23.94,28.30 L -25.29,28.50 L -26.61,28.68 L -27.92,28.84 L -29.21,28.99 L -30.49,29.13 L -31.75,29.24 L -33.00,29.35 L -34.23,29.43 L -35.45,29.51 L -36.65,29.57 L -37.84,29.62 L -39.01,29.66 L -40.17,29.68 L -41.32,29.70 L -42.45,29.70 L -43.58,29.70 L -44.68,29.68 L -45.78,29.65 L -46.87,29.61 L -47.94,29.57 L -49.00,29.51 L -50.05,29.45 L -51.09,29.38 L -52.12,29.30 L -53.13,29.21 L -54.14,29.11 L -55.14,29.01 L -56.13,28.90 L -57.11,28.78 L -58.08,28.66 L -59.04,28.53 L -59.99,28.39 L -60.94,28.24 L -61.87,28.09 L -62.80,27.94 L -63.72,27.77 L -64.64,27.60 L -65.55,27.43 L -66.45,27.25 L -67.34,27.06 L -68.23,26.87 L -69.11,26.67 L -69.99,26.46 L -70.86,26.26 L -71.73,26.04 L -72.59,25.82 L -73.44,25.59 L -74.29,25.36 L -75.14,25.12 L -75.98,24.88 L -76.82,24.63 L -77.66,24.38 L -78.49,24.12 L -79.32,23.85 L -80.14,23.58 L -80.97,23.31 L -81.79,23.03 L -82.60,22.74 L -83.42,22.45 L -84.23,22.15 L -85.04,21.84 L -85.85,21.53 L -86.66,21.21 L -87.46,20.89 L -88.27,20.56 L -89.07,20.22 L -89.88,19.88 L -90.68,19.53 L -91.48,19.18 L -92.28,18.81 L -93.08,18.44 L -93.88,18.07 L -94.69,17.68 L -95.49,17.29 L -96.29,16.89 L -97.09,16.48 L -97.90,16.07 L -98.70,15.65 L -99.51,15.21 L -100.31,14.77 L -101.12,14.33 L -101.93,13.87 L -102.74,13.40 L -103.55,12.92 L -104.37,12.44 L -105.19,11.94 L -106.00,11.43 L -106.82,10.92 L -107.65,10.39 L -108.47,9.85 L -109.30,9.30 L -110.13,8.74 L -110.97,8.16 L -111.80,7.57 L -112.64,6.97 L -113.48,6.36 L -114.33,5.74 L -115.18,5.10 L -116.03,4.44 L -116.88,3.77 L -117.74,3.09 L -118.60,2.39 L -119.46,1.67 L -120.33,0.94 L -121.20,0.19 L -122.07,-0.57 L -122.95,-1.36 L -123.83,-2.16 L -124.71,-2.98 L -125.59,-3.82 L -126.48,-4.68 L -127.37,-5.56 L -128.26,-6.46 L -129.15,-7.38 L -130.05,-8.33 L -130.94,-9.29 L -131.84,-10.28 L -132.74,-11.30 L -133.64,-12.34 L -134.54,-13.40 L -135.44,-14.49 L -136.34,-15.60 L -137.24,-16.74 L -138.14,-17.91 L -139.03,-19.11 L -139.93,-20.33 L -140.82,-21.59 L -141.70,-22.87 L -142.59,-24.18 L -143.46,-25.53 L -144.34,-26.90 L -145.20,-28.31 L -146.06,-29.75 L -146.91,-31.22 L -147.75,-32.73 L -148.58,-34.27 L -149.40,-35.84 L -150.21,-37.45 L -151.00,-39.09 L -151.75,-40.77 L -152.34,-42.44 L -152.78,-44.12 L -153.06,-45.78 L -153.20,-47.43 L -153.21,-49.06 L -153.09,-50.68 L -152.85,-52.26 L -152.48,-53.81 L -152.00,-55.32 L -151.40,-56.79 L -150.68,-58.22 L -149.85,-59.59 L -148.91,-60.90 L -147.85,-62.14 L -146.68,-63.32 L -145.39,-64.41 L -143.98,-65.41 L -142.45,-66.32 L -140.80,-67.11 L -139.14,-67.86 L -137.49,-68.57 L -135.85,-69.25 L -134.22,-69.90 L -132.61,-70.51 L -131.01,-71.09 L -129.43,-71.65 L -127.86,-72.17 L -126.31,-72.66 L -124.77,-73.13 L -123.25,-73.57 L -121.75,-73.98 L -120.26,-74.37 L -118.79,-74.73 L -117.33,-75.07 L -115.89,-75.39 L -114.47,-75.69 L -113.07,-75.96 L -111.68,-76.22 L -110.30,-76.45 L -108.95,-76.67 L -107.61,-76.87 L -106.28,-77.05 L -104.97,-77.21 L -103.68,-77.36 L -102.40,-77.49 L -101.14,-77.61 L -99.90,-77.71 L -98.66,-77.80 L -97.45,-77.88 L -96.24,-77.94 L -95.06,-77.99 L -93.88,-78.03 L -92.72,-78.05 L -91.57,-78.07 L -90.44,-78.07 L -89.32,-78.06 L -88.21,-78.05 L -87.11,-78.02 L -86.03,-77.98 L -84.95,-77.94 L -83.89,-77.88 L -82.84,-77.82 L -81.81,-77.75 L -80.78,-77.67 L -79.76,-77.58 L -78.75,-77.48 L -77.75,-77.38 L -76.77,-77.27 L -75.79,-77.15 L -74.82,-77.03 L -73.85,-76.90 L -72.90,-76.76 L -71.96,-76.61 L -71.02,-76.46 L -70.09,-76.31 L -69.17,-76.14 L -68.25,-75.97 L -67.35,-75.80 L -66.45,-75.62 L -65.55,-75.43 L -64.66,-75.24 L -63.78,-75.04 L -62.90,-74.83 L -62.03,-74.62 L -61.17,-74.41 L -60.31,-74.19 L -59.45,-73.96 L -58.60,-73.73 L -57.75,-73.49 L -56.91,-73.25 L -56.07,-73.00 L -55.23,-72.75 L -54.40,-72.49 L -53.57,-72.22 L -52.75,-71.95 L -51.93,-71.68 L -51.11,-71.40 L -50.29,-71.11 L -49.47,-70.81 L -48.66,-70.52 L -47.85,-70.21 L -47.04,-69.90 L -46.23,-69.58 L -45.43,-69.26 L -44.62,-68.93 L -43.82,-68.59 L -43.02,-68.25 L -42.21,-67.90 L -41.41,-67.55 L -40.61,-67.18 L -39.81,-66.81 L -39.01,-66.44 L -38.21,-66.05 L -37.40,-65.66 L -36.60,-65.26 L -35.80,-64.85 L -35.00,-64.44 L -34.19,-64.02 L -33.39,-63.58 L -32.58,-63.14 L -31.77,-62.69 L -30.96,-62.24 L -30.15,-61.77 L -29.34,-61.29 L -28.52,-60.81 L -27.71,-60.31 L -26.89,-59.80 L -26.07,-59.28 L -25.24,-58.76 L -24.42,-58.22 L -23.59,-57.67 L -22.76,-57.10 L -21.93,-56.53 L -21.09,-55.94 L -20.25,-55.34 L -19.41,-54.73 L -18.56,-54.10 L -17.72,-53.46 L -16.86,-52.81 L -16.01,-52.14 L -15.15,-51.46 L -14.29,-50.76 L -13.43,-50.04 L -12.56,-49.31 L -11.69,-48.56 L -10.82,-47.80 L -9.94,-47.01 L -9.07,-46.21 L -8.19,-45.39 L -7.30,-44.55 L -6.41,-43.69 L -5.53,-42.81 L -4.63,-41.91 L -3.74,-40.99 L -2.85,-40.04 L -1.95,-39.07 L -1.05,-38.08 L -0.15,-37.07 L 0.75,-36.03 L 1.65,-34.97 L 2.55,-33.88 L 3.45,-32.77 L 4.35,-31.63 L 5.24,-30.46 L 6.14,-29.26 L 7.03,-28.04 L 7.92,-26.78 L 8.81,-25.50 Z" clip-rule="evenodd" />
    </clipPath>
    <clipPath id="clip-petal2">
      <path d="M -800,-800 h 1600 v 1600 h -1600 Z M 27.25,-66.45 L 27.43,-65.55 L 27.60,-64.64 L 27.77,-63.72 L 27.94,-62.80 L 28.09,-61.87 L 28.24,-60.94 L 28.39,-59.99 L 28.53,-59.04 L 28.66,-58.08 L 28.78,-57.11 L 28.90,-56.13 L 29.01,-55.14 L 29.11,-54.14 L 29.21,-53.13 L 29.30,-52.12 L 29.38,-51.09 L 29.45,-50.05 L 29.51,-49.00 L 29.57,-47.94 L 29.61,-46.87 L 29.65,-45.78 L 29.68,-44.68 L 29.70,-43.58 L 29.70,-42.45 L 29.70,-41.32 L 29.68,-40.17 L 29.66,-39.01 L 29.62,-37.84 L 29.57,-36.65 L 29.51,-35.45 L 29.43,-34.23 L 29.35,-33.00 L 29.24,-31.75 L 29.13,-30.49 L 28.99,-29.21 L 28.84,-27.92 L 28.68,-26.61 L 28.50,-25.29 L 28.30,-23.94 L 28.08,-22.59 L 27.85,-21.22 L 27.59,-19.83 L 27.32,-18.42 L 27.02,-17.00 L 26.70,-15.56 L 26.36,-14.10 L 26.00,-12.63 L 25.61,-11.14 L 25.20,-9.64 L 24.76,-8.12 L 24.29,-6.58 L 23.80,-5.03 L 23.28,-3.46 L 22.72,-1.88 L 22.14,-0.28 L 21.53,1.33 L 20.88,2.95 L 20.21,4.59 L 19.49,6.24 L 18.74,7.91 L 17.95,9.56 L 17.04,11.09 L 16.04,12.50 L 14.95,13.79 L 13.77,14.96 L 12.53,16.01 L 11.22,16.96 L 9.85,17.79 L 8.43,18.51 L 6.95,19.11 L 5.44,19.59 L 3.89,19.96 L 2.31,20.20 L 0.70,20.32 L -0.94,20.31 L -2.59,20.17 L -4.25,19.88 L -5.93,19.45 L -7.60,18.86 L -9.28,18.11 L -10.92,17.31 L -12.53,16.51 L -14.10,15.69 L -15.64,14.86 L -17.14,14.02 L -18.62,13.17 L -20.06,12.31 L -21.46,11.44 L -22.84,10.57 L -24.18,9.69 L -25.50,8.81 L -26.78,7.92 L -28.04,7.03 L -29.26,6.14 L -30.46,5.24 L -31.63,4.35 L -32.77,3.45 L -33.88,2.55 L -34.97,1.65 L -36.03,0.75 L -37.07,-0.15 L -38.08,-1.05 L -39.07,-1.95 L -40.04,-2.85 L -40.99,-3.74 L -41.91,-4.63 L -42.81,-5.53 L -43.69,-6.41 L -44.55,-7.30 L -45.39,-8.19 L -46.21,-9.07 L -47.01,-9.94 L -47.80,-10.82 L -48.56,-11.69 L -49.31,-12.56 L -50.04,-13.43 L -50.76,-14.29 L -51.46,-15.15 L -52.14,-16.01 L -52.81,-16.86 L -53.46,-17.72 L -54.10,-18.56 L -54.73,-19.41 L -55.34,-20.25 L -55.94,-21.09 L -56.53,-21.93 L -57.10,-22.76 L -57.67,-23.59 L -58.22,-24.42 L -58.76,-25.24 L -59.28,-26.07 L -59.80,-26.89 L -60.31,-27.71 L -60.81,-28.52 L -61.29,-29.34 L -61.77,-30.15 L -62.24,-30.96 L -62.69,-31.77 L -63.14,-32.58 L -63.58,-33.39 L -64.02,-34.19 L -64.44,-35.00 L -64.85,-35.80 L -65.26,-36.60 L -65.66,-37.40 L -66.05,-38.21 L -66.44,-39.01 L -66.81,-39.81 L -67.18,-40.61 L -67.55,-41.41 L -67.90,-42.21 L -68.25,-43.02 L -68.59,-43.82 L -68.93,-44.62 L -69.26,-45.43 L -69.58,-46.23 L -69.90,-47.04 L -70.21,-47.85 L -70.52,-48.66 L -70.81,-49.47 L -71.11,-50.29 L -71.40,-51.11 L -71.68,-51.93 L -71.95,-52.75 L -72.22,-53.57 L -72.49,-54.40 L -72.75,-55.23 L -73.00,-56.07 L -73.25,-56.91 L -73.49,-57.75 L -73.73,-58.60 L -73.96,-59.45 L -74.19,-60.31 L -74.41,-61.17 L -74.62,-62.03 L -74.83,-62.90 L -75.04,-63.78 L -75.24,-64.66 L -75.43,-65.55 L -75.62,-66.45 L -75.80,-67.35 L -75.97,-68.25 L -76.14,-69.17 L -76.31,-70.09 L -76.46,-71.02 L -76.61,-71.96 L -76.76,-72.90 L -76.90,-73.85 L -77.03,-74.82 L -77.15,-75.79 L -77.27,-76.77 L -77.38,-77.75 L -77.48,-78.75 L -77.58,-79.76 L -77.67,-80.78 L -77.75,-81.81 L -77.82,-82.84 L -77.88,-83.89 L -77.94,-84.95 L -77.98,-86.03 L -78.02,-87.11 L -78.05,-88.21 L -78.06,-89.32 L -78.07,-90.44 L -78.07,-91.57 L -78.05,-92.72 L -78.03,-93.88 L -77.99,-95.06 L -77.94,-96.24 L -77.88,-97.45 L -77.80,-98.66 L -77.71,-99.90 L -77.61,-101.14 L -77.49,-102.40 L -77.36,-103.68 L -77.21,-104.97 L -77.05,-106.28 L -76.87,-107.61 L -76.67,-108.95 L -76.45,-110.30 L -76.22,-111.68 L -75.96,-113.07 L -75.69,-114.47 L -75.39,-115.89 L -75.07,-117.33 L -74.73,-118.79 L -74.37,-120.26 L -73.98,-121.75 L -73.57,-123.25 L -73.13,-124.77 L -72.66,-126.31 L -72.17,-127.86 L -71.65,-129.43 L -71.09,-131.01 L -70.51,-132.61 L -69.90,-134.22 L -69.25,-135.85 L -68.57,-137.49 L -67.86,-139.14 L -67.11,-140.80 L -66.32,-142.45 L -65.41,-143.98 L -64.41,-145.39 L -63.32,-146.68 L -62.14,-147.85 L -60.90,-148.91 L -59.59,-149.85 L -58.22,-150.68 L -56.79,-151.40 L -55.32,-152.00 L -53.81,-152.48 L -52.26,-152.85 L -50.68,-153.09 L -49.06,-153.21 L -47.43,-153.20 L -45.78,-153.06 L -44.12,-152.78 L -42.44,-152.34 L -40.77,-151.75 L -39.09,-151.00 L -37.45,-150.21 L -35.84,-149.40 L -34.27,-148.58 L -32.73,-147.75 L -31.22,-146.91 L -29.75,-146.06 L -28.31,-145.20 L -26.90,-144.34 L -25.53,-143.46 L -24.18,-142.59 L -22.87,-141.70 L -21.59,-140.82 L -20.33,-139.93 L -19.11,-139.03 L -17.91,-138.14 L -16.74,-137.24 L -15.60,-136.34 L -14.49,-135.44 L -13.40,-134.54 L -12.34,-133.64 L -11.30,-132.74 L -10.28,-131.84 L -9.29,-130.94 L -8.33,-130.05 L -7.38,-129.15 L -6.46,-128.26 L -5.56,-127.37 L -4.68,-126.48 L -3.82,-125.59 L -2.98,-124.71 L -2.16,-123.83 L -1.36,-122.95 L -0.57,-122.07 L 0.19,-121.20 L 0.94,-120.33 L 1.67,-119.46 L 2.39,-118.60 L 3.09,-117.74 L 3.77,-116.88 L 4.44,-116.03 L 5.10,-115.18 L 5.74,-114.33 L 6.36,-113.48 L 6.97,-112.64 L 7.57,-111.80 L 8.16,-110.97 L 8.74,-110.13 L 9.30,-109.30 L 9.85,-108.47 L 10.39,-107.65 L 10.92,-106.82 L 11.43,-106.00 L 11.94,-105.19 L 12.44,-104.37 L 12.92,-103.55 L 13.40,-102.74 L 13.87,-101.93 L 14.33,-101.12 L 14.77,-100.31 L 15.21,-99.51 L 15.65,-98.70 L 16.07,-97.90 L 16.48,-97.09 L 16.89,-96.29 L 17.29,-95.49 L 17.68,-94.69 L 18.07,-93.88 L 18.44,-93.08 L 18.81,-92.28 L 19.18,-91.48 L 19.53,-90.68 L 19.88,-89.88 L 20.22,-89.07 L 20.56,-88.27 L 20.89,-87.46 L 21.21,-86.66 L 21.53,-85.85 L 21.84,-85.04 L 22.15,-84.23 L 22.45,-83.42 L 22.74,-82.60 L 23.03,-81.79 L 23.31,-80.97 L 23.58,-80.14 L 23.85,-79.32 L 24.12,-78.49 L 24.38,-77.66 L 24.63,-76.82 L 24.88,-75.98 L 25.12,-75.14 L 25.36,-74.29 L 25.59,-73.44 L 25.82,-72.59 L 26.04,-71.73 L 26.26,-70.86 L 26.46,-69.99 L 26.67,-69.11 L 26.87,-68.23 L 27.06,-67.34 Z" clip-rule="evenodd" />
    </clipPath>
    <clipPath id="clip-petal3">
      <path d="M -800,-800 h 1600 v 1600 h -1600 Z M 75.62,-66.45 L 75.43,-65.55 L 75.24,-64.66 L 75.04,-63.78 L 74.83,-62.90 L 74.62,-62.03 L 74.41,-61.17 L 74.19,-60.31 L 73.96,-59.45 L 73.73,-58.60 L 73.49,-57.75 L 73.25,-56.91 L 73.00,-56.07 L 72.75,-55.23 L 72.49,-54.40 L 72.22,-53.57 L 71.95,-52.75 L 71.68,-51.93 L 71.40,-51.11 L 71.11,-50.29 L 70.81,-49.47 L 70.52,-48.66 L 70.21,-47.85 L 69.90,-47.04 L 69.58,-46.23 L 69.26,-45.43 L 68.93,-44.62 L 68.59,-43.82 L 68.25,-43.02 L 67.90,-42.21 L 67.55,-41.41 L 67.18,-40.61 L 66.81,-39.81 L 66.44,-39.01 L 66.05,-38.21 L 65.66,-37.40 L 65.26,-36.60 L 64.85,-35.80 L 64.44,-35.00 L 64.02,-34.19 L 63.58,-33.39 L 63.14,-32.58 L 62.69,-31.77 L 62.24,-30.96 L 61.77,-30.15 L 61.29,-29.34 L 60.81,-28.52 L 60.31,-27.71 L 59.80,-26.89 L 59.28,-26.07 L 58.76,-25.24 L 58.22,-24.42 L 57.67,-23.59 L 57.10,-22.76 L 56.53,-21.93 L 55.94,-21.09 L 55.34,-20.25 L 54.73,-19.41 L 54.10,-18.56 L 53.46,-17.72 L 52.81,-16.86 L 52.14,-16.01 L 51.46,-15.15 L 50.76,-14.29 L 50.04,-13.43 L 49.31,-12.56 L 48.56,-11.69 L 47.80,-10.82 L 47.01,-9.94 L 46.21,-9.07 L 45.39,-8.19 L 44.55,-7.30 L 43.69,-6.41 L 42.81,-5.53 L 41.91,-4.63 L 40.99,-3.74 L 40.04,-2.85 L 39.07,-1.95 L 38.08,-1.05 L 37.07,-0.15 L 36.03,0.75 L 34.97,1.65 L 33.88,2.55 L 32.77,3.45 L 31.63,4.35 L 30.46,5.24 L 29.26,6.14 L 28.04,7.03 L 26.78,7.92 L 25.50,8.81 L 24.18,9.69 L 22.84,10.57 L 21.46,11.44 L 20.06,12.31 L 18.62,13.17 L 17.14,14.02 L 15.64,14.86 L 14.10,15.69 L 12.53,16.51 L 10.92,17.31 L 9.28,18.11 L 7.60,18.86 L 5.93,19.45 L 4.25,19.88 L 2.59,20.17 L 0.94,20.31 L -0.70,20.32 L -2.31,20.20 L -3.89,19.96 L -5.44,19.59 L -6.95,19.11 L -8.43,18.51 L -9.85,17.79 L -11.22,16.96 L -12.53,16.01 L -13.77,14.96 L -14.95,13.79 L -16.04,12.50 L -17.04,11.09 L -17.95,9.56 L -18.74,7.91 L -19.49,6.24 L -20.21,4.59 L -20.88,2.95 L -21.53,1.33 L -22.14,-0.28 L -22.72,-1.88 L -23.28,-3.46 L -23.80,-5.03 L -24.29,-6.58 L -24.76,-8.12 L -25.20,-9.64 L -25.61,-11.14 L -26.00,-12.63 L -26.36,-14.10 L -26.70,-15.56 L -27.02,-17.00 L -27.32,-18.42 L -27.59,-19.83 L -27.85,-21.22 L -28.08,-22.59 L -28.30,-23.94 L -28.50,-25.29 L -28.68,-26.61 L -28.84,-27.92 L -28.99,-29.21 L -29.13,-30.49 L -29.24,-31.75 L -29.35,-33.00 L -29.43,-34.23 L -29.51,-35.45 L -29.57,-36.65 L -29.62,-37.84 L -29.66,-39.01 L -29.68,-40.17 L -29.70,-41.32 L -29.70,-42.45 L -29.70,-43.58 L -29.68,-44.68 L -29.65,-45.78 L -29.61,-46.87 L -29.57,-47.94 L -29.51,-49.00 L -29.45,-50.05 L -29.38,-51.09 L -29.30,-52.12 L -29.21,-53.13 L -29.11,-54.14 L -29.01,-55.14 L -28.90,-56.13 L -28.78,-57.11 L -28.66,-58.08 L -28.53,-59.04 L -28.39,-59.99 L -28.24,-60.94 L -28.09,-61.87 L -27.94,-62.80 L -27.77,-63.72 L -27.60,-64.64 L -27.43,-65.55 L -27.25,-66.45 L -27.06,-67.34 L -26.87,-68.23 L -26.67,-69.11 L -26.46,-69.99 L -26.26,-70.86 L -26.04,-71.73 L -25.82,-72.59 L -25.59,-73.44 L -25.36,-74.29 L -25.12,-75.14 L -24.88,-75.98 L -24.63,-76.82 L -24.38,-77.66 L -24.12,-78.49 L -23.85,-79.32 L -23.58,-80.14 L -23.31,-80.97 L -23.03,-81.79 L -22.74,-82.60 L -22.45,-83.42 L -22.15,-84.23 L -21.84,-85.04 L -21.53,-85.85 L -21.21,-86.66 L -20.89,-87.46 L -20.56,-88.27 L -20.22,-89.07 L -19.88,-89.88 L -19.53,-90.68 L -19.18,-91.48 L -18.81,-92.28 L -18.44,-93.08 L -18.07,-93.88 L -17.68,-94.69 L -17.29,-95.49 L -16.89,-96.29 L -16.48,-97.09 L -16.07,-97.90 L -15.65,-98.70 L -15.21,-99.51 L -14.77,-100.31 L -14.33,-101.12 L -13.87,-101.93 L -13.40,-102.74 L -12.92,-103.55 L -12.44,-104.37 L -11.94,-105.19 L -11.43,-106.00 L -10.92,-106.82 L -10.39,-107.65 L -9.85,-108.47 L -9.30,-109.30 L -8.74,-110.13 L -8.16,-110.97 L -7.57,-111.80 L -6.97,-112.64 L -6.36,-113.48 L -5.74,-114.33 L -5.10,-115.18 L -4.44,-116.03 L -3.77,-116.88 L -3.09,-117.74 L -2.39,-118.60 L -1.67,-119.46 L -0.94,-120.33 L -0.19,-121.20 L 0.57,-122.07 L 1.36,-122.95 L 2.16,-123.83 L 2.98,-124.71 L 3.82,-125.59 L 4.68,-126.48 L 5.56,-127.37 L 6.46,-128.26 L 7.38,-129.15 L 8.33,-130.05 L 9.29,-130.94 L 10.28,-131.84 L 11.30,-132.74 L 12.34,-133.64 L 13.40,-134.54 L 14.49,-135.44 L 15.60,-136.34 L 16.74,-137.24 L 17.91,-138.14 L 19.11,-139.03 L 20.33,-139.93 L 21.59,-140.82 L 22.87,-141.70 L 24.18,-142.59 L 25.53,-143.46 L 26.90,-144.34 L 28.31,-145.20 L 29.75,-146.06 L 31.22,-146.91 L 32.73,-147.75 L 34.27,-148.58 L 35.84,-149.40 L 37.45,-150.21 L 39.09,-151.00 L 40.77,-151.75 L 42.44,-152.34 L 44.12,-152.78 L 45.78,-153.06 L 47.43,-153.20 L 49.06,-153.21 L 50.68,-153.09 L 52.26,-152.85 L 53.81,-152.48 L 55.32,-152.00 L 56.79,-151.40 L 58.22,-150.68 L 59.59,-149.85 L 60.90,-148.91 L 62.14,-147.85 L 63.32,-146.68 L 64.41,-145.39 L 65.41,-143.98 L 66.32,-142.45 L 67.11,-140.80 L 67.86,-139.14 L 68.57,-137.49 L 69.25,-135.85 L 69.90,-134.22 L 70.51,-132.61 L 71.09,-131.01 L 71.65,-129.43 L 72.17,-127.86 L 72.66,-126.31 L 73.13,-124.77 L 73.57,-123.25 L 73.98,-121.75 L 74.37,-120.26 L 74.73,-118.79 L 75.07,-117.33 L 75.39,-115.89 L 75.69,-114.47 L 75.96,-113.07 L 76.22,-111.68 L 76.45,-110.30 L 76.67,-108.95 L 76.87,-107.61 L 77.05,-106.28 L 77.21,-104.97 L 77.36,-103.68 L 77.49,-102.40 L 77.61,-101.14 L 77.71,-99.90 L 77.80,-98.66 L 77.88,-97.45 L 77.94,-96.24 L 77.99,-95.06 L 78.03,-93.88 L 78.05,-92.72 L 78.07,-91.57 L 78.07,-90.44 L 78.06,-89.32 L 78.05,-88.21 L 78.02,-87.11 L 77.98,-86.03 L 77.94,-84.95 L 77.88,-83.89 L 77.82,-82.84 L 77.75,-81.81 L 77.67,-80.78 L 77.58,-79.76 L 77.48,-78.75 L 77.38,-77.75 L 77.27,-76.77 L 77.15,-75.79 L 77.03,-74.82 L 76.90,-73.85 L 76.76,-72.90 L 76.61,-71.96 L 76.46,-71.02 L 76.31,-70.09 L 76.14,-69.17 L 75.97,-68.25 L 75.80,-67.35 Z" clip-rule="evenodd" />
    </clipPath>
  </defs>
  <g transform="translate(400.0, 400.0)">
    <path d="M -0.47,-24.18 L 0.38,-23.02 L 1.22,-21.82 L 2.07,-20.59 L 2.91,-19.33 L 3.75,-18.04 L 4.58,-16.72 L 5.41,-15.36 L 6.23,-13.97 L 7.04,-12.54 L 7.85,-11.08 L 8.64,-9.59 L 9.43,-8.06 L 10.20,-6.49 L 10.96,-4.88 L 11.54,-3.29 L 11.88,-1.73 L 12.00,-0.20 L 11.93,1.28 L 11.69,2.72 L 11.28,4.10 L 10.70,5.43 L 9.96,6.69 L 9.06,7.87 L 7.99,8.96 L 6.73,9.94 L 5.26,10.79 L 3.64,11.53 L 2.04,12.23 L 0.46,12.90 L -1.11,13.54 L -2.67,14.14 L -4.21,14.71 L -5.73,15.24 L -7.24,15.75 L -8.73,16.23 L -10.20,16.68 L -11.65,17.11 L -13.09,17.50 L -14.51,17.88 L -15.91,18.22 L -17.29,18.55 L -18.65,18.85 L -19.99,19.13 L -21.32,19.39 L -22.63,19.63 L -23.92,19.86 L -25.19,20.06 L -26.44,20.25 L -27.68,20.42 L -28.89,20.57 L -30.09,20.71 L -31.28,20.83 L -32.44,20.94 L -33.59,21.03 L -34.73,21.12 L -35.84,21.19 L -36.95,21.24 L -38.03,21.29 L -39.10,21.32 L -40.16,21.35 L -41.20,21.36 L -42.22,21.37 L -43.24,21.36 L -44.24,21.35 L -45.22,21.33 L -46.20,21.30 L -47.16,21.26 L -48.10,21.22 L -49.04,21.16 L -49.96,21.10 L -50.88,21.04 L -51.78,20.96 L -52.67,20.88 L -53.55,20.80 L -54.42,20.71 L -55.28,20.61 L -56.13,20.51 L -56.97,20.40 L -57.80,20.29 L -58.63,20.17 L -59.44,20.04 L -60.25,19.92 L -61.05,19.78 L -61.84,19.64 L -62.62,19.50 L -63.40,19.36 L -64.17,19.21 L -64.94,19.05 L -65.69,18.89 L -66.45,18.73 L -67.19,18.56 L -67.93,18.39 L -68.67,18.21 L -69.40,18.03 L -70.12,17.85 L -70.84,17.66 L -71.56,17.47 L -72.27,17.27 L -72.98,17.07 L -73.69,16.87 L -74.39,16.66 L -75.08,16.45 L -75.78,16.24 L -76.47,16.02 L -77.16,15.79 L -77.84,15.57 L -78.53,15.33 L -79.21,15.10 L -79.89,14.86 L -80.57,14.61 L -81.24,14.37 L -81.92,14.11 L -82.59,13.86 L -83.27,13.59 L -83.94,13.33 L -84.61,13.05 L -85.28,12.78 L -85.95,12.50 L -86.62,12.21 L -87.29,11.92 L -87.96,11.62 L -88.63,11.32 L -89.30,11.01 L -89.97,10.70 L -90.65,10.38 L -91.32,10.05 L -92.00,9.72 L -92.67,9.38 L -93.35,9.04 L -94.03,8.69 L -94.71,8.33 L -95.39,7.96 L -96.08,7.59 L -96.77,7.21 L -97.46,6.82 L -98.15,6.43 L -98.84,6.03 L -99.54,5.61 L -100.24,5.19 L -100.95,4.76 L -101.65,4.33 L -102.36,3.88 L -103.08,3.42 L -103.80,2.95 L -104.52,2.47 L -105.24,1.98 L -105.97,1.48 L -106.71,0.97 L -107.44,0.45 L -108.18,-0.09 L -108.93,-0.63 L -109.68,-1.20 L -110.44,-1.77 L -111.20,-2.36 L -111.96,-2.96 L -112.73,-3.58 L -113.50,-4.21 L -114.28,-4.86 L -115.07,-5.52 L -115.85,-6.20 L -116.65,-6.90 L -117.44,-7.61 L -118.25,-8.35 L -119.05,-9.10 L -119.86,-9.87 L -120.68,-10.66 L -121.50,-11.47 L -122.32,-12.31 L -123.15,-13.16 L -123.98,-14.04 L -124.81,-14.94 L -125.65,-15.86 L -126.49,-16.81 L -127.34,-17.78 L -128.18,-18.78 L -129.03,-19.81 L -129.88,-20.86 L -130.72,-21.94 L -131.57,-23.05 L -132.42,-24.18 L -133.27,-25.35 L -134.12,-26.55 L -134.96,-27.78 L -135.80,-29.03 L -136.64,-30.33 L -137.47,-31.65 L -138.30,-33.01 L -139.12,-34.40 L -139.94,-35.82 L -140.74,-37.28 L -141.54,-38.78 L -142.32,-40.31 L -143.10,-41.88 L -143.85,-43.48 L -144.43,-45.08 L -144.77,-46.64 L -144.89,-48.17 L -144.82,-49.65 L -144.58,-51.09 L -144.17,-52.47 L -143.59,-53.80 L -142.86,-55.06 L -141.95,-56.24 L -140.88,-57.32 L -139.62,-58.31 L -138.15,-59.16 L -136.54,-59.90 L -134.94,-60.60 L -133.35,-61.27 L -131.78,-61.91 L -130.22,-62.51 L -128.68,-63.08 L -127.16,-63.61 L -125.65,-64.12 L -124.17,-64.60 L -122.69,-65.05 L -121.24,-65.47 L -119.80,-65.87 L -118.39,-66.24 L -116.99,-66.59 L -115.61,-66.92 L -114.24,-67.22 L -112.90,-67.50 L -111.57,-67.76 L -110.27,-68.00 L -108.98,-68.23 L -107.71,-68.43 L -106.45,-68.62 L -105.22,-68.78 L -104.00,-68.94 L -102.80,-69.08 L -101.61,-69.20 L -100.45,-69.31 L -99.30,-69.40 L -98.17,-69.48 L -97.05,-69.55 L -95.95,-69.61 L -94.86,-69.66 L -93.79,-69.69 L -92.74,-69.72 L -91.69,-69.73 L -90.67,-69.74 L -89.65,-69.73 L -88.66,-69.72 L -87.67,-69.70 L -86.70,-69.67 L -85.74,-69.63 L -84.79,-69.59 L -83.85,-69.53 L -82.93,-69.47 L -82.02,-69.41 L -81.12,-69.33 L -80.23,-69.25 L -79.35,-69.17 L -78.48,-69.08 L -77.61,-68.98 L -76.76,-68.88 L -75.92,-68.77 L -75.09,-68.65 L -74.27,-68.54 L -73.45,-68.41 L -72.64,-68.28 L -71.84,-68.15 L -71.05,-68.01 L -70.27,-67.87 L -69.49,-67.73 L -68.72,-67.57 L -67.96,-67.42 L -67.20,-67.26 L -66.45,-67.10 L -65.70,-66.93 L -64.96,-66.76 L -64.22,-66.58 L -63.49,-66.40 L -62.77,-66.22 L -62.05,-66.03 L -61.33,-65.84 L -60.62,-65.64 L -59.91,-65.44 L -59.21,-65.24 L -58.51,-65.03 L -57.81,-64.82 L -57.11,-64.61 L -56.42,-64.39 L -55.73,-64.16 L -55.05,-63.94 L -54.36,-63.70 L -53.68,-63.47 L -53.00,-63.23 L -52.32,-62.98 L -51.65,-62.74 L -50.97,-62.48 L -50.30,-62.22 L -49.63,-61.96 L -48.95,-61.70 L -48.28,-61.42 L -47.61,-61.15 L -46.94,-60.87 L -46.27,-60.58 L -45.60,-60.29 L -44.93,-59.99 L -44.26,-59.69 L -43.59,-59.38 L -42.92,-59.07 L -42.25,-58.75 L -41.57,-58.42 L -40.90,-58.09 L -40.22,-57.75 L -39.54,-57.41 L -38.86,-57.06 L -38.18,-56.70 L -37.50,-56.33 L -36.81,-55.96 L -36.13,-55.58 L -35.44,-55.19 L -34.74,-54.80 L -34.05,-54.40 L -33.35,-53.98 L -32.65,-53.56 L -31.95,-53.13 L -31.24,-52.69 L -30.53,-52.25 L -29.81,-51.79 L -29.10,-51.32 L -28.38,-50.84 L -27.65,-50.35 L -26.92,-49.85 L -26.19,-49.34 L -25.45,-48.82 L -24.71,-48.28 L -23.96,-47.73 L -23.21,-47.17 L -22.46,-46.60 L -21.70,-46.01 L -20.93,-45.41 L -20.16,-44.79 L -19.39,-44.16 L -18.61,-43.51 L -17.83,-42.85 L -17.04,-42.17 L -16.25,-41.47 L -15.45,-40.75 L -14.65,-40.02 L -13.84,-39.27 L -13.03,-38.50 L -12.21,-37.71 L -11.39,-36.89 L -10.57,-36.06 L -9.74,-35.21 L -8.91,-34.33 L -8.08,-33.43 L -7.24,-32.51 L -6.40,-31.56 L -5.56,-30.58 L -4.71,-29.59 L -3.87,-28.56 L -3.02,-27.51 L -2.17,-26.43 L -1.32,-25.32 Z" fill="#ffbfcd" />
    <path d="M 18.73,-66.45 L 18.89,-65.69 L 19.05,-64.94 L 19.21,-64.17 L 19.36,-63.40 L 19.50,-62.62 L 19.64,-61.84 L 19.78,-61.05 L 19.92,-60.25 L 20.04,-59.44 L 20.17,-58.63 L 20.29,-57.80 L 20.40,-56.97 L 20.51,-56.13 L 20.61,-55.28 L 20.71,-54.42 L 20.80,-53.55 L 20.88,-52.67 L 20.96,-51.78 L 21.04,-50.88 L 21.10,-49.96 L 21.16,-49.04 L 21.22,-48.10 L 21.26,-47.16 L 21.30,-46.20 L 21.33,-45.22 L 21.35,-44.24 L 21.36,-43.24 L 21.37,-42.22 L 21.36,-41.20 L 21.35,-40.16 L 21.32,-39.10 L 21.29,-38.03 L 21.24,-36.95 L 21.19,-35.84 L 21.12,-34.73 L 21.03,-33.59 L 20.94,-32.44 L 20.83,-31.28 L 20.71,-30.09 L 20.57,-28.89 L 20.42,-27.68 L 20.25,-26.44 L 20.06,-25.19 L 19.86,-23.92 L 19.63,-22.63 L 19.39,-21.32 L 19.13,-19.99 L 18.85,-18.65 L 18.55,-17.29 L 18.22,-15.91 L 17.88,-14.51 L 17.50,-13.09 L 17.11,-11.65 L 16.68,-10.20 L 16.23,-8.73 L 15.75,-7.24 L 15.24,-5.73 L 14.71,-4.21 L 14.14,-2.67 L 13.54,-1.11 L 12.90,0.46 L 12.23,2.04 L 11.53,3.64 L 10.79,5.26 L 9.94,6.73 L 8.96,7.99 L 7.87,9.06 L 6.69,9.96 L 5.43,10.70 L 4.10,11.28 L 2.72,11.69 L 1.28,11.93 L -0.20,12.00 L -1.73,11.88 L -3.29,11.54 L -4.88,10.96 L -6.49,10.20 L -8.06,9.43 L -9.59,8.64 L -11.08,7.85 L -12.54,7.04 L -13.97,6.23 L -15.36,5.41 L -16.72,4.58 L -18.04,3.75 L -19.33,2.91 L -20.59,2.07 L -21.82,1.22 L -23.02,0.38 L -24.18,-0.47 L -25.32,-1.32 L -26.43,-2.17 L -27.51,-3.02 L -28.56,-3.87 L -29.59,-4.71 L -30.58,-5.56 L -31.56,-6.40 L -32.51,-7.24 L -33.43,-8.08 L -34.33,-8.91 L -35.21,-9.74 L -36.06,-10.57 L -36.89,-11.39 L -37.71,-12.21 L -38.50,-13.03 L -39.27,-13.84 L -40.02,-14.65 L -40.75,-15.45 L -41.47,-16.25 L -42.17,-17.04 L -42.85,-17.83 L -43.51,-18.61 L -44.16,-19.39 L -44.79,-20.16 L -45.41,-20.93 L -46.01,-21.70 L -46.60,-22.46 L -47.17,-23.21 L -47.73,-23.96 L -48.28,-24.71 L -48.82,-25.45 L -49.34,-26.19 L -49.85,-26.92 L -50.35,-27.65 L -50.84,-28.38 L -51.32,-29.10 L -51.79,-29.81 L -52.25,-30.53 L -52.69,-31.24 L -53.13,-31.95 L -53.56,-32.65 L -53.98,-33.35 L -54.40,-34.05 L -54.80,-34.74 L -55.19,-35.44 L -55.58,-36.13 L -55.96,-36.81 L -56.33,-37.50 L -56.70,-38.18 L -57.06,-38.86 L -57.41,-39.54 L -57.75,-40.22 L -58.09,-40.90 L -58.42,-41.57 L -58.75,-42.25 L -59.07,-42.92 L -59.38,-43.59 L -59.69,-44.26 L -59.99,-44.93 L -60.29,-45.60 L -60.58,-46.27 L -60.87,-46.94 L -61.15,-47.61 L -61.42,-48.28 L -61.70,-48.95 L -61.96,-49.63 L -62.22,-50.30 L -62.48,-50.97 L -62.74,-51.65 L -62.98,-52.32 L -63.23,-53.00 L -63.47,-53.68 L -63.70,-54.36 L -63.94,-55.05 L -64.16,-55.73 L -64.39,-56.42 L -64.61,-57.11 L -64.82,-57.81 L -65.03,-58.51 L -65.24,-59.21 L -65.44,-59.91 L -65.64,-60.62 L -65.84,-61.33 L -66.03,-62.05 L -66.22,-62.77 L -66.40,-63.49 L -66.58,-64.22 L -66.76,-64.96 L -66.93,-65.70 L -67.10,-66.45 L -67.26,-67.20 L -67.42,-67.96 L -67.57,-68.72 L -67.73,-69.49 L -67.87,-70.27 L -68.01,-71.05 L -68.15,-71.84 L -68.28,-72.64 L -68.41,-73.45 L -68.54,-74.27 L -68.65,-75.09 L -68.77,-75.92 L -68.88,-76.76 L -68.98,-77.61 L -69.08,-78.48 L -69.17,-79.35 L -69.25,-80.23 L -69.33,-81.12 L -69.41,-82.02 L -69.47,-82.93 L -69.53,-83.85 L -69.59,-84.79 L -69.63,-85.74 L -69.67,-86.70 L -69.70,-87.67 L -69.72,-88.66 L -69.73,-89.65 L -69.74,-90.67 L -69.73,-91.69 L -69.72,-92.74 L -69.69,-93.79 L -69.66,-94.86 L -69.61,-95.95 L -69.55,-97.05 L -69.48,-98.17 L -69.40,-99.30 L -69.31,-100.45 L -69.20,-101.61 L -69.08,-102.80 L -68.94,-104.00 L -68.78,-105.22 L -68.62,-106.45 L -68.43,-107.71 L -68.23,-108.98 L -68.00,-110.27 L -67.76,-111.57 L -67.50,-112.90 L -67.22,-114.24 L -66.92,-115.61 L -66.59,-116.99 L -66.24,-118.39 L -65.87,-119.80 L -65.47,-121.24 L -65.05,-122.69 L -64.60,-124.17 L -64.12,-125.65 L -63.61,-127.16 L -63.08,-128.68 L -62.51,-130.22 L -61.91,-131.78 L -61.27,-133.35 L -60.60,-134.94 L -59.90,-136.54 L -59.16,-138.15 L -58.31,-139.62 L -57.32,-140.88 L -56.24,-141.95 L -55.06,-142.86 L -53.80,-143.59 L -52.47,-144.17 L -51.09,-144.58 L -49.65,-144.82 L -48.17,-144.89 L -46.64,-144.77 L -45.08,-144.43 L -43.48,-143.85 L -41.88,-143.10 L -40.31,-142.32 L -38.78,-141.54 L -37.28,-140.74 L -35.82,-139.94 L -34.40,-139.12 L -33.01,-138.30 L -31.65,-137.47 L -30.33,-136.64 L -29.03,-135.80 L -27.78,-134.96 L -26.55,-134.12 L -25.35,-133.27 L -24.18,-132.42 L -23.05,-131.57 L -21.94,-130.72 L -20.86,-129.88 L -19.81,-129.03 L -18.78,-128.18 L -17.78,-127.34 L -16.81,-126.49 L -15.86,-125.65 L -14.94,-124.81 L -14.04,-123.98 L -13.16,-123.15 L -12.31,-122.32 L -11.47,-121.50 L -10.66,-120.68 L -9.87,-119.86 L -9.10,-119.05 L -8.35,-118.25 L -7.61,-117.44 L -6.90,-116.65 L -6.20,-115.85 L -5.52,-115.07 L -4.86,-114.28 L -4.21,-113.50 L -3.58,-112.73 L -2.96,-111.96 L -2.36,-111.20 L -1.77,-110.44 L -1.20,-109.68 L -0.63,-108.93 L -0.09,-108.18 L 0.45,-107.44 L 0.97,-106.71 L 1.48,-105.97 L 1.98,-105.24 L 2.47,-104.52 L 2.95,-103.80 L 3.42,-103.08 L 3.88,-102.36 L 4.33,-101.65 L 4.76,-100.95 L 5.19,-100.24 L 5.61,-99.54 L 6.03,-98.84 L 6.43,-98.15 L 6.82,-97.46 L 7.21,-96.77 L 7.59,-96.08 L 7.96,-95.39 L 8.33,-94.71 L 8.69,-94.03 L 9.04,-93.35 L 9.38,-92.67 L 9.72,-92.00 L 10.05,-91.32 L 10.38,-90.65 L 10.70,-89.97 L 11.01,-89.30 L 11.32,-88.63 L 11.62,-87.96 L 11.92,-87.29 L 12.21,-86.62 L 12.50,-85.95 L 12.78,-85.28 L 13.05,-84.61 L 13.33,-83.94 L 13.59,-83.27 L 13.86,-82.59 L 14.11,-81.92 L 14.37,-81.24 L 14.61,-80.57 L 14.86,-79.89 L 15.10,-79.21 L 15.33,-78.53 L 15.57,-77.84 L 15.79,-77.16 L 16.02,-76.47 L 16.24,-75.78 L 16.45,-75.08 L 16.66,-74.39 L 16.87,-73.69 L 17.07,-72.98 L 17.27,-72.27 L 17.47,-71.56 L 17.66,-70.84 L 17.85,-70.12 L 18.03,-69.40 L 18.21,-68.67 L 18.39,-67.93 L 18.56,-67.19 Z" fill="#ffb2c3" clip-path="url(#clip-petal1)" />
    <path d="M 67.10,-66.45 L 66.93,-65.70 L 66.76,-64.96 L 66.58,-64.22 L 66.40,-63.49 L 66.22,-62.77 L 66.03,-62.05 L 65.84,-61.33 L 65.64,-60.62 L 65.44,-59.91 L 65.24,-59.21 L 65.03,-58.51 L 64.82,-57.81 L 64.61,-57.11 L 64.39,-56.42 L 64.16,-55.73 L 63.94,-55.05 L 63.70,-54.36 L 63.47,-53.68 L 63.23,-53.00 L 62.98,-52.32 L 62.74,-51.65 L 62.48,-50.97 L 62.22,-50.30 L 61.96,-49.63 L 61.70,-48.95 L 61.42,-48.28 L 61.15,-47.61 L 60.87,-46.94 L 60.58,-46.27 L 60.29,-45.60 L 59.99,-44.93 L 59.69,-44.26 L 59.38,-43.59 L 59.07,-42.92 L 58.75,-42.25 L 58.42,-41.57 L 58.09,-40.90 L 57.75,-40.22 L 57.41,-39.54 L 57.06,-38.86 L 56.70,-38.18 L 56.33,-37.50 L 55.96,-36.81 L 55.58,-36.13 L 55.19,-35.44 L 54.80,-34.74 L 54.40,-34.05 L 53.98,-33.35 L 53.56,-32.65 L 53.13,-31.95 L 52.69,-31.24 L 52.25,-30.53 L 51.79,-29.81 L 51.32,-29.10 L 50.84,-28.38 L 50.35,-27.65 L 49.85,-26.92 L 49.34,-26.19 L 48.82,-25.45 L 48.28,-24.71 L 47.73,-23.96 L 47.17,-23.21 L 46.60,-22.46 L 46.01,-21.70 L 45.41,-20.93 L 44.79,-20.16 L 44.16,-19.39 L 43.51,-18.61 L 42.85,-17.83 L 42.17,-17.04 L 41.47,-16.25 L 40.75,-15.45 L 40.02,-14.65 L 39.27,-13.84 L 38.50,-13.03 L 37.71,-12.21 L 36.89,-11.39 L 36.06,-10.57 L 35.21,-9.74 L 34.33,-8.91 L 33.43,-8.08 L 32.51,-7.24 L 31.56,-6.40 L 30.58,-5.56 L 29.59,-4.71 L 28.56,-3.87 L 27.51,-3.02 L 26.43,-2.17 L 25.32,-1.32 L 24.18,-0.47 L 23.02,0.38 L 21.82,1.22 L 20.59,2.07 L 19.33,2.91 L 18.04,3.75 L 16.72,4.58 L 15.36,5.41 L 13.97,6.23 L 12.54,7.04 L 11.08,7.85 L 9.59,8.64 L 8.06,9.43 L 6.49,10.20 L 4.88,10.96 L 3.29,11.54 L 1.73,11.88 L 0.20,12.00 L -1.28,11.93 L -2.72,11.69 L -4.10,11.28 L -5.43,10.70 L -6.69,9.96 L -7.87,9.06 L -8.96,7.99 L -9.94,6.73 L -10.79,5.26 L -11.53,3.64 L -12.23,2.04 L -12.90,0.46 L -13.54,-1.11 L -14.14,-2.67 L -14.71,-4.21 L -15.24,-5.73 L -15.75,-7.24 L -16.23,-8.73 L -16.68,-10.20 L -17.11,-11.65 L -17.50,-13.09 L -17.88,-14.51 L -18.22,-15.91 L -18.55,-17.29 L -18.85,-18.65 L -19.13,-19.99 L -19.39,-21.32 L -19.63,-22.63 L -19.86,-23.92 L -20.06,-25.19 L -20.25,-26.44 L -20.42,-27.68 L -20.57,-28.89 L -20.71,-30.09 L -20.83,-31.28 L -20.94,-32.44 L -21.03,-33.59 L -21.12,-34.73 L -21.19,-35.84 L -21.24,-36.95 L -21.29,-38.03 L -21.32,-39.10 L -21.35,-40.16 L -21.36,-41.20 L -21.37,-42.22 L -21.36,-43.24 L -21.35,-44.24 L -21.33,-45.22 L -21.30,-46.20 L -21.26,-47.16 L -21.22,-48.10 L -21.16,-49.04 L -21.10,-49.96 L -21.04,-50.88 L -20.96,-51.78 L -20.88,-52.67 L -20.80,-53.55 L -20.71,-54.42 L -20.61,-55.28 L -20.51,-56.13 L -20.40,-56.97 L -20.29,-57.80 L -20.17,-58.63 L -20.04,-59.44 L -19.92,-60.25 L -19.78,-61.05 L -19.64,-61.84 L -19.50,-62.62 L -19.36,-63.40 L -19.21,-64.17 L -19.05,-64.94 L -18.89,-65.69 L -18.73,-66.45 L -18.56,-67.19 L -18.39,-67.93 L -18.21,-68.67 L -18.03,-69.40 L -17.85,-70.12 L -17.66,-70.84 L -17.47,-71.56 L -17.27,-72.27 L -17.07,-72.98 L -16.87,-73.69 L -16.66,-74.39 L -16.45,-75.08 L -16.24,-75.78 L -16.02,-76.47 L -15.79,-77.16 L -15.57,-77.84 L -15.33,-78.53 L -15.10,-79.21 L -14.86,-79.89 L -14.61,-80.57 L -14.37,-81.24 L -14.11,-81.92 L -13.86,-82.59 L -13.59,-83.27 L -13.33,-83.94 L -13.05,-84.61 L -12.78,-85.28 L -12.50,-85.95 L -12.21,-86.62 L -11.92,-87.29 L -11.62,-87.96 L -11.32,-88.63 L -11.01,-89.30 L -10.70,-89.97 L -10.38,-90.65 L -10.05,-91.32 L -9.72,-92.00 L -9.38,-92.67 L -9.04,-93.35 L -8.69,-94.03 L -8.33,-94.71 L -7.96,-95.39 L -7.59,-96.08 L -7.21,-96.77 L -6.82,-97.46 L -6.43,-98.15 L -6.03,-98.84 L -5.61,-99.54 L -5.19,-100.24 L -4.76,-100.95 L -4.33,-101.65 L -3.88,-102.36 L -3.42,-103.08 L -2.95,-103.80 L -2.47,-104.52 L -1.98,-105.24 L -1.48,-105.97 L -0.97,-106.71 L -0.45,-107.44 L 0.09,-108.18 L 0.63,-108.93 L 1.20,-109.68 L 1.77,-110.44 L 2.36,-111.20 L 2.96,-111.96 L 3.58,-112.73 L 4.21,-113.50 L 4.86,-114.28 L 5.52,-115.07 L 6.20,-115.85 L 6.90,-116.65 L 7.61,-117.44 L 8.35,-118.25 L 9.10,-119.05 L 9.87,-119.86 L 10.66,-120.68 L 11.47,-121.50 L 12.31,-122.32 L 13.16,-123.15 L 14.04,-123.98 L 14.94,-124.81 L 15.86,-125.65 L 16.81,-126.49 L 17.78,-127.34 L 18.78,-128.18 L 19.81,-129.03 L 20.86,-129.88 L 21.94,-130.72 L 23.05,-131.57 L 24.18,-132.42 L 25.35,-133.27 L 26.55,-134.12 L 27.78,-134.96 L 29.03,-135.80 L 30.33,-136.64 L 31.65,-137.47 L 33.01,-138.30 L 34.40,-139.12 L 35.82,-139.94 L 37.28,-140.74 L 38.78,-141.54 L 40.31,-142.32 L 41.88,-143.10 L 43.48,-143.85 L 45.08,-144.43 L 46.64,-144.77 L 48.17,-144.89 L 49.65,-144.82 L 51.09,-144.58 L 52.47,-144.17 L 53.80,-143.59 L 55.06,-142.86 L 56.24,-141.95 L 57.32,-140.88 L 58.31,-139.62 L 59.16,-138.15 L 59.90,-136.54 L 60.60,-134.94 L 61.27,-133.35 L 61.91,-131.78 L 62.51,-130.22 L 63.08,-128.68 L 63.61,-127.16 L 64.12,-125.65 L 64.60,-124.17 L 65.05,-122.69 L 65.47,-121.24 L 65.87,-119.80 L 66.24,-118.39 L 66.59,-116.99 L 66.92,-115.61 L 67.22,-114.24 L 67.50,-112.90 L 67.76,-111.57 L 68.00,-110.27 L 68.23,-108.98 L 68.43,-107.71 L 68.62,-106.45 L 68.78,-105.22 L 68.94,-104.00 L 69.08,-102.80 L 69.20,-101.61 L 69.31,-100.45 L 69.40,-99.30 L 69.48,-98.17 L 69.55,-97.05 L 69.61,-95.95 L 69.66,-94.86 L 69.69,-93.79 L 69.72,-92.74 L 69.73,-91.69 L 69.74,-90.67 L 69.73,-89.65 L 69.72,-88.66 L 69.70,-87.67 L 69.67,-86.70 L 69.63,-85.74 L 69.59,-84.79 L 69.53,-83.85 L 69.47,-82.93 L 69.41,-82.02 L 69.33,-81.12 L 69.25,-80.23 L 69.17,-79.35 L 69.08,-78.48 L 68.98,-77.61 L 68.88,-76.76 L 68.77,-75.92 L 68.65,-75.09 L 68.54,-74.27 L 68.41,-73.45 L 68.28,-72.64 L 68.15,-71.84 L 68.01,-71.05 L 67.87,-70.27 L 67.73,-69.49 L 67.57,-68.72 L 67.42,-67.96 L 67.26,-67.20 Z" fill="#ffa5b9" clip-path="url(#clip-petal2)" />
    <path d="M 132.42,-24.18 L 131.57,-23.05 L 130.72,-21.94 L 129.88,-20.86 L 129.03,-19.81 L 128.18,-18.78 L 127.34,-17.78 L 126.49,-16.81 L 125.65,-15.86 L 124.81,-14.94 L 123.98,-14.04 L 123.15,-13.16 L 122.32,-12.31 L 121.50,-11.47 L 120.68,-10.66 L 119.86,-9.87 L 119.05,-9.10 L 118.25,-8.35 L 117.44,-7.61 L 116.65,-6.90 L 115.85,-6.20 L 115.07,-5.52 L 114.28,-4.86 L 113.50,-4.21 L 112.73,-3.58 L 111.96,-2.96 L 111.20,-2.36 L 110.44,-1.77 L 109.68,-1.20 L 108.93,-0.63 L 108.18,-0.09 L 107.44,0.45 L 106.71,0.97 L 105.97,1.48 L 105.24,1.98 L 104.52,2.47 L 103.80,2.95 L 103.08,3.42 L 102.36,3.88 L 101.65,4.33 L 100.95,4.76 L 100.24,5.19 L 99.54,5.61 L 98.84,6.03 L 98.15,6.43 L 97.46,6.82 L 96.77,7.21 L 96.08,7.59 L 95.39,7.96 L 94.71,8.33 L 94.03,8.69 L 93.35,9.04 L 92.67,9.38 L 92.00,9.72 L 91.32,10.05 L 90.65,10.38 L 89.97,10.70 L 89.30,11.01 L 88.63,11.32 L 87.96,11.62 L 87.29,11.92 L 86.62,12.21 L 85.95,12.50 L 85.28,12.78 L 84.61,13.05 L 83.94,13.33 L 83.27,13.59 L 82.59,13.86 L 81.92,14.11 L 81.24,14.37 L 80.57,14.61 L 79.89,14.86 L 79.21,15.10 L 78.53,15.33 L 77.84,15.57 L 77.16,15.79 L 76.47,16.02 L 75.78,16.24 L 75.08,16.45 L 74.39,16.66 L 73.69,16.87 L 72.98,17.07 L 72.27,17.27 L 71.56,17.47 L 70.84,17.66 L 70.12,17.85 L 69.40,18.03 L 68.67,18.21 L 67.93,18.39 L 67.19,18.56 L 66.45,18.73 L 65.69,18.89 L 64.94,19.05 L 64.17,19.21 L 63.40,19.36 L 62.62,19.50 L 61.84,19.64 L 61.05,19.78 L 60.25,19.92 L 59.44,20.04 L 58.63,20.17 L 57.80,20.29 L 56.97,20.40 L 56.13,20.51 L 55.28,20.61 L 54.42,20.71 L 53.55,20.80 L 52.67,20.88 L 51.78,20.96 L 50.88,21.04 L 49.96,21.10 L 49.04,21.16 L 48.10,21.22 L 47.16,21.26 L 46.20,21.30 L 45.22,21.33 L 44.24,21.35 L 43.24,21.36 L 42.22,21.37 L 41.20,21.36 L 40.16,21.35 L 39.10,21.32 L 38.03,21.29 L 36.95,21.24 L 35.84,21.19 L 34.73,21.12 L 33.59,21.03 L 32.44,20.94 L 31.28,20.83 L 30.09,20.71 L 28.89,20.57 L 27.68,20.42 L 26.44,20.25 L 25.19,20.06 L 23.92,19.86 L 22.63,19.63 L 21.32,19.39 L 19.99,19.13 L 18.65,18.85 L 17.29,18.55 L 15.91,18.22 L 14.51,17.88 L 13.09,17.50 L 11.65,17.11 L 10.20,16.68 L 8.73,16.23 L 7.24,15.75 L 5.73,15.24 L 4.21,14.71 L 2.67,14.14 L 1.11,13.54 L -0.46,12.90 L -2.04,12.23 L -3.64,11.53 L -5.26,10.79 L -6.73,9.94 L -7.99,8.96 L -9.06,7.87 L -9.96,6.69 L -10.70,5.43 L -11.28,4.10 L -11.69,2.72 L -11.93,1.28 L -12.00,-0.20 L -11.88,-1.73 L -11.54,-3.29 L -10.96,-4.88 L -10.20,-6.49 L -9.43,-8.06 L -8.64,-9.59 L -7.85,-11.08 L -7.04,-12.54 L -6.23,-13.97 L -5.41,-15.36 L -4.58,-16.72 L -3.75,-18.04 L -2.91,-19.33 L -2.07,-20.59 L -1.22,-21.82 L -0.38,-23.02 L 0.47,-24.18 L 1.32,-25.32 L 2.17,-26.43 L 3.02,-27.51 L 3.87,-28.56 L 4.71,-29.59 L 5.56,-30.58 L 6.40,-31.56 L 7.24,-32.51 L 8.08,-33.43 L 8.91,-34.33 L 9.74,-35.21 L 10.57,-36.06 L 11.39,-36.89 L 12.21,-37.71 L 13.03,-38.50 L 13.84,-39.27 L 14.65,-40.02 L 15.45,-40.75 L 16.25,-41.47 L 17.04,-42.17 L 17.83,-42.85 L 18.61,-43.51 L 19.39,-44.16 L 20.16,-44.79 L 20.93,-45.41 L 21.70,-46.01 L 22.46,-46.60 L 23.21,-47.17 L 23.96,-47.73 L 24.71,-48.28 L 25.45,-48.82 L 26.19,-49.34 L 26.92,-49.85 L 27.65,-50.35 L 28.38,-50.84 L 29.10,-51.32 L 29.81,-51.79 L 30.53,-52.25 L 31.24,-52.69 L 31.95,-53.13 L 32.65,-53.56 L 33.35,-53.98 L 34.05,-54.40 L 34.74,-54.80 L 35.44,-55.19 L 36.13,-55.58 L 36.81,-55.96 L 37.50,-56.33 L 38.18,-56.70 L 38.86,-57.06 L 39.54,-57.41 L 40.22,-57.75 L 40.90,-58.09 L 41.57,-58.42 L 42.25,-58.75 L 42.92,-59.07 L 43.59,-59.38 L 44.26,-59.69 L 44.93,-59.99 L 45.60,-60.29 L 46.27,-60.58 L 46.94,-60.87 L 47.61,-61.15 L 48.28,-61.42 L 48.95,-61.70 L 49.63,-61.96 L 50.30,-62.22 L 50.97,-62.48 L 51.65,-62.74 L 52.32,-62.98 L 53.00,-63.23 L 53.68,-63.47 L 54.36,-63.70 L 55.05,-63.94 L 55.73,-64.16 L 56.42,-64.39 L 57.11,-64.61 L 57.81,-64.82 L 58.51,-65.03 L 59.21,-65.24 L 59.91,-65.44 L 60.62,-65.64 L 61.33,-65.84 L 62.05,-66.03 L 62.77,-66.22 L 63.49,-66.40 L 64.22,-66.58 L 64.96,-66.76 L 65.70,-66.93 L 66.45,-67.10 L 67.20,-67.26 L 67.96,-67.42 L 68.72,-67.57 L 69.49,-67.73 L 70.27,-67.87 L 71.05,-68.01 L 71.84,-68.15 L 72.64,-68.28 L 73.45,-68.41 L 74.27,-68.54 L 75.09,-68.65 L 75.92,-68.77 L 76.76,-68.88 L 77.61,-68.98 L 78.48,-69.08 L 79.35,-69.17 L 80.23,-69.25 L 81.12,-69.33 L 82.02,-69.41 L 82.93,-69.47 L 83.85,-69.53 L 84.79,-69.59 L 85.74,-69.63 L 86.70,-69.67 L 87.67,-69.70 L 88.66,-69.72 L 89.65,-69.73 L 90.67,-69.74 L 91.69,-69.73 L 92.74,-69.72 L 93.79,-69.69 L 94.86,-69.66 L 95.95,-69.61 L 97.05,-69.55 L 98.17,-69.48 L 99.30,-69.40 L 100.45,-69.31 L 101.61,-69.20 L 102.80,-69.08 L 104.00,-68.94 L 105.22,-68.78 L 106.45,-68.62 L 107.71,-68.43 L 108.98,-68.23 L 110.27,-68.00 L 111.57,-67.76 L 112.90,-67.50 L 114.24,-67.22 L 115.61,-66.92 L 116.99,-66.59 L 118.39,-66.24 L 119.80,-65.87 L 121.24,-65.47 L 122.69,-65.05 L 124.17,-64.60 L 125.65,-64.12 L 127.16,-63.61 L 128.68,-63.08 L 130.22,-62.51 L 131.78,-61.91 L 133.35,-61.27 L 134.94,-60.60 L 136.54,-59.90 L 138.15,-59.16 L 139.62,-58.31 L 140.88,-57.32 L 141.95,-56.24 L 142.86,-55.06 L 143.59,-53.80 L 144.17,-52.47 L 144.58,-51.09 L 144.82,-49.65 L 144.89,-48.17 L 144.77,-46.64 L 144.43,-45.08 L 143.85,-43.48 L 143.10,-41.88 L 142.32,-40.31 L 141.54,-38.78 L 140.74,-37.28 L 139.94,-35.82 L 139.12,-34.40 L 138.30,-33.01 L 137.47,-31.65 L 136.64,-30.33 L 135.80,-29.03 L 134.96,-27.78 L 134.12,-26.55 L 133.27,-25.35 Z" fill="#ff99af" clip-path="url(#clip-petal3)" />
  </g>
</svg>