<svg width="800" height="800" xmlns="http://www.w3.org/2000/svg">
  <defs>
    <clipPath id="clip-petal1">
      <path d="M -800,-800 h 1600 v 1600 h -1600 Z M -66.45,-24.18 L -66.45,-24.18 L -66.45,-24.18 L -66.45,-24.18 L -66.45,-24.18 L -66.45,-24.18 L -66.45,-24.18 L -66.45,-24.18 L -66.45,-24.18 L -66.45,-24.18 L -66.45,-24.18 L -66.45,-24.18 L -66.45,-24.18 L -66.45,-24.18 L -66.45,-24.18 L -66.45,-24.18 L -66.45,-24.18 L -66.45,-24.18 L -66.45,-24.18 L -66.45,-24.18 L -66.45,-24.18 L -66.45,-24.18 L -66.45,-24.18 L -66.45,-24.18 L -66.45,-24.18 L -66.45,-24.18 L -66.45,-24.18 L -66.45,-24.18 L -66.45,-24.18 L -66.45,-24.18 L -66.45,-24.18 L -66.45,-24.18 L -66.45,-24.18 L -66.45,-24.18 L -66.45,-24.18 L -66.45,-24.18 L -66.45,-24.18 L -66.45,-24.18 L -66.45,-24.18 L -66.45,-24.18 L -66.45,-24.18 L -66.45,-24.18 L -66.45,-24.18 L -66.45,-24.18 L -66.45,-24.18 L -66.45,-24.18 L -66.45,-24.18 L -66.45,-24.18 L -66.45,-24.18 L -66.45,-24.18 L -66.45,-24.18 L -66.45,-24.18 L -66.45,-24.18 L -66.45,-24.18 L -66.45,-24.18 L -66.45,-24.18 L -66.45,-24.18 L -66.45,-24.18 L -66.45,-24.18 L -66.45,-24.18 L -66.45,-24.18 L -66.45,-24.18 L -66.45,-24.18 L -66.45,-24.18 L -66.45,-24.18 L -66.45,-24.18 L -66.45,-24.18 L -66.45,-24.18 L -66.45,-24.18 L -66.45,-24.18 L -66.45,-24.18 L -66.45,-24.18 L -66.45,-24.18 L -66.45,-24.18 L -66.45,-24.18 L -66.45,-24.18 L -66.45,-24.18 L -66.45,-24.18 L -66.45,-24.18 L -66.45,-24.18 L -66.45,-24.18 L -66.45,-24.18 L -66.45,-24.18 L -66.45,-24.18 L -66.45,-24.18 L -66.45,-24.18 L -66.45,-24.18 L -66.45,-24.18 L -66.45,-24.18 L -66.45,-24.18 L -66.45,-24.18 L -66.45,-24.18 L -66.45,-24.18 L -66.45,-24.18 L -66.45,-24.18 L -66.45,-24.18 L -66.45,-24.18 L -66.45,-24.18 L -66.45,-24.18 L -66.45,-24.18 L -66.45,-24.18 L -66.45,-24.18 L -66.45,-24.18 L -66.45,-24.18 L -66.45,-24.18 L -66.45,-24.18 L -66.45,-24.18 L -66.45,-24.18 L -66.45,-24.18 L -66.45,-24.18 L -66.45,-24.18 L -66.45,-24.18 L -66.45,-24.18 L -66.45,-24.18 L -66.45,-24.18 L -66.45,-24.18 L -66.45,-24.18 L -66.45,-24.18 L -66.45,-24.18 L -66.45,-24.18 L -66.45,-24.18 L -66.45,-24.18 L -66.45,-24.18 L -66.45,-24.18 L -66.45,-24.18 L -66.45,-24.18 L -66.45,-24.18 L -66.45,-24.18 L -66.45,-24.18 L -66.45,-24.18 L -66.45,-24.18 L -66.45,-24.18 L -66.45,-24.18 L -66.45,-24.18 L -66.45,-24.18 L -66.45,-24.18 L -66.45,-24.18 L -66.45,-24.18 L -66.45,-24.18 L -66.45,-24.18 L -66.45,-24.18 L -66.45,-24.18 L -66.45,-24.18 L -66.45,-24.18 L -66.45,-24.18 L -66.45,-24.18 L -66.45,-24.18 L -66.45,-24.18 L -66.45,-24.18 L -66.45,-24.18 L -66.45,-24.18 L -66.45,-24.18 L -66.45,-24.18 L -66.45,-24.18 L -66.45,-24.18 L -66.45,-24.18 L -66.45,-24.18 L -66.45,-24.18 L -66.45,-24.18 L -66.45,-24.18 L -66.45,-24.18 L -66.45,-24.18 L -66.45,-24.18 L -66.45,-24.18 L -66.45,-24.18 L -66.45,-24.18 L -66.45,-24.18 L -66.45,-24.18 L -66.45,-24.18 L -66.45,-24.18 L -66.45,-24.18 L -66.45,-24.18 L -66.45,-24.18 L -66.45,-24.18 L -66.45,-24.18 L -66.45,-24.18 L -66.45,-24.18 L -66.45,-24.18 L -66.45,-24.18 L -66.45,-24.18 L -66.45,-24.18 L -66.45,-24.18 L -66.45,-24.18 L -66.45,-24.18 L -66.45,-24.18 L -66.45,-24.18 L -66.45,-24.18 L -66.45,-24.18 L -66.45,-24.18 L -66.45,-24.18 L -66.45,-24.18 L -66.45,-24.18 L -66.45,-24.18 L -66.45,-24.18 L -66.45,-24.18 L -66.45,-24.18 L -66.45,-24.18 L -66.45,-24.18 L -66.45,-24.18 L -66.45,-24.18 L -66.45,-24.18 L -66.45,-24.18 L -66.45,-24.18 L -66.45,-24.18 L -66.45,-24.18 L -66.45,-24.18 L -66.45,-24.18 L -66.45,-24.18 L -66.45,-24.18 L -66.45,-24.18 L -66.45,-24.18 L -66.45,-24.18 L -66.45,-24.18 L -66.45,-24.18 L -66.45,-24.18 L -66.45,-24.18 L -66.45,-24.18 L -66.45,-24.18 L -66.45,-24.18 L -66.45,-24.18 L -66.45,-24.18 L -66.45,-24.18 L -66.45,-24.18 L -66.45,-24.18 L -66.45,-24.18 L -66.45,-24.18 L -66.45,-24.18 L -66.45,-24.18 L -66.45,-24.18 L -66.45,-24.18 L -66.45,-24.18 L -66.45,-24.18 L -66.45,-24.18 L -66.45,-24.18 L -66.45,-24.18 L -66.45,-24.18 L -66.45,-24.18 L -66.45,-24.18 L -66.45,-24.18 L -66.45,-24.18 L -66.45,-24.18 L -66.45,-24.18 L -66.45,-24.18 L -66.45,-24.18 L -66.45,-24.18 L -66.45,-24.18 L -66.45,-24.18 L -66.45,-24.18 L -66.45,-24.18 L -66.45,-24.18 L -66.45,-24.18 L -66.45,-24.18 L -66.45,-24.18 L -66.45,-24.18 L -66.45,-24.18 L -66.45,-24.18 L -66.45,-24.18 L -66.45,-24.18 L -66.45,-24.18 L -66.45,-24.18 L -66.45,-24.18 L -66.45,-24.18 L -66.45,-24.18 L -66.45,-24.18 L -66.45,-24.18 L -66.45,-24.18 L -66.45,-24.18 L -66.45,-24.18 L -66.45,-24.18 L -66.45,-24.18 L -66.45,-24.18 L -66.45,-24.18 L -66.45,-24.18 L -66.45,-24.18 L -66.45,-24.18 L -66.45,-24.18 L -66.45,-24.18 L -66.45,-24.18 L -66.45,-24.18 L -66.45,-24.18 L -66.45,-24.18 L -66.45,-24.18 L -66.45,-24.18 L -66.45,-24.18 L -66.45,-24.18 L -66.45,-24.18 L -66.45,-24.18 L -66.45,-24.18 L -66.45,-24.18 L -66.45,-24.18 L -66.45,-24.18 L -66.45,-24.18 L -66.45,-24.18 L -66.45,-24.18 L -66.45,-24.18 L -66.45,-24.18 L -66.45,-24.18 L -66.45,-24.18 L -66.45,-24.18 L -66.45,-24.18 L -66.45,-24.18 L -66.45,-24.18 L -66.45,-24.18 L -66.45,-24.18 L -66.45,-24.18 L -66.45,-24.18 L -66.45,-24.18 L -66.45,-24.18 L -66.45,-24.18 L -66.45,-24.18 L -66.45,-24.18 L -66.45,-24.18 L -66.45,-24.18 L -66.45,-24.18 L -66.45,-24.18 L -66.45,-24.18 L -66.45,-24.18 L -66.45,-24.18 L -66.45,-24.18 L -66.45,-24.18 L -66.45,-24.18 L -66.45,-24.18 L -66.45,-24.18 L -66.45,-24.18 L -66.45,-24.18 L -66.45,-24.18 L -66.45,-24.18 L -66.45,-24.18 L -66.45,-24.18 L -66.45,-24.18 L -66.45,-24.18 L -66.45,-24.18 L -66.45,-24.18 L -66.45,-24.18 L -66.45,-24.18 L -66.45,-24.18 L -66.45,-24.18 L -66.45,-24.18 L -66.45,-24.18 L -66.45,-24.18 L -66.45,-24.18 L -66.45,-24.18 L -66.45,-24.18 L -66.45,-24.18 L -66.45,-24.18 L -66.45,-24.18 L -66.45,-24.18 L -66.45,-24.18 L -66.45,-24.18 L -66.45,-24.18 L -66.45,-24.18 L -66.45,-24.18 L -66.45,-24.18 L -66.45,-24.18 L -66.45,-24.18 L -66.45,-24.18 L -66.45,-24.18 L -66.45,-24.18 L -66.45,-24.18 L -66.45,-24.18 Z" clip-rule="evenodd" />
    </clipPath>
    <clipPath id="clip-petal2">
      <path d="M -800,-800 h 1600 v 1600 h -1600 Z M -24.18,-66.45 L -24.18,-66.45 L -24.18,-66.45 L -24.18,-66.45 L -24.18,-66.45 L -24.18,-66.45 L -24.18,-66.45 L -24.18,-66.45 L -24.18,-66.45 L -24.18,-66.45 L -24.18,-66.45 L -24.18,-66.45 L -24.18,-66.45 L -24.18,-66.45 L -24.18,-66.45 L -24.18,-66.45 L -24.18,-66.45 L -24.18,-66.45 L -24.18,-66.45 L -24.18,-66.45 L -24.18,-66.45 L -24.18,-66.45 L -24.18,-66.45 L -24.18,-66.45 L -24.18,-66.45 L -24.18,-66.45 L -24.18,-66.45 L -24.18,-66.45 L -24.18,-66.45 L -24.18,-66.45 L -24.18,-66.45 L -24.18,-66.45 L -24.18,-66.45 L -24.18,-66.45 L -24.18,-66.45 L -24.18,-66.45 L -24.18,-66.45 L -24.18,-66.45 L -24.18,-66.45 L -24.18,-66.45 L -24.18,-66.45 L -24.18,-66.45 L -24.18,-66.45 L -24.18,-66.45 L -24.18,-66.45 L -24.18,-66.45 L -24.18,-66.45 L -24.18,-66.45 L -24.18,-66.45 L -24.18,-66.45 L -24.18,-66.45 L -24.18,-66.45 L -24.18,-66.45 L -24.18,-66.45 L -24.18,-66.45 L -24.18,-66.45 L -24.18,-66.45 L -24.18,-66.45 L -24.18,-66.45 L -24.18,-66.45 L -24.18,-66.45 L -24.18,-66.45 L -24.18,-66.45 L -24.18,-66.45 L -24.18,-66.45 L -24.18,-66.45 L -24.18,-66.45 L -24.18,-66.45 L -24.18,-66.45 L -24.18,-66.45 L -24.18,-66.45 L -24.18,-66.45 L -24.18,-66.45 L -24.18,-66.45 L -24.18,-66.45 L -24.18,-66.45 L -24.18,-66.45 L -24.18,-66.45 L -24.18,-66.45 L -24.18,-66.45 L -24.18,-66.45 L -24.18,-66.45 L -24.18,-66.45 L -24.18,-66.45 L -24.18,-66.45 L -24.18,-66.45 L -24.18,-66.45 L -24.18,-66.45 L -24.18,-66.45 L -24.18,-66.45 L -24.18,-66.45 L -24.18,-66.45 L -24.18,-66.45 L -24.18,-66.45 L -24.18,-66.45 L -24.18,-66.45 L -24.18,-66.45 L -24.18,-66.45 L -24.18,-66.45 L -24.18,-66.45 L -24.18,-66.45 L -24.18,-66.45 L -24.18,-66.45 L -24.18,-66.45 L -24.18,-66.45 L -24.18,-66.45 L -24.18,-66.45 L -24.18,-66.45 L -24.18,-66.45 L -24.18,-66.45 L -24.18,-66.45 L -24.18,-66.45 L -24.18,-66.45 L -24.18,-66.45 L -24.18,-66.45 L -24.18,-66.45 L -24.18,-66.45 L -24.18,-66.45 L -24.18,-66.45 L -24.18,-66.45 L -24.18,-66.45 L -24.18,-66.45 L -24.18,-66.45 L -24.18,-66.45 L -24.18,-66.45 L -24.18,-66.45 L -24.18,-66.45 L -24.18,-66.45 L -24.18,-66.45 L -24.18,-66.45 L -24.18,-66.45 L -24.18,-66.45 L -24.18,-66.45 L -24.18,-66.45 L -24.18,-66.45 L -24.18,-66.45 L -24.18,-66.45 L -24.18,-66.45 L -24.18,-66.45 L -24.18,-66.45 L -24.18,-66.45 L -24.18,-66.45 L -24.18,-66.45 L -24.18,-66.45 L -24.18,-66.45 L -24.18,-66.45 L -24.18,-66.45 L -24.18,-66.45 L -24.18,-66.45 L -24.18,-66.45 L -24.18,-66.45 L -24.18,-66.45 L -24.18,-66.45 L -24.18,-66.45 L -24.18,-66.45 L -24.18,-66.45 L -24.18,-66.45 L -24.18,-66.45 L -24.18,-66.45 L -24.18,-66.45 L -24.18,-66.45 L -24.18,-66.45 L -24.18,-66.45 L -24.18,-66.45 L -24.18,-66.45 L -24.18,-66.45 L -24.18,-66.45 L -24.18,-66.45 L -24.18,-66.45 L -24.18,-66.45 L -24.18,-66.45 L -24.18,-66.45 L -24.18,-66.45 L -24.18,-66.45 L -24.18,-66.45 L -24.18,-66.45 L -24.18,-66.45 L -24.18,-66.45 L -24.18,-66.45 L -24.18,-66.45 L -24.18,-66.45 L -24.18,-66.45 L -24.18,-66.45 L -24.18,-66.45 L -24.18,-66.45 L -24.18,-66.45 L -24.18,-66.45 L -24.18,-66.45 L -24.18,-66.45 L -24.18,-66.45 L -24.18,-66.45 L -24.18,-66.45 L -24.18,-66.45 L -24.18,-66.45 L -24.18,-66.45 L -24.18,-66.45 L -24.18,-66.45 L -24.18,-66.45 L -24.18,-66.45 L -24.18,-66.45 L -24.18,-66.45 L -24.18,-66.45 L -24.18,-66.45 L -24.18,-66.45 L -24.18,-66.45 L -24.18,-66.45 L -24.18,-66.45 L -24.18,-66.45 L -24.18,-66.45 L -24.18,-66.45 L -24.18,-66.45 L -24.18,-66.45 L -24.18,-66.45 L -24.18,-66.45 L -24.18,-66.45 L -24.18,-66.45 L -24.18,-66.45 L -24.18,-66.45 L -24.18,-66.45 L -24.18,-66.45 L -24.18,-66.45 L -24.18,-66.45 L -24.18,-66.45 L -24.18,-66.45 L -24.18,-66.45 L -24.18,-66.45 L -24.18,-66.45 L -24.18,-66.45 L -24.18,-66.45 L -24.18,-66.45 L -24.18,-66.45 L -24.18,-66.45 L -24.18,-66.45 L -24.18,-66.45 L -24.18,-66.45 L -24.18,-66.45 L -24.18,-66.45 L -24.18,-66.45 L -24.18,-66.45 L -24.18,-66.45 L -24.18,-66.45 L -24.18,-66.45 L -24.18,-66.45 L -24.18,-66.45 L -24.18,-66.45 L -24.18,-66.45 L -24.18,-66.45 L -24.18,-66.45 L -24.18,-66.45 L -24.18,-66.45 L -24.18,-66.45 L -24.18,-66.45 L -24.18,-66.45 L -24.18,-66.45 L -24.18,-66.45 L -24.18,-66.45 L -24.18,-66.45 L -24.18,-66.45 L -24.18,-66.45 L -24.18,-66.45 L -24.18,-66.45 L -24.18,-66.45 L -24.18,-66.45 L -24.18,-66.45 L -24.18,-66.45 L -24.18,-66.45 L -24.18,-66.45 L -24.18,-66.45 L -24.18,-66.45 L -24.18,-66.45 L -24.18,-66.45 L -24.18,-66.45 L -24.18,-66.45 L -24.18,-66.45 L -24.18,-66.45 L -24.18,-66.45 L -24.18,-66.45 L -24.18,-66.45 L -24.18,-66.45 L -24.18,-66.45 L -24.18,-66.45 L -24.18,-66.45 L -24.18,-66.45 L -24.18,-66.45 L -24.18,-66.45 L -24.18,-66.45 L -24.18,-66.45 L -24.18,-66.45 L -24.18,-66.45 L -24.18,-66.45 L -24.18,-66.45 L -24.18,-66.45 L -24.18,-66.45 L -24.18,-66.45 L -24.18,-66.45 L -24.18,-66.45 L -24.18,-66.45 L -24.18,-66.45 L -24.18,-66.45 L -24.18,-66.45 L -24.18,-66.45 L -24.18,-66.45 L -24.18,-66.45 L -24.18,-66.45 L -24.18,-66.45 L -24.18,-66.45 L -24.18,-66.45 L -24.18,-66.45 L -24.18,-66.45 L -24.18,-66.45 L -24.18,-66.45 L -24.18,-66.45 L -24.18,-66.45 L -24.18,-66.45 L -24.18,-66.45 L -24.18,-66.45 L -24.18,-66.45 L -24.18,-66.45 L -24.18,-66.45 L -24.18,-66.45 L -24.18,-66.45 L -24.18,-66.45 L -24.18,-66.45 L -24.18,-66.45 L -24.18,-66.45 L -24.18,-66.45 L -24.18,-66.45 L -24.18,-66.45 L -24.18,-66.45 L -24.18,-66.45 L -24.18,-66.45 L -24.18,-66.45 L -24.18,-66.45 L -24.18,-66.45 L -24.18,-66.45 L -24.18,-66.45 L -24.18,-66.45 L -24.18,-66.45 L -24.18,-66.45 L -24.18,-66.45 L -24.18,-66.45 L -24.18,-66.45 L -24.18,-66.45 L -24.18,-66.45 L -24.18,-66.45 L -24.18,-66.45 L -24.18,-66.45 L -24.18,-66.45 L -24.18,-66.45 L -24.18,-66.45 L -24.18,-66.45 L -24.18,-66.45 L -24.18,-66.45 L -24.18,-66.45 L -24.18,-66.45 L -24.18,-66.45 L -24.18,-66.45 L -24.18,-66.45 L -24.18,-66.45 L -24.18,-66.45 Z" clip-rule="evenodd" />
    </clipPath>
    <clipPath id="clip-petal3">
      <path d="M -800,-800 h 1600 v 1600 h -1600 Z M 24.18,-66.45 L 24.18,-66.45 L 24.18,-66.45 L 24.18,-66.45 L 24.18,-66.45 L 24.18,-66.45 L 24.18,-66.45 L 24.18,-66.45 L 24.18,-66.45 L 24.18,-66.45 L 24.18,-66.45 L 24.18,-66.45 L 24.18,-66.45 L 24.18,-66.45 L 24.18,-66.45 L 24.18,-66.45 L 24.18,-66.45 L 24.18,-66.45 L 24.18,-66.45 L 24.18,-66.45 L 24.18,-66.45 L 24.18,-66.45 L 24.18,-66.45 L 24.18,-66.45 L 24.18,-66.45 L 24.18,-66.45 L 24.18,-66.45 L 24.18,-66.45 L 24.18,-66.45 L 24.18,-66.45 L 24.18,-66.45 L 24.18,-66.45 L 24.18,-66.45 L 24.18,-66.45 L 24.18,-66.45 L 24.18,-66.45 L 24.18,-66.45 L 24.18,-66.45 L 24.18,-66.45 L 24.18,-66.45 L 24.18,-66.45 L 24.18,-66.45 L 24.18,-66.45 L 24.18,-66.45 L 24.18,-66.45 L 24.18,-66.45 L 24.18,-66.45 L 24.18,-66.45 L 24.18,-66.45 L 24.18,-66.45 L 24.18,-66.45 L 24.18,-66.45 L 24.18,-66.45 L 24.18,-66.45 L 24.18,-66.45 L 24.18,-66.45 L 24.18,-66.45 L 24.18,-66.45 L 24.18,-66.45 L 24.18,-66.45 L 24.18,-66.45 L 24.18,-66.45 L 24.18,-66.45 L 24.18,-66.45 L 24.18,-66.45 L 24.18,-66.45 L 24.18,-66.45 L 24.18,-66.45 L 24.18,-66.45 L 24.18,-66.45 L 24.18,-66.45 L 24.18,-66.45 L 24.18,-66.45 L 24.18,-66.45 L 24.18,-66.45 L 24.18,-66.45 L 24.18,-66.45 L 24.18,-66.45 L 24.18,-66.45 L 24.18,-66.45 L 24.18,-66.45 L 24.18,-66.45 L 24.18,-66.45 L 24.18,-66.45 L 24.18,-66.45 L 24.18,-66.45 L 24.18,-66.45 L 24.18,-66.45 L 24.18,-66.45 L 24.18,-66.45 L 24.18,-66.45 L 24.18,-66.45 L 24.18,-66.45 L 24.18,-66.45 L 24.18,-66.45 L 24.18,-66.45 L 24.18,-66.45 L 24.18,-66.45 L 24.18,-66.45 L 24.18,-66.45 L 24.18,-66.45 L 24.18,-66.45 L 24.18,-66.45 L 24.18,-66.45 L 24.18,-66.45 L 24.18,-66.45 L 24.18,-66.45 L 24.18,-66.45 L 24.18,-66.45 L 24.18,-66.45 L 24.18,-66.45 L 24.18,-66.45 L 24.18,-66.45 L 24.18,-66.45 L 24.18,-66.45 L 24.18,-66.45 L 24.18,-66.45 L 24.18,-66.45 L 24.18,-66.45 L 24.18,-66.45 L 24.18,-66.45 L 24.18,-66.45 L 24.18,-66.45 L 24.18,-66.45 L 24.18,-66.45 L 24.18,-66.45 L 24.18,-66.45 L 24.18,-66.45 L 24.18,-66.45 L 24.18,-66.45 L 24.18,-66.45 L 24.18,-66.45 L 24.18,-66.45 L 24.18,-66.45 L 24.18,-66.45 L 24.18,-66.45 L 24.18,-66.45 L 24.18,-66.45 L 24.18,-66.45 L 24.18,-66.45 L 24.18,-66.45 L 24.18,-66.45 L 24.18,-66.45 L 24.18,-66.45 L 24.18,-66.45 L 24.18,-66.45 L 24.18,-66.45 L 24.18,-66.45 L 24.18,-66.45 L 24.18,-66.45 L 24.18,-66.45 L 24.18,-66.45 L 24.18,-66.45 L 24.18,-66.45 L 24.18,-66.45 L 24.18,-66.45 L 24.18,-66.45 L 24.18,-66.45 L 24.18,-66.45 L 24.18,-66.45 L 24.18,-66.45 L 24.18,-66.45 L 24.18,-66.45 L 24.18,-66.45 L 24.18,-66.45 L 24.18,-66.45 L 24.18,-66.45 L 24.18,-66.45 L 24.18,-66.45 L 24.18,-66.45 L 24.18,-66.45 L 24.18,-66.45 L 24.18,-66.45 L 24.18,-66.45 L 24.18,-66.45 L 24.18,-66.45 L 24.18,-66.45 L 24.18,-66.45 L 24.18,-66.45 L 24.18,-66.45 L 24.18,-66.45 L 24.18,-66.45 L 24.18,-66.45 L 24.18,-66.45 L 24.18,-66.45 L 24.18,-66.45 L 24.18,-66.45 L 24.18,-66.45 L 24.18,-66.45 L 24.18,-66.45 L 24.18,-66.45 L 24.18,-66.45 L 24.18,-66.45 L 24.18,-66.45 L 24.18,-66.45 L 24.18,-66.45 L 24.18,-66.45 L 24.18,-66.45 L 24.18,-66.45 L 24.18,-66.45 L 24.18,-66.45 L 24.18,-66.45 L 24.18,-66.45 L 24.18,-66.45 L 24.18,-66.45 L 24.18,-66.45 L 24.18,-66.45 L 24.18,-66.45 L 24.18,-66.45 L 24.18,-66.45 L 24.18,-66.45 L 24.18,-66.45 L 24.18,-66.45 L 24.18,-66.45 L 24.18,-66.45 L 24.18,-66.45 L 24.18,-66.45 L 24.18,-66.45 L 24.18,-66.45 L 24.18,-66.45 L 24.18,-66.45 L 24.18,-66.45 L 24.18,-66.45 L 24.18,-66.45 L 24.18,-66.45 L 24.18,-66.45 L 24.18,-66.45 L 24.18,-66.45 L 24.18,-66.45 L 24.18,-66.45 L 24.18,-66.45 L 24.18,-66.45 L 24.18,-66.45 L 24.18,-66.45 L 24.18,-66.45 L 24.18,-66.45 L 24.18,-66.45 L 24.18,-66.45 L 24.18,-66.45 L 24.18,-66.45 L 24.18,-66.45 L 24.18,-66.45 L 24.18,-66.45 L 24.18,-66.45 L 24.18,-66.45 L 24.18,-66.45 L 24.18,-66.45 L 24.18,-66.45 L 24.18,-66.45 L 24.18,-66.45 L 24.18,-66.45 L 24.18,-66.45 L 24.18,-66.45 L 24.18,-66.45 L 24.18,-66.45 L 24.18,-66.45 L 24.18,-66.45 L 24.18,-66.45 L 24.18,-66.45 L 24.18,-66.45 L 24.18,-66.45 L 24.18,-66.45 L 24.18,-66.45 L 24.18,-66.45 L 24.18,-66.45 L 24.18,-66.45 L 24.18,-66.45 L 24.18,-66.45 L 24.18,-66.45 L 24.18,-66.45 L 24.18,-66.45 L 24.18,-66.45 L 24.18,-66.45 L 24.18,-66.45 L 24.18,-66.45 L 24.18,-66.45 L 24.18,-66.45 L 24.18,-66.45 L 24.18,-66.45 L 24.18,-66.45 L 24.18,-66.45 L 24.18,-66.45 L 24.18,-66.45 L 24.18,-66.45 L 24.18,-66.45 L 24.18,-66.45 L 24.18,-66.45 L 24.18,-66.45 L 24.18,-66.45 L 24.18,-66.45 L 24.18,-66.45 L 24.18,-66.45 L 24.18,-66.45 L 24.18,-66.45 L 24.18,-66.45 L 24.18,-66.45 L 24.18,-66.45 L 24.18,-66.45 L 24.18,-66.45 L 24.18,-66.45 L 24.18,-66.45 L 24.18,-66.45 L 24.18,-66.45 L 24.18,-66.45 L 24.18,-66.45 L 24.18,-66.45 L 24.18,-66.45 L 24.18,-66.45 L 24.18,-66.45 L 24.18,-66.45 L 24.18,-66.45 L 24.18,-66.45 L 24.18,-66.45 L 24.18,-66.45 L 24.18,-66.45 L 24.18,-66.45 L 24.18,-66.45 L 24.18,-66.45 L 24.18,-66.45 L 24.18,-66.45 L 24.18,-66.45 L 24.18,-66.45 L 24.18,-66.45 L 24.18,-66.45 L 24.18,-66.45 L 24.18,-66.45 L 24.18,-66.45 L 24.18,-66.45 L 24.18,-66.45 L 24.18,-66.45 L 24.18,-66.45 L 24.18,-66.45 L 24.18,-66.45 L 24.18,-66.45 L 24.18,-66.45 L 24.18,-66.45 L 24.18,-66.45 L 24.18,-66.45 L 24.18,-66.45 L 24.18,-66.45 L 24.18,-66.45 L 24.18,-66.45 L 24.18,-66.45 L 24.18,-66.45 L 24.18,-66.45 L 24.18,-66.45 L 24.18,-66.45 L 24.18,-66.45 L 24.18,-66.45 L 24.18,-66.45 L 24.18,-66.45 L 24.18,-66.45 L 24.18,-66.45 L 24.18,-66.45 L 24.18,-66.45 L 24.18,-66.45 L 24.18,-66.45 L 24.18,-66.45 L 24.18,-66.45 L 24.18,-66.45 Z" clip-rule="evenodd" />
    </clipPath>
  </defs>
  <g transform="translate(400.0, 400.0)">
    <path d="M -66.45,-24.18 L -66.45,-24.18 L -66.45,-24.18 L -66.45,-24.18 L -66.45,-24.18 L -66.45,-24.18 L -66.45,-24.18 L -66.45,-24.18 L -66.45,-24.18 L -66.45,-24.18 L -66.45,-24.18 L -66.45,-24.18 L -66.45,-24.18 L -66.45,-24.18 L -66.45,-24.18 L -66.45,-24.18 L -66.45,-24.18 L -66.45,-24.18 L -66.45,-24.18 L -66.45,-24.18 L -66.45,-24.18 L -66.45,-24.18 L -66.45,-24.18 L -66.45,-24.18 L -66.45,-24.18 L -66.45,-24.18 L -66.45,-24.18 L -66.45,-24.18 L -66.45,-24.18 L -66.45,-24.18 L -66.45,-24.18 L -66.45,-24.18 L -66.45,-24.18 L -66.45,-24.18 L -66.45,-24.18 L -66.45,-24.18 L -66.45,-24.18 L -66.45,-24.18 L -66.45,-24.18 L -66.45,-24.18 L -66.45,-24.18 L -66.45,-24.18 L -66.45,-24.18 L -66.45,-24.18 L -66.45,-24.18 L -66.45,-24.18 L -66.45,-24.18 L -66.45,-24.18 L -66.45,-24.18 L -66.45,-24.18 L -66.45,-24.18 L -66.45,-24.18 L -66.45,-24.18 L -66.45,-24.18 L -66.45,-24.18 L -66.45,-24.18 L -66.45,-24.18 L -66.45,-24.18 L -66.45,-24.18 L -66.45,-24.18 L -66.45,-24.18 L -66.45,-24.18 L -66.45,-24.18 L -66.45,-24.18 L -66.45,-24.18 L -66.45,-24.18 L -66.45,-24.18 L -66.45,-24.18 L -66.45,-24.18 L -66.45,-24.18 L -66.45,-24.18 L -66.45,-24.18 L -66.45,-24.18 L -66.45,-24.18 L -66.45,-24.18 L -66.45,-24.18 L -66.45,-24.18 L -66.45,-24.18 L -66.45,-24.18 L -66.45,-24.18 L -66.45,-24.18 L -66.45,-24.18 L -66.45,-24.18 L -66.45,-24.18 L -66.45,-24.18 L -66.45,-24.18 L -66.45,-24.18 L -66.45,-24.18 L -66.45,-24.18 L -66.45,-24.18 L -66.45,-24.18 L -66.45,-24.18 L -66.45,-24.18 L -66.45,-24.18 L -66.45,-24.18 L -66.45,-24.18 L -66.45,-24.18 L -66.45,-24.18 L -66.45,-24.18 L -66.45,-24.18 L -66.45,-24.18 L -66.45,-24.18 L -66.45,-24.18 L -66.45,-24.18 L -66.45,-24.18 L -66.45,-24.18 L -66.45,-24.18 L -66.45,-24.18 L -66.45,-24.18 L -66.45,-24.18 L -66.45,-24.18 L -66.45,-24.18 L -66.45,-24.18 L -66.45,-24.18 L -66.45,-24.18 L -66.45,-24.18 L -66.45,-24.18 L -66.45,-24.18 L -66.45,-24.18 L -66.45,-24.18 L -66.45,-24.18 L -66.45,-24.18 L -66.45,-24.18 L -66.45,-24.18 L -66.45,-24.18 L -66.45,-24.18 L -66.45,-24.18 L -66.45,-24.18 L -66.45,-24.18 L -66.45,-24.18 L -66.45,-24.18 L -66.45,-24.18 L -66.45,-24.18 L -66.45,-24.18 L -66.45,-24.18 L -66.45,-24.18 L -66.45,-24.18 L -66.45,-24.18 L -66.45,-24.18 L -66.45,-24.18 L -66.45,-24.18 L -66.45,-24.18 L -66.45,-24.18 L -66.45,-24.18 L -66.45,-24.18 L -66.45,-24.18 L -66.45,-24.18 L -66.45,-24.18 L -66.45,-24.18 L -66.45,-24.18 L -66.45,-24.18 L -66.45,-24.18 L -66.45,-24.18 L -66.45,-24.18 L -66.45,-24.18 L -66.45,-24.18 L -66.45,-24.18 L -66.45,-24.18 L -66.45,-24.18 L -66.45,-24.18 L -66.45,-24.18 L -66.45,-24.18 L -66.45,-24.18 L -66.45,-24.18 L -66.45,-24.18 L -66.45,-24.18 L -66.45,-24.18 L -66.45,-24.18 L -66.45,-24.18 L -66.45,-24.18 L -66.45,-24.18 L -66.45,-24.18 L -66.45,-24.18 L -66.45,-24.18 L -66.45,-24.18 L -66.45,-24.18 L -66.45,-24.18 L -66.45,-24.18 L -66.45,-24.18 L -66.45,-24.18 L -66.45,-24.18 L -66.45,-24.18 L -66.45,-24.18 L -66.45,-24.18 L -66.45,-24.18 L -66.45,-24.18 L -66.45,-24.18 L -66.45,-24.18 L -66.45,-24.18 L -66.45,-24.18 L -66.45,-24.18 L -66.45,-24.18 L -66.45,-24.18 L -66.45,-24.18 L -66.45,-24.18 L -66.45,-24.18 L -66.45,-24.18 L -66.45,-24.18 L -66.45,-24.18 L -66.45,-24.18 L -66.45,-24.18 L -66.45,-24.18 L -66.45,-24.18 L -66.45,-24.18 L -66.45,-24.18 L -66.45,-24.18 L -66.45,-24.18 L -66.45,-24.18 L -66.45,-24.18 L -66.45,-24.18 L -66.45,-24.18 L -66.45,-24.18 L -66.45,-24.18 L -66.45,-24.18 L -66.45,-24.18 L -66.45,-24.18 L -66.45,-24.18 L -66.45,-24.18 L -66.45,-24.18 L -66.45,-24.18 L -66.45,-24.18 L -66.45,-24.18 L -66.45,-24.18 L -66.45,-24.18 L -66.45,-24.18 L -66.45,-24.18 L -66.45,-24.18 L -66.45,-24.18 L -66.45,-24.18 L -66.45,-24.18 L -66.45,-24.18 L -66.45,-24.18 L -66.45,-24.18 L -66.45,-24.18 L -66.45,-24.18 L -66.45,-24.18 L -66.45,-24.18 L -66.45,-24.18 L -66.45,-24.18 L -66.45,-24.18 L -66.45,-24.18 L -66.45,-24.18 L -66.45,-24.18 L -66.45,-24.18 L -66.45,-24.18 L -66.45,-24.18 L -66.45,-24.18 L -66.45,-24.18 L -66.45,-24.18 L -66.45,-24.18 L -66.45,-24.18 L -66.45,-24.18 L -66.45,-24.18 L -66.45,-24.18 L -66.45,-24.18 L -66.45,-24.18 L -66.45,-24.18 L -66.45,-24.18 L -66.45,-24.18 L -66.45,-24.18 L -66.45,-24.18 L -66.45,-24.18 L -66.45,-24.18 L -66.45,-24.18 L -66.45,-24.18 L -66.45,-24.18 L -66.45,-24.18 L -66.45,-24.18 L -66.45,-24.18 L -66.45,-24.18 L -66.45,-24.18 L -66.45,-24.18 L -66.45,-24.18 L -66.45,-24.18 L -66.45,-24.18 L -66.45,-24.18 L -66.45,-24.18 L -66.45,-24.18 L -66.45,-24.18 L -66.45,-24.18 L -66.45,-24.18 L -66.45,-24.18 L -66.45,-24.18 L -66.45,-24.18 L -66.45,-24.18 L -66.45,-24.18 L -66.45,-24.18 L -66.45,-24.18 L -66.45,-24.18 L -66.45,-24.18 L -66.45,-24.18 L -66.45,-24.18 L -66.45,-24.18 L -66.45,-24.18 L -66.45,-24.18 L -66.45,-24.18 L -66.45,-24.18 L -66.45,-24.18 L -66.45,-24.18 L -66.45,-24.18 L -66.45,-24.18 L -66.45,-24.18 L -66.45,-24.18 L -66.45,-24.18 L -66.45,-24.18 L -66.45,-24.18 L -66.45,-24.18 L -66.45,-24.18 L -66.45,-24.18 L -66.45,-24.18 L -66.45,-24.18 L -66.45,-24.18 L -66.45,-24.18 L -66.45,-24.18 L -66.45,-24.18 L -66.45,-24.18 L -66.45,-24.18 L -66.45,-24.18 L -66.45,-24.18 L -66.45,-24.18 L -66.45,-24.18 L -66.45,-24.18 L -66.45,-24.18 L -66.45,-24.18 L -66.45,-24.18 L -66.45,-24.18 L -66.45,-24.18 L -66.45,-24.18 L -66.45,-24.18 L -66.45,-24.18 L -66.45,-24.18 L -66.45,-24.18 L -66.45,-24.18 L -66.45,-24.18 L -66.45,-24.18 L -66.45,-24.18 L -66.45,-24.18 L -66.45,-24.18 L -66.45,-24.18 L -66.45,-24.18 L -66.45,-24.18 L -66.45,-24.18 L -66.45,-24.18 L -66.45,-24.18 L -66.45,-24.18 L -66.45,-24.18 L -66.45,-24.18 L -66.45,-24.18 L -66.45,-24.18 L -66.45,-24.18 L -66.45,-24.18 L -66.45,-24.18 L -66.45,-24.18 L -66.45,-24.18 L -66.45,-24.18 L -66.45,-24.18 L -66.45,-24.18 L -66.45,-24.18 L -66.45,-24.18 L -66.45,-24.18 Z" fill="#ffbfcd" />
    <path d="M -24.18,-66.45 L -24.18,-66.45 L -24.18,-66.45 L -24.18,-66.45 L -24.18,-66.45 L -24.18,-66.45 L -24.18,-66.45 L -24.18,-66.45 L -24.18,-66.45 L -24.18,-66.45 L -24.18,-66.45 L -24.18,-66.45 L -24.18,-66.45 L -24.18,-66.45 L -24.18,-66.45 L -24.18,-66.45 L -24.18,-66.45 L -24.18,-66.45 L -24.18,-66.45 L -24.18,-66.45 L -24.18,-66.45 L -24.18,-66.45 L -24.18,-66.45 L -24.18,-66.45 L -24.18,-66.45 L -24.18,-66.45 L -24.18,-66.45 L -24.18,-66.45 L -24.18,-66.45 L -24.18,-66.45 L -24.18,-66.45 L -24.18,-66.45 L -24.18,-66.45 L -24.18,-66.45 L -24.18,-66.45 L -24.18,-66.45 L -24.18,-66.45 L -24.18,-66.45 L -24.18,-66.45 L -24.18,-66.45 L -24.18,-66.45 L -24.18,-66.45 L -24.18,-66.45 L -24.18,-66.45 L -24.18,-66.45 L -24.18,-66.45 L -24.18,-66.45 L -24.18,-66.45 L -24.18,-66.45 L -24.18,-66.45 L -24.18,-66.45 L -24.18,-66.45 L -24.18,-66.45 L -24.18,-66.45 L -24.18,-66.45 L -24.18,-66.45 L -24.18,-66.45 L -24.18,-66.45 L -24.18,-66.45 L -24.18,-66.45 L -24.18,-66.45 L -24.18,-66.45 L -24.18,-66.45 L -24.18,-66.45 L -24.18,-66.45 L -24.18,-66.45 L -24.18,-66.45 L -24.18,-66.45 L -24.18,-66.45 L -24.18,-66.45 L -24.18,-66.45 L -24.18,-66.45 L -24.18,-66.45 L -24.18,-66.45 L -24.18,-66.45 L -24.18,-66.45 L -24.18,-66.45 L -24.18,-66.45 L -24.18,-66.45 L -24.18,-66.45 L -24.18,-66.45 L -24.18,-66.45 L -24.18,-66.45 L -24.18,-66.45 L -24.18,-66.45 L -24.18,-66.45 L -24.18,-66.45 L -24.18,-66.45 L -24.18,-66.45 L -24.18,-66.45 L -24.18,-66.45 L -24.18,-66.45 L -24.18,-66.45 L -24.18,-66.45 L -24.18,-66.45 L -24.18,-66.45 L -24.18,-66.45 L -24.18,-66.45 L -24.18,-66.45 L -24.18,-66.45 L -24.18,-66.45 L -24.18,-66.45 L -24.18,-66.45 L -24.18,-66.45 L -24.18,-66.45 L -24.18,-66.45 L -24.18,-66.45 L -24.18,-66.45 L -24.18,-66.45 L -24.18,-66.45 L -24.18,-66.45 L -24.18,-66.45 L -24.18,-66.45 L -24.18,-66.45 L -24.18,-66.45 L -24.18,-66.45 L -24.18,-66.45 L -24.18,-66.45 L -24.18,-66.45 L -24.18,-66.45 L -24.18,-66.45 L -24.18,-66.45 L -24.18,-66.45 L -24.18,-66.45 L -24.18,-66.45 L -24.18,-66.45 L -24.18,-66.45 L -24.18,-66.45 L -24.18,-66.45 L -24.18,-66.45 L -24.18,-66.45 L -24.18,-66.45 L -24.18,-66.45 L -24.18,-66.45 L -24.18,-66.45 L -24.18,-66.45 L -24.18,-66.45 L -24.18,-66.45 L -24.18,-66.45 L -24.18,-66.45 L -24.18,-66.45 L -24.18,-66.45 L -24.18,-66.45 L -24.18,-66.45 L -24.18,-66.45 L -24.18,-66.45 L -24.18,-66.45 L -24.18,-66.45 L -24.18,-66.45 L -24.18,-66.45 L -24.18,-66.45 L -24.18,-66.45 L -24.18,-66.45 L -24.18,-66.45 L -24.18,-66.45 L -24.18,-66.45 L -24.18,-66.45 L -24.18,-66.45 L -24.18,-66.45 L -24.18,-66.45 L -24.18,-66.45 L -24.18,-66.45 L -24.18,-66.45 L -24.18,-66.45 L -24.18,-66.45 L -24.18,-66.45 L -24.18,-66.45 L -24.18,-66.45 L -24.18,-66.45 L -24.18,-66.45 L -24.18,-66.45 L -24.18,-66.45 L -24.18,-66.45 L -24.18,-66.45 L -24.18,-66.45 L -24.18,-66.45 L -24.18,-66.45 L -24.18,-66.45 L -24.18,-66.45 L -24.18,-66.45 L -24.18,-66.45 L -24.18,-66.45 L -24.18,-66.45 L -24.18,-66.45 L -24.18,-66.45 L -24.18,-66.45 L -24.18,-66.45 L -24.18,-66.45 L -24.18,-66.45 L -24.18,-66.45 L -24.18,-66.45 L -24.18,-66.45 L -24.18,-66.45 L -24.18,-66.45 L -24.18,-66.45 L -24.18,-66.45 L -24.18,-66.45 L -24.18,-66.45 L -24.18,-66.45 L -24.18,-66.45 L -24.18,-66.45 L -24.18,-66.45 L -24.18,-66.45 L -24.18,-66.45 L -24.18,-66.45 L -24.18,-66.45 L -24.18,-66.45 L -24.18,-66.45 L -24.18,-66.45 L -24.18,-66.45 L -24.18,-66.45 L -24.18,-66.45 L -24.18,-66.45 L -24.18,-66.45 L -24.18,-66.45 L -24.18,-66.45 L -24.18,-66.45 L -24.18,-66.45 L -24.18,-66.45 L -24.18,-66.45 L -24.18,-66.45 L -24.18,-66.45 L -24.18,-66.45 L -24.18,-66.45 L -24.18,-66.45 L -24.18,-66.45 L -24.18,-66.45 L -24.18,-66.45 L -24.18,-66.45 L -24.18,-66.45 L -24.18,-66.45 L -24.18,-66.45 L -24.18,-66.45 L -24.18,-66.45 L -24.18,-66.45 L -24.18,-66.45 L -24.18,-66.45 L -24.18,-66.45 L -24.18,-66.45 L -24.18,-66.45 L -24.18,-66.45 L -24.18,-66.45 L -24.18,-66.45 L -24.18,-66.45 L -24.18,-66.45 L -24.18,-66.45 L -24.18,-66.45 L -24.18,-66.45 L -24.18,-66.45 L -24.18,-66.45 L -24.18,-66.45 L -24.18,-66.45 L -24.18,-66.45 L -24.18,-66.45 L -24.18,-66.45 L -24.18,-66.45 L -24.18,-66.45 L -24.18,-66.45 L -24.18,-66.45 L -24.18,-66.45 L -24.18,-66.45 L -24.18,-66.45 L -24.18,-66.45 L -24.18,-66.45 L -24.18,-66.45 L -24.18,-66.45 L -24.18,-66.45 L -24.18,-66.45 L -24.18,-66.45 L -24.18,-66.45 L -24.18,-66.45 L -24.18,-66.45 L -24.18,-66.45 L -24.18,-66.45 L -24.18,-66.45 L -24.18,-66.45 L -24.18,-66.45 L -24.18,-66.45 L -24.18,-66.45 L -24.18,-66.45 L -24.18,-66.45 L -24.18,-66.45 L -24.18,-66.45 L -24.18,-66.45 L -24.18,-66.45 L -24.18,-66.45 L -24.18,-66.45 L -24.18,-66.45 L -24.18,-66.45 L -24.18,-66.45 L -24.18,-66.45 L -24.18,-66.45 L -24.18,-66.45 L -24.18,-66.45 L -24.18,-66.45 L -24.18,-66.45 L -24.18,-66.45 L -24.18,-66.45 L -24.18,-66.45 L -24.18,-66.45 L -24.18,-66.45 L -24.18,-66.45 L -24.18,-66.45 L -24.18,-66.45 L -24.18,-66.45 L -24.18,-66.45 L -24.18,-66.45 L -24.18,-66.45 L -24.18,-66.45 L -24.18,-66.45 L -24.18,-66.45 L -24.18,-66.45 L -24.18,-66.45 L -24.18,-66.45 L -24.18,-66.45 L -24.18,-66.45 L -24.18,-66.45 L -24.18,-66.45 L -24.18,-66.45 L -24.18,-66.45 L -24.18,-66.45 L -24.18,-66.45 L -24.18,-66.45 L -24.18,-66.45 L -24.18,-66.45 L -24.18,-66.45 L -24.18,-66.45 L -24.18,-66.45 L -24.18,-66.45 L -24.18,-66.45 L -24.18,-66.45 L -24.18,-66.45 L -24.18,-66.45 L -24.18,-66.45 L -24.18,-66.45 L -24.18,-66.45 L -24.18,-66.45 L -24.18,-66.45 L -24.18,-66.45 L -24.18,-66.45 L -24.18,-66.45 L -24.18,-66.45 L -24.18,-66.45 L -24.18,-66.45 L -24.18,-66.45 L -24.18,-66.45 L -24.18,-66.45 L -24.18,-66.45 L -24.18,-66.45 L -24.18,-66.45 L -24.18,-66.45 L -24.18,-66.45 L -24.18,-66.45 L -24.18,-66.45 L -24.18,-66.45 L -24.18,-66.45 L -24.18,-66.45 L -24.18,-66.45 L -24.18,-66.45 L -24.18,-66.45 Z" fill="#ffb2c3" clip-path="url(#clip-petal1)" />
    <path d="M 24.18,-66.45 L 24.18,-66.45 L 24.18,-66.45 L 24.18,-66.45 L 24.18,-66.45 L 24.18,-66.45 L 24.18,-66.45 L 24.18,-66.45 L 24.18,-66.45 L 24.18,-66.45 L 24.18,-66.45 L 24.18,-66.45 L 24.18,-66.45 L 24.18,-66.45 L 24.18,-66.45 L 24.18,-66.45 L 24.18,-66.45 L 24.18,-66.45 L 24.18,-66.45 L 24.18,-66.45 L 24.18,-66.45 L 24.18,-66.45 L 24.18,-66.45 L 24.18,-66.45 L 24.18,-66.45 L 24.18,-66.45 L 24.18,-66.45 L 24.18,-66.45 L 24.18,-66.45 L 24.18,-66.45 L 24.18,-66.45 L 24.18,-66.45 L 24.18,-66.45 L 24.18,-66.45 L 24.18,-66.45 L 24.18,-66.45 L 24.18,-66.45 L 24.18,-66.45 L 24.18,-66.45 L 24.18,-66.45 L 24.18,-66.45 L 24.18,-66.45 L 24.18,-66.45 L 24.18,-66.45 L 24.18,-66.45 L 24.18,-66.45 L 24.18,-66.45 L 24.18,-66.45 L 24.18,-66.45 L 24.18,-66.45 L 24.18,-66.45 L 24.18,-66.45 L 24.18,-66.45 L 24.18,-66.45 L 24.18,-66.45 L 24.18,-66.45 L 24.18,-66.45 L 24.18,-66.45 L 24.18,-66.45 L 24.18,-66.45 L 24.18,-66.45 L 24.18,-66.45 L 24.18,-66.45 L 24.18,-66.45 L 24.18,-66.45 L 24.18,-66.45 L 24.18,-66.45 L 24.18,-66.45 L 24.18,-66.45 L 24.18,-66.45 L 24.18,-66.45 L 24.18,-66.45 L 24.18,-66.45 L 24.18,-66.45 L 24.18,-66.45 L 24.18,-66.45 L 24.18,-66.45 L 24.18,-66.45 L 24.18,-66.45 L 24.18,-66.45 L 24.18,-66.45 L 24.18,-66.45 L 24.18,-66.45 L 24.18,-66.45 L 24.18,-66.45 L 24.18,-66.45 L 24.18,-66.45 L 24.18,-66.45 L 24.18,-66.45 L 24.18,-66.45 L 24.18,-66.45 L 24.18,-66.45 L 24.18,-66.45 L 24.18,-66.45 L 24.18,-66.45 L 24.18,-66.45 L 24.18,-66.45 L 24.18,-66.45 L 24.18,-66.45 L 24.18,-66.45 L 24.18,-66.45 L 24.18,-66.45 L 24.18,-66.45 L 24.18,-66.45 L 24.18,-66.45 L 24.18,-66.45 L 24.18,-66.45 L 24.18,-66.45 L 24.18,-66.45 L 24.18,-66.45 L 24.18,-66.45 L 24.18,-66.45 L 24.18,-66.45 L 24.18,-66.45 L 24.18,-66.45 L 24.18,-66.45 L 24.18,-66.45 L 24.18,-66.45 L 24.18,-66.45 L 24.18,-66.45 L 24.18,-66.45 L 24.18,-66.45 L 24.18,-66.45 L 24.18,-66.45 L 24.18,-66.45 L 24.18,-66.45 L 24.18,-66.45 L 24.18,-66.45 L 24.18,-66.45 L 24.18,-66.45 L 24.18,-66.45 L 24.18,-66.45 L 24.18,-66.45 L 24.18,-66.45 L 24.18,-66.45 L 24.18,-66.45 L 24.18,-66.45 L 24.18,-66.45 L 24.18,-66.45 L 24.18,-66.45 L 24.18,-66.45 L 24.18,-66.45 L 24.18,-66.45 L 24.18,-66.45 L 24.18,-66.45 L 24.18,-66.45 L 24.18,-66.45 L 24.18,-66.45 L 24.18,-66.45 L 24.18,-66.45 L 24.18,-66.45 L 24.18,-66.45 L 24.18,-66.45 L 24.18,-66.45 L 24.18,-66.45 L 24.18,-66.45 L 24.18,-66.45 L 24.18,-66.45 L 24.18,-66.45 L 24.18,-66.45 L 24.18,-66.45 L 24.18,-66.45 L 24.18,-66.45 L 24.18,-66.45 L 24.18,-66.45 L 24.18,-66.45 L 24.18,-66.45 L 24.18,-66.45 L 24.18,-66.45 L 24.18,-66.45 L 24.18,-66.45 L 24.18,-66.45 L 24.18,-66.45 L 24.18,-66.45 L 24.18,-66.45 L 24.18,-66.45 L 24.18,-66.45 L 24.18,-66.45 L 24.18,-66.45 L 24.18,-66.45 L 24.18,-66.45 L 24.18,-66.45 L 24.18,-66.45 L 24.18,-66.45 L 24.18,-66.45 L 24.18,-66.45 L 24.18,-66.45 L 24.18,-66.45 L 24.18,-66.45 L 24.18,-66.45 L 24.18,-66.45 L 24.18,-66.45 L 24.18,-66.45 L 24.18,-66.45 L 24.18,-66.45 L 24.18,-66.45 L 24.18,-66.45 L 24.18,-66.45 L 24.18,-66.45 L 24.18,-66.45 L 24.18,-66.45 L 24.18,-66.45 L 24.18,-66.45 L 24.18,-66.45 L 24.18,-66.45 L 24.18,-66.45 L 24.18,-66.45 L 24.18,-66.45 L 24.18,-66.45 L 24.18,-66.45 L 24.18,-66.45 L 24.18,-66.45 L 24.18,-66.45 L 24.18,-66.45 L 24.18,-66.45 L 24.18,-66.45 L 24.18,-66.45 L 24.18,-66.45 L 24.18,-66.45 L 24.18,-66.45 L 24.18,-66.45 L 24.18,-66.45 L 24.18,-66.45 L 24.18,-66.45 L 24.18,-66.45 L 24.18,-66.45 L 24.18,-66.45 L 24.18,-66.45 L 24.18,-66.45 L 24.18,-66.45 L 24.18,-66.45 L 24.18,-66.45 L 24.18,-66.45 L 24.18,-66.45 L 24.18,-66.45 L 24.18,-66.45 L 24.18,-66.45 L 24.18,-66.45 L 24.18,-66.45 L 24.18,-66.45 L 24.18,-66.45 L 24.18,-66.45 L 24.18,-66.45 L 24.18,-66.45 L 24.18,-66.45 L 24.18,-66.45 L 24.18,-66.45 L 24.18,-66.45 L 24.18,-66.45 L 24.18,-66.45 L 24.18,-66.45 L 24.18,-66.45 L 24.18,-66.45 L 24.18,-66.45 L 24.18,-66.45 L 24.18,-66.45 L 24.18,-66.45 L 24.18,-66.45 L 24.18,-66.45 L 24.18,-66.45 L 24.18,-66.45 L 24.18,-66.45 L 24.18,-66.45 L 24.18,-66.45 L 24.18,-66.45 L 24.18,-66.45 L 24.18,-66.45 L 24.18,-66.45 L 24.18,-66.45 L 24.18,-66.45 L 24.18,-66.45 L 24.18,-66.45 L 24.18,-66.45 L 24.18,-66.45 L 24.18,-66.45 L 24.18,-66.45 L 24.18,-66.45 L 24.18,-66.45 L 24.18,-66.45 L 24.18,-66.45 L 24.18,-66.45 L 24.18,-66.45 L 24.18,-66.45 L 24.18,-66.45 L 24.18,-66.45 L 24.18,-66.45 L 24.18,-66.45 L 24.18,-66.45 L 24.18,-66.45 L 24.18,-66.45 L 24.18,-66.45 L 24.18,-66.45 L 24.18,-66.45 L 24.18,-66.45 L 24.18,-66.45 L 24.18,-66.45 L 24.18,-66.45 L 24.18,-66.45 L 24.18,-66.45 L 24.18,-66.45 L 24.18,-66.45 L 24.18,-66.45 L 24.18,-66.45 L 24.18,-66.45 L 24.18,-66.45 L 24.18,-66.45 L 24.18,-66.45 L 24.18,-66.45 L 24.18,-66.45 L 24.18,-66.45 L 24.18,-66.45 L 24.18,-66.45 L 24.18,-66.45 L 24.18,-66.45 L 24.18,-66.45 L 24.18,-66.45 L 24.18,-66.45 L 24.18,-66.45 L 24.18,-66.45 L 24.18,-66.45 L 24.18,-66.45 L 24.18,-66.45 L 24.18,-66.45 L 24.18,-66.45 L 24.18,-66.45 L 24.18,-66.45 L 24.18,-66.45 L 24.18,-66.45 L 24.18,-66.45 L 24.18,-66.45 L 24.18,-66.45 L 24.18,-66.45 L 24.18,-66.45 L 24.18,-66.45 L 24.18,-66.45 L 24.18,-66.45 L 24.18,-66.45 L 24.18,-66.45 L 24.18,-66.45 L 24.18,-66.45 L 24.18,-66.45 L 24.18,-66.45 L 24.18,-66.45 L 24.18,-66.45 L 24.18,-66.45 L 24.18,-66.45 L 24.18,-66.45 L 24.18,-66.45 L 24.18,-66.45 L 24.18,-66.45 L 24.18,-66.45 L 24.18,-66.45 L 24.18,-66.45 L 24.18,-66.45 L 24.18,-66.45 L 24.18,-66.45 L 24.18,-66.45 L 24.18,-66.45 L 24.18,-66.45 L 24.18,-66.45 Z" fill="#ffa5b9" clip-path="url(#clip-petal2)" />
    <path d="M 66.45,-24.18 L 66.45,-24.18 L 66.45,-24.18 L 66.45,-24.18 L 66.45,-24.18 L 66.45,-24.18 L 66.45,-24.18 L 66.45,-24.18 L 66.45,-24.18 L 66.45,-24.18 L 66.45,-24.18 L 66.45,-24.18 L 66.45,-24.18 L 66.45,-24.18 L 66.45,-24.18 L 66.45,-24.18 L 66.45,-24.18 L 66.45,-24.18 L 66.45,-24.18 L 66.45,-24.18 L 66.45,-24.18 L 66.45,-24.18 L 66.45,-24.18 L 66.45,-24.18 L 66.45,-24.18 L 66.45,-24.18 L 66.45,-24.18 L 66.45,-24.18 L 66.45,-24.18 L 66.45,-24.18 L 66.45,-24.18 L 66.45,-24.18 L 66.45,-24.18 L 66.45,-24.18 L 66.45,-24.18 L 66.45,-24.18 L 66.45,-24.18 L 66.45,-24.18 L 66.45,-24.18 L 66.45,-24.18 L 66.45,-24.18 L 66.45,-24.18 L 66.45,-24.18 L 66.45,-24.18 L 66.45,-24.18 L 66.45,-24.18 L 66.45,-24.18 L 66.45,-24.18 L 66.45,-24.18 L 66.45,-24.18 L 66.45,-24.18 L 66.45,-24.18 L 66.45,-24.18 L 66.45,-24.18 L 66.45,-24.18 L 66.45,-24.18 L 66.45,-24.18 L 66.45,-24.18 L 66.45,-24.18 L 66.45,-24.18 L 66.45,-24.18 L 66.45,-24.18 L 66.45,-24.18 L 66.45,-24.18 L 66.45,-24.18 L 66.45,-24.18 L 66.45,-24.18 L 66.45,-24.18 L 66.45,-24.18 L 66.45,-24.18 L 66.45,-24.18 L 66.45,-24.18 L 66.45,-24.18 L 66.45,-24.18 L 66.45,-24.18 L 66.45,-24.18 L 66.45,-24.18 L 66.45,-24.18 L 66.45,-24.18 L 66.45,-24.18 L 66.45,-24.18 L 66.45,-24.18 L 66.45,-24.18 L 66.45,-24.18 L 66.45,-24.18 L 66.45,-24.18 L 66.45,-24.18 L 66.45,-24.18 L 66.45,-24.18 L 66.45,-24.18 L 66.45,-24.18 L 66.45,-24.18 L 66.45,-24.18 L 66.45,-24.18 L 66.45,-24.18 L 66.45,-24.18 L 66.45,-24.18 L 66.45,-24.18 L 66.45,-24.18 L 66.45,-24.18 L 66.45,-24.18 L 66.45,-24.18 L 66.45,-24.18 L 66.45,-24.18 L 66.45,-24.18 L 66.45,-24.18 L 66.45,-24.18 L 66.45,-24.18 L 66.45,-24.18 L 66.45,-24.18 L 66.45,-24.18 L 66.45,-24.18 L 66.45,-24.18 L 66.45,-24.18 L 66.45,-24.18 L 66.45,-24.18 L 66.45,-24.18 L 66.45,-24.18 L 66.45,-24.18 L 66.45,-24.18 L 66.45,-24.18 L 66.45,-24.18 L 66.45,-24.18 L 66.45,-24.18 L 66.45,-24.18 L 66.45,-24.18 L 66.45,-24.18 L 66.45,-24.18 L 66.45,-24.18 L 66.45,-24.18 L 66.45,-24.18 L 66.45,-24.18 L 66.45,-24.18 L 66.45,-24.18 L 66.45,-24.18 L 66.45,-24.18 L 66.45,-24.18 L 66.45,-24.18 L 66.45,-24.18 L 66.45,-24.18 L 66.45,-24.18 L 66.45,-24.18 L 66.45,-24.18 L 66.45,-24.18 L 66.45,-24.18 L 66.45,-24.18 L 66.45,-24.18 L 66.45,-24.18 L 66.45,-24.18 L 66.45,-24.18 L 66.45,-24.18 L 66.45,-24.18 L 66.45,-24.18 L 66.45,-24.18 L 66.45,-24.18 L 66.45,-24.18 L 66.45,-24.18 L 66.45,-24.18 L 66.45,-24.18 L 66.45,-24.18 L 66.45,-24.18 L 66.45,-24.18 L 66.45,-24.18 L 66.45,-24.18 L 66.45,-24.18 L 66.45,-24.18 L 66.45,-24.18 L 66.45,-24.18 L 66.45,-24.18 L 66.45,-24.18 L 66.45,-24.18 L 66.45,-24.18 L 66.45,-24.18 L 66.45,-24.18 L 66.45,-24.18 L 66.45,-24.18 L 66.45,-24.18 L 66.45,-24.18 L 66.45,-24.18 L 66.45,-24.18 L 66.45,-24.18 L 66.45,-24.18 L 66.45,-24.18 L 66.45,-24.18 L 66.45,-24.18 L 66.45,-24.18 L 66.45,-24.18 L 66.45,-24.18 L 66.45,-24.18 L 66.45,-24.18 L 66.45,-24.18 L 66.45,-24.18 L 66.45,-24.18 L 66.45,-24.18 L 66.45,-24.18 L 66.45,-24.18 L 66.45,-24.18 L 66.45,-24.18 L 66.45,-24.18 L 66.45,-24.18 L 66.45,-24.18 L 66.45,-24.18 L 66.45,-24.18 L 66.45,-24.18 L 66.45,-24.18 L 66.45,-24.18 L 66.45,-24.18 L 66.45,-24.18 L 66.45,-24.18 L 66.45,-24.18 L 66.45,-24.18 L 66.45,-24.18 L 66.45,-24.18 L 66.45,-24.18 L 66.45,-24.18 L 66.45,-24.18 L 66.45,-24.18 L 66.45,-24.18 L 66.45,-24.18 L 66.45,-24.18 L 66.45,-24.18 L 66.45,-24.18 L 66.45,-24.18 L 66.45,-24.18 L 66.45,-24.18 L 66.45,-24.18 L 66.45,-24.18 L 66.45,-24.18 L 66.45,-24.18 L 66.45,-24.18 L 66.45,-24.18 L 66.45,-24.18 L 66.45,-24.18 L 66.45,-24.18 L 66.45,-24.18 L 66.45,-24.18 L 66.45,-24.18 L 66.45,-24.18 L 66.45,-24.18 L 66.45,-24.18 L 66.45,-24.18 L 66.45,-24.18 L 66.45,-24.18 L 66.45,-24.18 L 66.45,-24.18 L 66.45,-24.18 L 66.45,-24.18 L 66.45,-24.18 L 66.45,-24.18 L 66.45,-24.18 L 66.45,-24.18 L 66.45,-24.18 L 66.45,-24.18 L 66.45,-24.18 L 66.45,-24.18 L 66.45,-24.18 L 66.45,-24.18 L 66.45,-24.18 L 66.45,-24.18 L 66.45,-24.18 L 66.45,-24.18 L 66.45,-24.18 L 66.45,-24.18 L 66.45,-24.18 L 66.45,-24.18 L 66.45,-24.18 L 66.45,-24.18 L 66.45,-24.18 L 66.45,-24.18 L 66.45,-24.18 L 66.45,-24.18 L 66.45,-24.18 L 66.45,-24.18 L 66.45,-24.18 L 66.45,-24.18 L 66.45,-24.18 L 66.45,-24.18 L 66.45,-24.18 L 66.45,-24.18 L 66.45,-24.18 L 66.45,-24.18 L 66.45,-24.18 L 66.45,-24.18 L 66.45,-24.18 L 66.45,-24.18 L 66.45,-24.18 L 66.45,-24.18 L 66.45,-24.18 L 66.45,-24.18 L 66.45,-24.18 L 66.45,-24.18 L 66.45,-24.18 L 66.45,-24.18 L 66.45,-24.18 L 66.45,-24.18 L 66.45,-24.18 L 66.45,-24.18 L 66.45,-24.18 L 66.45,-24.18 L 66.45,-24.18 L 66.45,-24.18 L 66.45,-24.18 L 66.45,-24.18 L 66.45,-24.18 L 66.45,-24.18 L 66.45,-24.18 L 66.45,-24.18 L 66.45,-24.18 L 66.45,-24.18 L 66.45,-24.18 L 66.45,-24.18 L 66.45,-24.18 L 66.45,-24.18 L 66.45,-24.18 L 66.45,-24.18 L 66.45,-24.18 L 66.45,-24.18 L 66.45,-24.18 L 66.45,-24.18 L 66.45,-24.18 L 66.45,-24.18 L 66.45,-24.18 L 66.45,-24.18 L 66.45,-24.18 L 66.45,-24.18 L 66.45,-24.18 L 66.45,-24.18 L 66.45,-24.18 L 66.45,-24.18 L 66.45,-24.18 L 66.45,-24.18 L 66.45,-24.18 L 66.45,-24.18 L 66.45,-24.18 L 66.45,-24.18 L 66.45,-24.18 L 66.45,-24.18 L 66.45,-24.18 L 66.45,-24.18 L 66.45,-24.18 L 66.45,-24.18 L 66.45,-24.18 L 66.45,-24.18 L 66.45,-24.18 L 66.45,-24.18 L 66.45,-24.18 L 66.45,-24.18 L 66.45,-24.18 L 66.45,-24.18 L 66.45,-24.18 L 66.45,-24.18 L 66.45,-24.18 L 66.45,-24.18 L 66.45,-24.18 L 66.45,-24.18 L 66.45,-24.18 L 66.45,-24.18 L 66.45,-24.18 L 66.45,-24.18 L 66.45,-24.18 Z" fill="#ff99af" clip-path="url(#clip-petal3)" />
  </g>
</svg>