<svg width="800" height="800" xmlns="http://www.w3.org/2000/svg">
  <defs>
    <clipPath id="clip-petal1">
      <path d="M -800,-800 h 1600 v 1600 h -1600 Z M -151.69,-55.21 L -84.38,25.08 L 18.79,6.84 L -48.52,-73.45 Z" clip-rule="evenodd" />
    </clipPath>
    <clipPath id="clip-petal2">
      <path d="M -800,-800 h 1600 v 1600 h -1600 Z M -55.21,-151.69 L -73.45,-48.52 L 6.84,18.79 L 25.08,-84.38 Z" clip-rule="evenodd" />
    </clipPath>
    <clipPath id="clip-petal3">
      <path d="M -800,-800 h 1600 v 1600 h -1600 Z M 55.21,-151.69 L -25.08,-84.38 L -6.84,18.79 L 73.45,-48.52 Z" clip-rule="evenodd" />
    </clipPath>
  </defs>
  <g transform="translate(400.0, 400.0)">
    <path d="M -132.89,-48.37 L -80.96,15.68 L 0.00,0.00 L -51.94,-64.05 Z" fill="#ffbfcd" />
    <path d="M -48.37,-132.89 L -64.05,-51.94 L 0.00,0.00 L 15.68,-80.96 Z" fill="#ffb2c3" clip-path="url(#clip-petal1)" />
    <path d="M 48.37,-132.89 L -15.68,-80.96 L 0.00,0.00 L 64.05,-51.94 Z" fill="#ffa5b9" clip-path="url(#clip-petal2)" />
    <path d="M 132.89,-48.37 L 51.94,-64.05 L -0.00,-0.00 L 80.96,15.68 Z" fill="#ff99af" clip-path="url(#clip-petal3)" />
  </g>
</svg>