<svg width="800" height="800" xmlns="http://www.w3.org/2000/svg">
  <defs>
    <clipPath id="clip-petal1">
      <path d="M -800,-800 h 1600 v 1600 h -1600 Z M 10.68,3.89 A 108.33,108.33 0 0,1 -143.57,-52.26 A 108.33,108.33 0 0,1 10.68,3.89 Z" clip-rule="evenodd" />
    </clipPath>
    <clipPath id="clip-petal2">
      <path d="M -800,-800 h 1600 v 1600 h -1600 Z M 3.89,10.68 A 108.33,108.33 0 0,1 -52.26,-143.57 A 108.33,108.33 0 0,1 3.89,10.68 Z" clip-rule="evenodd" />
    </clipPath>
    <clipPath id="clip-petal3">
      <path d="M -800,-800 h 1600 v 1600 h -1600 Z M -3.89,10.68 A 108.33,108.33 0 0,1 52.26,-143.57 A 108.33,108.33 0 0,1 -3.89,10.68 Z" clip-rule="evenodd" />
    </clipPath>
  </defs>
  <g transform="translate(400.0, 400.0)">
    <path d="M 0.00,0.00 A 100.00,100.00 0 0,1 -132.89,-48.37 A 100.00,100.00 0 0,1 0.00,0.00 Z" fill="#ffbfcd" />
    <path d="M 0.00,0.00 A 100.00,100.00 0 0,1 -48.37,-132.89 A 100.00,100.00 0 0,1 0.00,0.00 Z" fill="#ffb2c3" clip-path="url(#clip-petal1)" />
    <path d="M 0.00,0.00 A 100.00,100.00 0 0,1 48.37,-132.89 A 100.00,100.00 0 0,1 0.00,0.00 Z" fill="#ffa5b9" clip-path="url(#clip-petal2)" />
    <path d="M -0.00,-0.00 A 100.00,100.00 0 0,1 132.89,-48.37 A 100.00,100.00 0 0,1 -0.00,-0.00 Z" fill="#ff99af" clip-path="url(#clip-petal3)" />
  </g>
</svg>