<svg width="800" height="800" xmlns="http://www.w3.org/2000/svg">
  <defs>
    <clipPath id="clip-petal1">
      <path d="M -800,-800 h 1600 v 1600 h -1600 Z M -2.49,-24.18 L -1.52,-23.05 L -0.51,-21.88 L 0.53,-20.67 L 1.61,-19.43 L 2.72,-18.13 L 3.87,-16.79 L 5.04,-15.41 L 6.05,-14.00 L 6.89,-12.57 L 7.57,-11.13 L 8.12,-9.69 L 8.55,-8.24 L 8.85,-6.80 L 9.03,-5.37 L 9.11,-3.94 L 9.08,-2.53 L 8.95,-1.13 L 8.72,0.24 L 8.39,1.58 L 7.96,2.90 L 7.44,4.18 L 6.83,5.42 L 6.13,6.62 L 5.33,7.77 L 4.45,8.87 L 3.47,9.92 L 2.40,10.90 L 1.25,11.81 L -0.00,12.64 L -1.35,13.40 L -2.80,14.06 L -4.36,14.61 L -6.04,15.04 L -7.83,15.35 L -9.57,15.64 L -11.26,15.91 L -12.88,16.18 L -14.46,16.43 L -15.98,16.68 L -17.46,16.92 L -18.89,17.16 L -20.28,17.38 L -21.63,17.60 L -22.95,17.82 L -24.24,18.03 L -25.49,18.23 L -26.71,18.43 L -27.90,18.62 L -29.07,18.81 L -30.21,19.00 L -31.33,19.18 L -32.43,19.36 L -33.50,19.54 L -34.56,19.71 L -35.59,19.88 L -36.61,20.04 L -37.62,20.21 L -38.61,20.37 L -39.58,20.53 L -40.54,20.68 L -41.49,20.84 L -42.43,20.99 L -43.35,21.14 L -44.27,21.29 L -45.17,21.44 L -46.07,21.58 L -46.96,21.73 L -47.84,21.87 L -48.71,22.01 L -49.58,22.15 L -50.44,22.29 L -51.30,22.43 L -52.15,22.57 L -53.00,22.71 L -53.84,22.85 L -54.69,22.99 L -55.52,23.12 L -56.36,23.26 L -57.20,23.39 L -58.03,23.53 L -58.87,23.67 L -59.70,23.80 L -60.54,23.94 L -61.37,24.07 L -62.21,24.21 L -63.05,24.35 L -63.90,24.48 L -64.74,24.62 L -65.59,24.76 L -66.45,24.90 L -67.31,25.04 L -68.17,25.18 L -69.04,25.32 L -69.92,25.47 L -70.80,25.61 L -71.70,25.75 L -72.60,25.90 L -73.51,26.05 L -74.43,26.20 L -75.36,26.35 L -76.29,26.45 L -77.22,26.51 L -78.15,26.52 L -79.08,26.49 L -80.00,26.41 L -80.92,26.29 L -81.83,26.13 L -82.73,25.92 L -83.61,25.67 L -84.48,25.37 L -85.34,25.04 L -86.18,24.66 L -87.00,24.24 L -87.80,23.79 L -88.58,23.29 L -89.34,22.76 L -90.07,22.18 L -90.78,21.58 L -91.45,20.93 L -92.10,20.25 L -92.72,19.54 L -93.33,18.84 L -93.93,18.14 L -94.53,17.45 L -95.12,16.76 L -95.70,16.08 L -96.28,15.41 L -96.86,14.74 L -97.43,14.08 L -98.00,13.42 L -98.56,12.76 L -99.12,12.11 L -99.68,11.46 L -100.24,10.81 L -100.80,10.17 L -101.35,9.52 L -101.91,8.88 L -102.46,8.24 L -103.01,7.60 L -103.56,6.96 L -104.11,6.32 L -104.67,5.68 L -105.22,5.03 L -105.78,4.39 L -106.33,3.74 L -106.89,3.10 L -107.45,2.44 L -108.02,1.79 L -108.58,1.13 L -109.15,0.47 L -109.73,-0.19 L -110.30,-0.87 L -110.89,-1.54 L -111.47,-2.22 L -112.07,-2.91 L -112.67,-3.61 L -113.27,-4.31 L -113.88,-5.02 L -114.50,-5.74 L -115.13,-6.47 L -115.76,-7.20 L -116.41,-7.95 L -117.06,-8.71 L -117.73,-9.48 L -118.40,-10.26 L -119.09,-11.06 L -119.79,-11.87 L -120.50,-12.70 L -121.22,-13.54 L -121.96,-14.40 L -122.72,-15.27 L -123.49,-16.17 L -124.28,-17.08 L -125.09,-18.02 L -125.91,-18.98 L -126.76,-19.97 L -127.63,-20.98 L -128.53,-22.02 L -129.45,-23.08 L -130.40,-24.18 L -131.37,-25.32 L -132.38,-26.49 L -133.42,-27.69 L -134.50,-28.94 L -135.61,-30.24 L -136.77,-31.58 L -137.94,-32.96 L -138.94,-34.37 L -139.78,-35.80 L -140.47,-37.24 L -141.02,-38.68 L -141.44,-40.12 L -141.74,-41.57 L -141.93,-43.00 L -142.00,-44.43 L -141.97,-45.84 L -141.84,-47.24 L -141.61,-48.61 L -141.28,-49.95 L -140.85,-51.27 L -140.34,-52.55 L -139.72,-53.79 L -139.02,-54.99 L -138.22,-56.14 L -137.34,-57.24 L -136.36,-58.29 L -135.30,-59.27 L -134.14,-60.18 L -132.89,-61.01 L -131.54,-61.77 L -130.09,-62.42 L -128.53,-62.98 L -126.85,-63.41 L -125.07,-63.72 L -123.32,-64.01 L -121.64,-64.28 L -120.01,-64.55 L -118.44,-64.80 L -116.91,-65.05 L -115.44,-65.29 L -114.00,-65.53 L -112.61,-65.75 L -111.26,-65.97 L -109.94,-66.19 L -108.66,-66.40 L -107.41,-66.60 L -106.18,-66.80 L -104.99,-66.99 L -103.82,-67.18 L -102.68,-67.37 L -101.56,-67.55 L -100.47,-67.73 L -99.39,-67.90 L -98.34,-68.08 L -97.30,-68.25 L -96.28,-68.41 L -95.27,-68.57 L -94.29,-68.74 L -93.31,-68.89 L -92.35,-69.05 L -91.40,-69.21 L -90.47,-69.36 L -89.54,-69.51 L -88.63,-69.66 L -87.72,-69.81 L -86.82,-69.95 L -85.93,-70.10 L -85.05,-70.24 L -84.18,-70.38 L -83.31,-70.52 L -82.45,-70.66 L -81.59,-70.80 L -80.74,-70.94 L -79.89,-71.08 L -79.05,-71.22 L -78.21,-71.35 L -77.37,-71.49 L -76.53,-71.63 L -75.69,-71.76 L -74.86,-71.90 L -74.03,-72.04 L -73.19,-72.17 L -72.36,-72.31 L -71.52,-72.44 L -70.68,-72.58 L -69.84,-72.72 L -69.00,-72.85 L -68.15,-72.99 L -67.30,-73.13 L -66.45,-73.27 L -65.59,-73.41 L -64.72,-73.55 L -63.85,-73.69 L -62.97,-73.83 L -62.09,-73.98 L -61.20,-74.12 L -60.30,-74.27 L -59.39,-74.42 L -58.47,-74.57 L -57.54,-74.71 L -56.60,-74.82 L -55.67,-74.88 L -54.74,-74.89 L -53.81,-74.86 L -52.89,-74.78 L -51.97,-74.66 L -51.06,-74.50 L -50.17,-74.29 L -49.28,-74.04 L -48.41,-73.74 L -47.55,-73.41 L -46.71,-73.03 L -45.89,-72.61 L -45.09,-72.16 L -44.31,-71.66 L -43.55,-71.13 L -42.82,-70.55 L -42.12,-69.94 L -41.44,-69.30 L -40.79,-68.62 L -40.17,-67.91 L -39.56,-67.20 L -38.96,-66.51 L -38.37,-65.81 L -37.78,-65.13 L -37.19,-64.45 L -36.61,-63.78 L -36.04,-63.11 L -35.46,-62.45 L -34.90,-61.79 L -34.33,-61.13 L -33.77,-60.48 L -33.21,-59.83 L -32.65,-59.18 L -32.09,-58.54 L -31.54,-57.89 L -30.99,-57.25 L -30.43,-56.61 L -29.88,-55.97 L -29.33,-55.33 L -28.78,-54.69 L -28.23,-54.05 L -27.67,-53.40 L -27.12,-52.76 L -26.56,-52.11 L -26.00,-51.46 L -25.44,-50.81 L -24.88,-50.16 L -24.31,-49.50 L -23.74,-48.84 L -23.17,-48.17 L -22.59,-47.50 L -22.01,-46.83 L -21.42,-46.15 L -20.83,-45.46 L -20.23,-44.76 L -19.62,-44.06 L -19.01,-43.35 L -18.39,-42.63 L -17.76,-41.90 L -17.13,-41.17 L -16.48,-40.42 L -15.83,-39.66 L -15.17,-38.89 L -14.49,-38.11 L -13.80,-37.31 L -13.11,-36.50 L -12.39,-35.67 L -11.67,-34.83 L -10.93,-33.97 L -10.17,-33.10 L -9.40,-32.20 L -8.61,-31.29 L -7.81,-30.35 L -6.98,-29.39 L -6.13,-28.40 L -5.26,-27.39 L -4.36,-26.35 L -3.44,-25.28 Z" clip-rule="evenodd" />
    </clipPath>
    <clipPath id="clip-petal2">
      <path d="M -800,-800 h 1600 v 1600 h -1600 Z M 24.90,-66.45 L 24.76,-65.59 L 24.62,-64.74 L 24.48,-63.90 L 24.35,-63.05 L 24.21,-62.21 L 24.07,-61.37 L 23.94,-60.54 L 23.80,-59.70 L 23.67,-58.87 L 23.53,-58.03 L 23.39,-57.20 L 23.26,-56.36 L 23.12,-55.52 L 22.99,-54.69 L 22.85,-53.84 L 22.71,-53.00 L 22.57,-52.15 L 22.43,-51.30 L 22.29,-50.44 L 22.15,-49.58 L 22.01,-48.71 L 21.87,-47.84 L 21.73,-46.96 L 21.58,-46.07 L 21.44,-45.17 L 21.29,-44.27 L 21.14,-43.35 L 20.99,-42.43 L 20.84,-41.49 L 20.68,-40.54 L 20.53,-39.58 L 20.37,-38.61 L 20.21,-37.62 L 20.04,-36.61 L 19.88,-35.59 L 19.71,-34.56 L 19.54,-33.50 L 19.36,-32.43 L 19.18,-31.33 L 19.00,-30.21 L 18.81,-29.07 L 18.62,-27.90 L 18.43,-26.71 L 18.23,-25.49 L 18.03,-24.24 L 17.82,-22.95 L 17.60,-21.63 L 17.38,-20.28 L 17.16,-18.89 L 16.92,-17.46 L 16.68,-15.98 L 16.43,-14.46 L 16.18,-12.88 L 15.91,-11.26 L 15.64,-9.57 L 15.35,-7.83 L 15.04,-6.04 L 14.61,-4.36 L 14.06,-2.80 L 13.40,-1.35 L 12.64,-0.00 L 11.81,1.25 L 10.90,2.40 L 9.92,3.47 L 8.87,4.45 L 7.77,5.33 L 6.62,6.13 L 5.42,6.83 L 4.18,7.44 L 2.90,7.96 L 1.58,8.39 L 0.24,8.72 L -1.13,8.95 L -2.53,9.08 L -3.94,9.11 L -5.37,9.03 L -6.80,8.85 L -8.24,8.55 L -9.69,8.12 L -11.13,7.57 L -12.57,6.89 L -14.00,6.05 L -15.41,5.04 L -16.79,3.87 L -18.13,2.72 L -19.43,1.61 L -20.67,0.53 L -21.88,-0.51 L -23.05,-1.52 L -24.18,-2.49 L -25.28,-3.44 L -26.35,-4.36 L -27.39,-5.26 L -28.40,-6.13 L -29.39,-6.98 L -30.35,-7.81 L -31.29,-8.61 L -32.20,-9.40 L -33.10,-10.17 L -33.97,-10.93 L -34.83,-11.67 L -35.67,-12.39 L -36.50,-13.11 L -37.31,-13.80 L -38.11,-14.49 L -38.89,-15.17 L -39.66,-15.83 L -40.42,-16.48 L -41.17,-17.13 L -41.90,-17.76 L -42.63,-18.39 L -43.35,-19.01 L -44.06,-19.62 L -44.76,-20.23 L -45.46,-20.83 L -46.15,-21.42 L -46.83,-22.01 L -47.50,-22.59 L -48.17,-23.17 L -48.84,-23.74 L -49.50,-24.31 L -50.16,-24.88 L -50.81,-25.44 L -51.46,-26.00 L -52.11,-26.56 L -52.76,-27.12 L -53.40,-27.67 L -54.05,-28.23 L -54.69,-28.78 L -55.33,-29.33 L -55.97,-29.88 L -56.61,-30.43 L -57.25,-30.99 L -57.89,-31.54 L -58.54,-32.09 L -59.18,-32.65 L -59.83,-33.21 L -60.48,-33.77 L -61.13,-34.33 L -61.79,-34.90 L -62.45,-35.46 L -63.11,-36.04 L -63.78,-36.61 L -64.45,-37.19 L -65.13,-37.78 L -65.81,-38.37 L -66.51,-38.96 L -67.20,-39.56 L -67.91,-40.17 L -68.62,-40.79 L -69.30,-41.44 L -69.94,-42.12 L -70.55,-42.82 L -71.13,-43.55 L -71.66,-44.31 L -72.16,-45.09 L -72.61,-45.89 L -73.03,-46.71 L -73.41,-47.55 L -73.74,-48.41 L -74.04,-49.28 L -74.29,-50.17 L -74.50,-51.06 L -74.66,-51.97 L -74.78,-52.89 L -74.86,-53.81 L -74.89,-54.74 L -74.88,-55.67 L -74.82,-56.60 L -74.71,-57.54 L -74.57,-58.47 L -74.42,-59.39 L -74.27,-60.30 L -74.12,-61.20 L -73.98,-62.09 L -73.83,-62.97 L -73.69,-63.85 L -73.55,-64.72 L -73.41,-65.59 L -73.27,-66.45 L -73.13,-67.30 L -72.99,-68.15 L -72.85,-69.00 L -72.72,-69.84 L -72.58,-70.68 L -72.44,-71.52 L -72.31,-72.36 L -72.17,-73.19 L -72.04,-74.03 L -71.90,-74.86 L -71.76,-75.69 L -71.63,-76.53 L -71.49,-77.37 L -71.35,-78.21 L -71.22,-79.05 L -71.08,-79.89 L -70.94,-80.74 L -70.80,-81.59 L -70.66,-82.45 L -70.52,-83.31 L -70.38,-84.18 L -70.24,-85.05 L -70.10,-85.93 L -69.95,-86.82 L -69.81,-87.72 L -69.66,-88.63 L -69.51,-89.54 L -69.36,-90.47 L -69.21,-91.40 L -69.05,-92.35 L -68.89,-93.31 L -68.74,-94.29 L -68.57,-95.27 L -68.41,-96.28 L -68.25,-97.30 L -68.08,-98.34 L -67.90,-99.39 L -67.73,-100.47 L -67.55,-101.56 L -67.37,-102.68 L -67.18,-103.82 L -66.99,-104.99 L -66.80,-106.18 L -66.60,-107.41 L -66.40,-108.66 L -66.19,-109.94 L -65.97,-111.26 L -65.75,-112.61 L -65.53,-114.00 L -65.29,-115.44 L -65.05,-116.91 L -64.80,-118.44 L -64.55,-120.01 L -64.28,-121.64 L -64.01,-123.32 L -63.72,-125.07 L -63.41,-126.85 L -62.98,-128.53 L -62.42,-130.09 L -61.77,-131.54 L -61.01,-132.89 L -60.18,-134.14 L -59.27,-135.30 L -58.29,-136.36 L -57.24,-137.34 L -56.14,-138.22 L -54.99,-139.02 L -53.79,-139.72 L -52.55,-140.34 L -51.27,-140.85 L -49.95,-141.28 L -48.61,-141.61 L -47.24,-141.84 L -45.84,-141.97 L -44.43,-142.00 L -43.00,-141.93 L -41.57,-141.74 L -40.12,-141.44 L -38.68,-141.02 L -37.24,-140.47 L -35.80,-139.78 L -34.37,-138.94 L -32.96,-137.94 L -31.58,-136.77 L -30.24,-135.61 L -28.94,-134.50 L -27.69,-133.42 L -26.49,-132.38 L -25.32,-131.37 L -24.18,-130.40 L -23.08,-129.45 L -22.02,-128.53 L -20.98,-127.63 L -19.97,-126.76 L -18.98,-125.91 L -18.02,-125.09 L -17.08,-124.28 L -16.17,-123.49 L -15.27,-122.72 L -14.40,-121.96 L -13.54,-121.22 L -12.70,-120.50 L -11.87,-119.79 L -11.06,-119.09 L -10.26,-118.40 L -9.48,-117.73 L -8.71,-117.06 L -7.95,-116.41 L -7.20,-115.76 L -6.47,-115.13 L -5.74,-114.50 L -5.02,-113.88 L -4.31,-113.27 L -3.61,-112.67 L -2.91,-112.07 L -2.22,-111.47 L -1.54,-110.89 L -0.87,-110.30 L -0.19,-109.73 L 0.47,-109.15 L 1.13,-108.58 L 1.79,-108.02 L 2.44,-107.45 L 3.10,-106.89 L 3.74,-106.33 L 4.39,-105.78 L 5.03,-105.22 L 5.68,-104.67 L 6.32,-104.11 L 6.96,-103.56 L 7.60,-103.01 L 8.24,-102.46 L 8.88,-101.91 L 9.52,-101.35 L 10.17,-100.80 L 10.81,-100.24 L 11.46,-99.68 L 12.11,-99.12 L 12.76,-98.56 L 13.42,-98.00 L 14.08,-97.43 L 14.74,-96.86 L 15.41,-96.28 L 16.08,-95.70 L 16.76,-95.12 L 17.45,-94.53 L 18.14,-93.93 L 18.84,-93.33 L 19.54,-92.72 L 20.25,-92.10 L 20.93,-91.45 L 21.58,-90.78 L 22.18,-90.07 L 22.76,-89.34 L 23.29,-88.58 L 23.79,-87.80 L 24.24,-87.00 L 24.66,-86.18 L 25.04,-85.34 L 25.37,-84.48 L 25.67,-83.61 L 25.92,-82.73 L 26.13,-81.83 L 26.29,-80.92 L 26.41,-80.00 L 26.49,-79.08 L 26.52,-78.15 L 26.51,-77.22 L 26.45,-76.29 L 26.35,-75.36 L 26.20,-74.43 L 26.05,-73.51 L 25.90,-72.60 L 25.75,-71.70 L 25.61,-70.80 L 25.47,-69.92 L 25.32,-69.04 L 25.18,-68.17 L 25.04,-67.31 Z" clip-rule="evenodd" />
    </clipPath>
    <clipPath id="clip-petal3">
      <path d="M -800,-800 h 1600 v 1600 h -1600 Z M 73.27,-66.45 L 73.41,-65.59 L 73.55,-64.72 L 73.69,-63.85 L 73.83,-62.97 L 73.98,-62.09 L 74.12,-61.20 L 74.27,-60.30 L 74.42,-59.39 L 74.57,-58.47 L 74.71,-57.54 L 74.82,-56.60 L 74.88,-55.67 L 74.89,-54.74 L 74.86,-53.81 L 74.78,-52.89 L 74.66,-51.97 L 74.50,-51.06 L 74.29,-50.17 L 74.04,-49.28 L 73.74,-48.41 L 73.41,-47.55 L 73.03,-46.71 L 72.61,-45.89 L 72.16,-45.09 L 71.66,-44.31 L 71.13,-43.55 L 70.55,-42.82 L 69.94,-42.12 L 69.30,-41.44 L 68.62,-40.79 L 67.91,-40.17 L 67.20,-39.56 L 66.51,-38.96 L 65.81,-38.37 L 65.13,-37.78 L 64.45,-37.19 L 63.78,-36.61 L 63.11,-36.04 L 62.45,-35.46 L 61.79,-34.90 L 61.13,-34.33 L 60.48,-33.77 L 59.83,-33.21 L 59.18,-32.65 L 58.54,-32.09 L 57.89,-31.54 L 57.25,-30.99 L 56.61,-30.43 L 55.97,-29.88 L 55.33,-29.33 L 54.69,-28.78 L 54.05,-28.23 L 53.40,-27.67 L 52.76,-27.12 L 52.11,-26.56 L 51.46,-26.00 L 50.81,-25.44 L 50.16,-24.88 L 49.50,-24.31 L 48.84,-23.74 L 48.17,-23.17 L 47.50,-22.59 L 46.83,-22.01 L 46.15,-21.42 L 45.46,-20.83 L 44.76,-20.23 L 44.06,-19.62 L 43.35,-19.01 L 42.63,-18.39 L 41.90,-17.76 L 41.17,-17.13 L 40.42,-16.48 L 39.66,-15.83 L 38.89,-15.17 L 38.11,-14.49 L 37.31,-13.80 L 36.50,-13.11 L 35.67,-12.39 L 34.83,-11.67 L 33.97,-10.93 L 33.10,-10.17 L 32.20,-9.40 L 31.29,-8.61 L 30.35,-7.81 L 29.39,-6.98 L 28.40,-6.13 L 27.39,-5.26 L 26.35,-4.36 L 25.28,-3.44 L 24.18,-2.49 L 23.05,-1.52 L 21.88,-0.51 L 20.67,0.53 L 19.43,1.61 L 18.13,2.72 L 16.79,3.87 L 15.41,5.04 L 14.00,6.05 L 12.57,6.89 L 11.13,7.57 L 9.69,8.12 L 8.24,8.55 L 6.80,8.85 L 5.37,9.03 L 3.94,9.11 L 2.53,9.08 L 1.13,8.95 L -0.24,8.72 L -1.58,8.39 L -2.90,7.96 L -4.18,7.44 L -5.42,6.83 L -6.62,6.13 L -7.77,5.33 L -8.87,4.45 L -9.92,3.47 L -10.90,2.40 L -11.81,1.25 L -12.64,-0.00 L -13.40,-1.35 L -14.06,-2.80 L -14.61,-4.36 L -15.04,-6.04 L -15.35,-7.83 L -15.64,-9.57 L -15.91,-11.26 L -16.18,-12.88 L -16.43,-14.46 L -16.68,-15.98 L -16.92,-17.46 L -17.16,-18.89 L -17.38,-20.28 L -17.60,-21.63 L -17.82,-22.95 L -18.03,-24.24 L -18.23,-25.49 L -18.43,-26.71 L -18.62,-27.90 L -18.81,-29.07 L -19.00,-30.21 L -19.18,-31.33 L -19.36,-32.43 L -19.54,-33.50 L -19.71,-34.56 L -19.88,-35.59 L -20.04,-36.61 L -20.21,-37.62 L -20.37,-38.61 L -20.53,-39.58 L -20.68,-40.54 L -20.84,-41.49 L -20.99,-42.43 L -21.14,-43.35 L -21.29,-44.27 L -21.44,-45.17 L -21.58,-46.07 L -21.73,-46.96 L -21.87,-47.84 L -22.01,-48.71 L -22.15,-49.58 L -22.29,-50.44 L -22.43,-51.30 L -22.57,-52.15 L -22.71,-53.00 L -22.85,-53.84 L -22.99,-54.69 L -23.12,-55.52 L -23.26,-56.36 L -23.39,-57.20 L -23.53,-58.03 L -23.67,-58.87 L -23.80,-59.70 L -23.94,-60.54 L -24.07,-61.37 L -24.21,-62.21 L -24.35,-63.05 L -24.48,-63.90 L -24.62,-64.74 L -24.76,-65.59 L -24.90,-66.45 L -25.04,-67.31 L -25.18,-68.17 L -25.32,-69.04 L -25.47,-69.92 L -25.61,-70.80 L -25.75,-71.70 L -25.90,-72.60 L -26.05,-73.51 L -26.20,-74.43 L -26.35,-75.36 L -26.45,-76.29 L -26.51,-77.22 L -26.52,-78.15 L -26.49,-79.08 L -26.41,-80.00 L -26.29,-80.92 L -26.13,-81.83 L -25.92,-82.73 L -25.67,-83.61 L -25.37,-84.48 L -25.04,-85.34 L -24.66,-86.18 L -24.24,-87.00 L -23.79,-87.80 L -23.29,-88.58 L -22.76,-89.34 L -22.18,-90.07 L -21.58,-90.78 L -20.93,-91.45 L -20.25,-92.10 L -19.54,-92.72 L -18.84,-93.33 L -18.14,-93.93 L -17.45,-94.53 L -16.76,-95.12 L -16.08,-95.70 L -15.41,-96.28 L -14.74,-96.86 L -14.08,-97.43 L -13.42,-98.00 L -12.76,-98.56 L -12.11,-99.12 L -11.46,-99.68 L -10.81,-100.24 L -10.17,-100.80 L -9.52,-101.35 L -8.88,-101.91 L -8.24,-102.46 L -7.60,-103.01 L -6.96,-103.56 L -6.32,-104.11 L -5.68,-104.67 L -5.03,-105.22 L -4.39,-105.78 L -3.74,-106.33 L -3.10,-106.89 L -2.44,-107.45 L -1.79,-108.02 L -1.13,-108.58 L -0.47,-109.15 L 0.19,-109.73 L 0.87,-110.30 L 1.54,-110.89 L 2.22,-111.47 L 2.91,-112.07 L 3.61,-112.67 L 4.31,-113.27 L 5.02,-113.88 L 5.74,-114.50 L 6.47,-115.13 L 7.20,-115.76 L 7.95,-116.41 L 8.71,-117.06 L 9.48,-117.73 L 10.26,-118.40 L 11.06,-119.09 L 11.87,-119.79 L 12.70,-120.50 L 13.54,-121.22 L 14.40,-121.96 L 15.27,-122.72 L 16.17,-123.49 L 17.08,-124.28 L 18.02,-125.09 L 18.98,-125.91 L 19.97,-126.76 L 20.98,-127.63 L 22.02,-128.53 L 23.08,-129.45 L 24.18,-130.40 L 25.32,-131.37 L 26.49,-132.38 L 27.69,-133.42 L 28.94,-134.50 L 30.24,-135.61 L 31.58,-136.77 L 32.96,-137.94 L 34.37,-138.94 L 35.80,-139.78 L 37.24,-140.47 L 38.68,-141.02 L 40.12,-141.44 L 41.57,-141.74 L 43.00,-141.93 L 44.43,-142.00 L 45.84,-141.97 L 47.24,-141.84 L 48.61,-141.61 L 49.95,-141.28 L 51.27,-140.85 L 52.55,-140.34 L 53.79,-139.72 L 54.99,-139.02 L 56.14,-138.22 L 57.24,-137.34 L 58.29,-136.36 L 59.27,-135.30 L 60.18,-134.14 L 61.01,-132.89 L 61.77,-131.54 L 62.42,-130.09 L 62.98,-128.53 L 63.41,-126.85 L 63.72,-125.07 L 64.01,-123.32 L 64.28,-121.64 L 64.55,-120.01 L 64.80,-118.44 L 65.05,-116.91 L 65.29,-115.44 L 65.53,-114.00 L 65.75,-112.61 L 65.97,-111.26 L 66.19,-109.94 L 66.40,-108.66 L 66.60,-107.41 L 66.80,-106.18 L 66.99,-104.99 L 67.18,-103.82 L 67.37,-102.68 L 67.55,-101.56 L 67.73,-100.47 L 67.90,-99.39 L 68.08,-98.34 L 68.25,-97.30 L 68.41,-96.28 L 68.57,-95.27 L 68.74,-94.29 L 68.89,-93.31 L 69.05,-92.35 L 69.21,-91.40 L 69.36,-90.47 L 69.51,-89.54 L 69.66,-88.63 L 69.81,-87.72 L 69.95,-86.82 L 70.10,-85.93 L 70.24,-85.05 L 70.38,-84.18 L 70.52,-83.31 L 70.66,-82.45 L 70.80,-81.59 L 70.94,-80.74 L 71.08,-79.89 L 71.22,-79.05 L 71.35,-78.21 L 71.49,-77.37 L 71.63,-76.53 L 71.76,-75.69 L 71.90,-74.86 L 72.04,-74.03 L 72.17,-73.19 L 72.31,-72.36 L 72.44,-71.52 L 72.58,-70.68 L 72.72,-69.84 L 72.85,-69.00 L 72.99,-68.15 L 73.13,-67.30 Z" clip-rule="evenodd" />
    </clipPath>
  </defs>
  <g transform="translate(400.0, 400.0)">
    <path d="M -13.50,-24.18 L -12.69,-23.25 L -11.85,-22.28 L -10.99,-21.28 L -10.10,-20.24 L -9.18,-19.17 L -8.22,-18.06 L -7.23,-16.91 L -6.20,-15.72 L -5.13,-14.47 L -4.01,-13.17 L -2.84,-11.82 L -1.63,-10.41 L -0.66,-9.00 L 0.01,-7.61 L 0.45,-6.26 L 0.70,-4.93 L 0.78,-3.63 L 0.70,-2.37 L 0.49,-1.14 L 0.13,0.05 L -0.36,1.18 L -0.98,2.27 L -1.74,3.28 L -2.63,4.23 L -3.68,5.09 L -4.89,5.84 L -6.29,6.47 L -7.94,6.93 L -9.78,7.23 L -11.54,7.52 L -13.23,7.79 L -14.85,8.06 L -16.41,8.31 L -17.91,8.55 L -19.36,8.79 L -20.75,9.02 L -22.10,9.24 L -23.40,9.45 L -24.66,9.65 L -25.88,9.85 L -27.07,10.05 L -28.22,10.23 L -29.34,10.42 L -30.43,10.59 L -31.50,10.77 L -32.53,10.93 L -33.54,11.10 L -34.53,11.26 L -35.50,11.42 L -36.44,11.57 L -37.37,11.72 L -38.28,11.87 L -39.17,12.02 L -40.04,12.16 L -40.90,12.30 L -41.75,12.43 L -42.58,12.57 L -43.40,12.70 L -44.20,12.84 L -45.00,12.96 L -45.78,13.09 L -46.56,13.22 L -47.32,13.34 L -48.08,13.47 L -48.83,13.59 L -49.57,13.71 L -50.31,13.83 L -51.04,13.95 L -51.76,14.07 L -52.48,14.18 L -53.20,14.30 L -53.90,14.41 L -54.61,14.53 L -55.31,14.64 L -56.01,14.76 L -56.71,14.87 L -57.40,14.98 L -58.10,15.10 L -58.79,15.21 L -59.48,15.32 L -60.17,15.44 L -60.86,15.55 L -61.55,15.66 L -62.25,15.77 L -62.94,15.89 L -63.64,16.00 L -64.33,16.11 L -65.04,16.23 L -65.74,16.34 L -66.45,16.46 L -67.16,16.57 L -67.87,16.69 L -68.59,16.81 L -69.32,16.93 L -70.05,17.04 L -70.79,17.16 L -71.54,17.29 L -72.29,17.41 L -73.05,17.53 L -73.82,17.66 L -74.60,17.79 L -75.39,17.91 L -76.20,18.04 L -77.00,18.15 L -77.80,18.19 L -78.59,18.17 L -79.37,18.10 L -80.14,17.97 L -80.90,17.78 L -81.63,17.54 L -82.35,17.25 L -83.05,16.91 L -83.72,16.51 L -84.37,16.07 L -84.99,15.57 L -85.57,15.03 L -86.12,14.43 L -86.65,13.82 L -87.17,13.21 L -87.69,12.61 L -88.20,12.02 L -88.70,11.44 L -89.20,10.86 L -89.70,10.28 L -90.18,9.72 L -90.67,9.16 L -91.15,8.60 L -91.63,8.04 L -92.10,7.49 L -92.57,6.95 L -93.04,6.41 L -93.50,5.87 L -93.97,5.33 L -94.43,4.79 L -94.89,4.26 L -95.35,3.73 L -95.81,3.19 L -96.26,2.66 L -96.72,2.13 L -97.18,1.60 L -97.63,1.07 L -98.09,0.54 L -98.55,0.01 L -99.01,-0.53 L -99.47,-1.06 L -99.93,-1.60 L -100.40,-2.14 L -100.86,-2.68 L -101.33,-3.22 L -101.81,-3.77 L -102.28,-4.32 L -102.76,-4.88 L -103.24,-5.44 L -103.73,-6.00 L -104.22,-6.57 L -104.72,-7.15 L -105.22,-7.73 L -105.72,-8.32 L -106.24,-8.91 L -106.76,-9.51 L -107.28,-10.12 L -107.82,-10.74 L -108.36,-11.37 L -108.91,-12.01 L -109.46,-12.66 L -110.03,-13.32 L -110.61,-13.99 L -111.20,-14.67 L -111.80,-15.37 L -112.41,-16.08 L -113.04,-16.80 L -113.68,-17.55 L -114.33,-18.30 L -115.00,-19.08 L -115.69,-19.88 L -116.39,-20.69 L -117.11,-21.53 L -117.85,-22.39 L -118.61,-23.27 L -119.40,-24.18 L -120.21,-25.12 L -121.04,-26.09 L -121.90,-27.09 L -122.79,-28.12 L -123.71,-29.19 L -124.67,-30.30 L -125.66,-31.46 L -126.69,-32.65 L -127.77,-33.90 L -128.88,-35.19 L -130.05,-36.55 L -131.26,-37.96 L -132.23,-39.37 L -132.90,-40.75 L -133.34,-42.11 L -133.59,-43.44 L -133.67,-44.74 L -133.60,-46.00 L -133.38,-47.23 L -133.02,-48.42 L -132.53,-49.55 L -131.91,-50.63 L -131.16,-51.65 L -130.26,-52.60 L -129.22,-53.45 L -128.01,-54.21 L -126.61,-54.84 L -124.95,-55.29 L -123.12,-55.60 L -121.35,-55.89 L -119.66,-56.16 L -118.04,-56.42 L -116.48,-56.68 L -114.98,-56.92 L -113.54,-57.16 L -112.14,-57.38 L -110.80,-57.60 L -109.49,-57.82 L -108.23,-58.02 L -107.01,-58.22 L -105.82,-58.41 L -104.67,-58.60 L -103.55,-58.78 L -102.46,-58.96 L -101.40,-59.13 L -100.36,-59.30 L -99.35,-59.47 L -98.36,-59.63 L -97.39,-59.79 L -96.45,-59.94 L -95.52,-60.09 L -94.62,-60.24 L -93.72,-60.38 L -92.85,-60.53 L -91.99,-60.67 L -91.15,-60.80 L -90.32,-60.94 L -89.50,-61.07 L -88.69,-61.20 L -87.89,-61.33 L -87.11,-61.46 L -86.33,-61.59 L -85.57,-61.71 L -84.81,-61.84 L -84.06,-61.96 L -83.32,-62.08 L -82.58,-62.20 L -81.85,-62.32 L -81.13,-62.44 L -80.41,-62.55 L -79.70,-62.67 L -78.99,-62.78 L -78.28,-62.90 L -77.58,-63.01 L -76.88,-63.13 L -76.18,-63.24 L -75.49,-63.35 L -74.80,-63.47 L -74.10,-63.58 L -73.41,-63.69 L -72.72,-63.80 L -72.03,-63.92 L -71.34,-64.03 L -70.65,-64.14 L -69.95,-64.26 L -69.26,-64.37 L -68.56,-64.48 L -67.86,-64.60 L -67.15,-64.71 L -66.45,-64.83 L -65.73,-64.94 L -65.02,-65.06 L -64.30,-65.18 L -63.57,-65.29 L -62.84,-65.41 L -62.10,-65.53 L -61.35,-65.66 L -60.60,-65.78 L -59.84,-65.90 L -59.07,-66.03 L -58.29,-66.15 L -57.50,-66.28 L -56.70,-66.41 L -55.89,-66.52 L -55.09,-66.56 L -54.30,-66.54 L -53.52,-66.47 L -52.75,-66.33 L -52.00,-66.15 L -51.26,-65.91 L -50.54,-65.62 L -49.84,-65.28 L -49.17,-64.88 L -48.52,-64.44 L -47.91,-63.94 L -47.32,-63.40 L -46.77,-62.80 L -46.24,-62.19 L -45.72,-61.58 L -45.20,-60.98 L -44.69,-60.39 L -44.19,-59.80 L -43.69,-59.23 L -43.20,-58.65 L -42.71,-58.09 L -42.22,-57.52 L -41.74,-56.97 L -41.27,-56.41 L -40.79,-55.86 L -40.32,-55.32 L -39.85,-54.77 L -39.39,-54.23 L -38.93,-53.70 L -38.46,-53.16 L -38.00,-52.63 L -37.54,-52.09 L -37.09,-51.56 L -36.63,-51.03 L -36.17,-50.50 L -35.72,-49.97 L -35.26,-49.44 L -34.80,-48.91 L -34.34,-48.38 L -33.88,-47.84 L -33.42,-47.31 L -32.96,-46.77 L -32.49,-46.23 L -32.03,-45.69 L -31.56,-45.15 L -31.09,-44.60 L -30.61,-44.05 L -30.13,-43.49 L -29.65,-42.93 L -29.16,-42.37 L -28.67,-41.80 L -28.18,-41.22 L -27.68,-40.64 L -27.17,-40.05 L -26.66,-39.46 L -26.14,-38.86 L -25.61,-38.25 L -25.08,-37.63 L -24.54,-37.00 L -23.99,-36.36 L -23.43,-35.71 L -22.86,-35.05 L -22.28,-34.38 L -21.69,-33.70 L -21.09,-33.00 L -20.48,-32.29 L -19.85,-31.56 L -19.21,-30.82 L -18.56,-30.06 L -17.89,-29.29 L -17.21,-28.49 L -16.50,-27.68 L -15.78,-26.84 L -15.04,-25.98 L -14.28,-25.10 Z" fill="#ffbfcd" />
    <path d="M 16.46,-66.45 L 16.34,-65.74 L 16.23,-65.04 L 16.11,-64.33 L 16.00,-63.64 L 15.89,-62.94 L 15.77,-62.25 L 15.66,-61.55 L 15.55,-60.86 L 15.44,-60.17 L 15.32,-59.48 L 15.21,-58.79 L 15.10,-58.10 L 14.98,-57.40 L 14.87,-56.71 L 14.76,-56.01 L 14.64,-55.31 L 14.53,-54.61 L 14.41,-53.90 L 14.30,-53.20 L 14.18,-52.48 L 14.07,-51.76 L 13.95,-51.04 L 13.83,-50.31 L 13.71,-49.57 L 13.59,-48.83 L 13.47,-48.08 L 13.34,-47.32 L 13.22,-46.56 L 13.09,-45.78 L 12.96,-45.00 L 12.84,-44.20 L 12.70,-43.40 L 12.57,-42.58 L 12.43,-41.75 L 12.30,-40.90 L 12.16,-40.04 L 12.02,-39.17 L 11.87,-38.28 L 11.72,-37.37 L 11.57,-36.44 L 11.42,-35.50 L 11.26,-34.53 L 11.10,-33.54 L 10.93,-32.53 L 10.77,-31.50 L 10.59,-30.43 L 10.42,-29.34 L 10.23,-28.22 L 10.05,-27.07 L 9.85,-25.88 L 9.65,-24.66 L 9.45,-23.40 L 9.24,-22.10 L 9.02,-20.75 L 8.79,-19.36 L 8.55,-17.91 L 8.31,-16.41 L 8.06,-14.85 L 7.79,-13.23 L 7.52,-11.54 L 7.23,-9.78 L 6.93,-7.94 L 6.47,-6.29 L 5.84,-4.89 L 5.09,-3.68 L 4.23,-2.63 L 3.28,-1.74 L 2.27,-0.98 L 1.18,-0.36 L 0.05,0.13 L -1.14,0.49 L -2.37,0.70 L -3.63,0.78 L -4.93,0.70 L -6.26,0.45 L -7.61,0.01 L -9.00,-0.66 L -10.41,-1.63 L -11.82,-2.84 L -13.17,-4.01 L -14.47,-5.13 L -15.72,-6.20 L -16.91,-7.23 L -18.06,-8.22 L -19.17,-9.18 L -20.24,-10.10 L -21.28,-10.99 L -22.28,-11.85 L -23.25,-12.69 L -24.18,-13.50 L -25.10,-14.28 L -25.98,-15.04 L -26.84,-15.78 L -27.68,-16.50 L -28.49,-17.21 L -29.29,-17.89 L -30.06,-18.56 L -30.82,-19.21 L -31.56,-19.85 L -32.29,-20.48 L -33.00,-21.09 L -33.70,-21.69 L -34.38,-22.28 L -35.05,-22.86 L -35.71,-23.43 L -36.36,-23.99 L -37.00,-24.54 L -37.63,-25.08 L -38.25,-25.61 L -38.86,-26.14 L -39.46,-26.66 L -40.05,-27.17 L -40.64,-27.68 L -41.22,-28.18 L -41.80,-28.67 L -42.37,-29.16 L -42.93,-29.65 L -43.49,-30.13 L -44.05,-30.61 L -44.60,-31.09 L -45.15,-31.56 L -45.69,-32.03 L -46.23,-32.49 L -46.77,-32.96 L -47.31,-33.42 L -47.84,-33.88 L -48.38,-34.34 L -48.91,-34.80 L -49.44,-35.26 L -49.97,-35.72 L -50.50,-36.17 L -51.03,-36.63 L -51.56,-37.09 L -52.09,-37.54 L -52.63,-38.00 L -53.16,-38.46 L -53.70,-38.93 L -54.23,-39.39 L -54.77,-39.85 L -55.32,-40.32 L -55.86,-40.79 L -56.41,-41.27 L -56.97,-41.74 L -57.52,-42.22 L -58.09,-42.71 L -58.65,-43.20 L -59.23,-43.69 L -59.80,-44.19 L -60.39,-44.69 L -60.98,-45.20 L -61.58,-45.72 L -62.19,-46.24 L -62.80,-46.77 L -63.40,-47.32 L -63.94,-47.91 L -64.44,-48.52 L -64.88,-49.17 L -65.28,-49.84 L -65.62,-50.54 L -65.91,-51.26 L -66.15,-52.00 L -66.33,-52.75 L -66.47,-53.52 L -66.54,-54.30 L -66.56,-55.09 L -66.52,-55.89 L -66.41,-56.70 L -66.28,-57.50 L -66.15,-58.29 L -66.03,-59.07 L -65.90,-59.84 L -65.78,-60.60 L -65.66,-61.35 L -65.53,-62.10 L -65.41,-62.84 L -65.29,-63.57 L -65.18,-64.30 L -65.06,-65.02 L -64.94,-65.73 L -64.83,-66.45 L -64.71,-67.15 L -64.60,-67.86 L -64.48,-68.56 L -64.37,-69.26 L -64.26,-69.95 L -64.14,-70.65 L -64.03,-71.34 L -63.92,-72.03 L -63.80,-72.72 L -63.69,-73.41 L -63.58,-74.10 L -63.47,-74.80 L -63.35,-75.49 L -63.24,-76.18 L -63.13,-76.88 L -63.01,-77.58 L -62.90,-78.28 L -62.78,-78.99 L -62.67,-79.70 L -62.55,-80.41 L -62.44,-81.13 L -62.32,-81.85 L -62.20,-82.58 L -62.08,-83.32 L -61.96,-84.06 L -61.84,-84.81 L -61.71,-85.57 L -61.59,-86.33 L -61.46,-87.11 L -61.33,-87.89 L -61.20,-88.69 L -61.07,-89.50 L -60.94,-90.32 L -60.80,-91.15 L -60.67,-91.99 L -60.53,-92.85 L -60.38,-93.72 L -60.24,-94.62 L -60.09,-95.52 L -59.94,-96.45 L -59.79,-97.39 L -59.63,-98.36 L -59.47,-99.35 L -59.30,-100.36 L -59.13,-101.40 L -58.96,-102.46 L -58.78,-103.55 L -58.60,-104.67 L -58.41,-105.82 L -58.22,-107.01 L -58.02,-108.23 L -57.82,-109.49 L -57.60,-110.80 L -57.38,-112.14 L -57.16,-113.54 L -56.92,-114.98 L -56.68,-116.48 L -56.42,-118.04 L -56.16,-119.66 L -55.89,-121.35 L -55.60,-123.12 L -55.29,-124.95 L -54.84,-126.61 L -54.21,-128.01 L -53.45,-129.22 L -52.60,-130.26 L -51.65,-131.16 L -50.63,-131.91 L -49.55,-132.53 L -48.42,-133.02 L -47.23,-133.38 L -46.00,-133.60 L -44.74,-133.67 L -43.44,-133.59 L -42.11,-133.34 L -40.75,-132.90 L -39.37,-132.23 L -37.96,-131.26 L -36.55,-130.05 L -35.19,-128.88 L -33.90,-127.77 L -32.65,-126.69 L -31.46,-125.66 L -30.30,-124.67 L -29.19,-123.71 L -28.12,-122.79 L -27.09,-121.90 L -26.09,-121.04 L -25.12,-120.21 L -24.18,-119.40 L -23.27,-118.61 L -22.39,-117.85 L -21.53,-117.11 L -20.69,-116.39 L -19.88,-115.69 L -19.08,-115.00 L -18.30,-114.33 L -17.55,-113.68 L -16.80,-113.04 L -16.08,-112.41 L -15.37,-111.80 L -14.67,-111.20 L -13.99,-110.61 L -13.32,-110.03 L -12.66,-109.46 L -12.01,-108.91 L -11.37,-108.36 L -10.74,-107.82 L -10.12,-107.28 L -9.51,-106.76 L -8.91,-106.24 L -8.32,-105.72 L -7.73,-105.22 L -7.15,-104.72 L -6.57,-104.22 L -6.00,-103.73 L -5.44,-103.24 L -4.88,-102.76 L -4.32,-102.28 L -3.77,-101.81 L -3.22,-101.33 L -2.68,-100.86 L -2.14,-100.40 L -1.60,-99.93 L -1.06,-99.47 L -0.53,-99.01 L 0.01,-98.55 L 0.54,-98.09 L 1.07,-97.63 L 1.60,-97.18 L 2.13,-96.72 L 2.66,-96.26 L 3.19,-95.81 L 3.73,-95.35 L 4.26,-94.89 L 4.79,-94.43 L 5.33,-93.97 L 5.87,-93.50 L 6.41,-93.04 L 6.95,-92.57 L 7.49,-92.10 L 8.04,-91.63 L 8.60,-91.15 L 9.16,-90.67 L 9.72,-90.18 L 10.28,-89.70 L 10.86,-89.20 L 11.44,-88.70 L 12.02,-88.20 L 12.61,-87.69 L 13.21,-87.17 L 13.82,-86.65 L 14.43,-86.12 L 15.03,-85.57 L 15.57,-84.99 L 16.07,-84.37 L 16.51,-83.72 L 16.91,-83.05 L 17.25,-82.35 L 17.54,-81.63 L 17.78,-80.90 L 17.97,-80.14 L 18.10,-79.37 L 18.17,-78.59 L 18.19,-77.80 L 18.15,-77.00 L 18.04,-76.20 L 17.91,-75.39 L 17.79,-74.60 L 17.66,-73.82 L 17.53,-73.05 L 17.41,-72.29 L 17.29,-71.54 L 17.16,-70.79 L 17.04,-70.05 L 16.93,-69.32 L 16.81,-68.59 L 16.69,-67.87 L 16.57,-67.16 Z" fill="#ffb2c3" clip-path="url(#clip-petal1)" />
    <path d="M 64.83,-66.45 L 64.94,-65.73 L 65.06,-65.02 L 65.18,-64.30 L 65.29,-63.57 L 65.41,-62.84 L 65.53,-62.10 L 65.66,-61.35 L 65.78,-60.60 L 65.90,-59.84 L 66.03,-59.07 L 66.15,-58.29 L 66.28,-57.50 L 66.41,-56.70 L 66.52,-55.89 L 66.56,-55.09 L 66.54,-54.30 L 66.47,-53.52 L 66.33,-52.75 L 66.15,-52.00 L 65.91,-51.26 L 65.62,-50.54 L 65.28,-49.84 L 64.88,-49.17 L 64.44,-48.52 L 63.94,-47.91 L 63.40,-47.32 L 62.80,-46.77 L 62.19,-46.24 L 61.58,-45.72 L 60.98,-45.20 L 60.39,-44.69 L 59.80,-44.19 L 59.23,-43.69 L 58.65,-43.20 L 58.09,-42.71 L 57.52,-42.22 L 56.97,-41.74 L 56.41,-41.27 L 55.86,-40.79 L 55.32,-40.32 L 54.77,-39.85 L 54.23,-39.39 L 53.70,-38.93 L 53.16,-38.46 L 52.63,-38.00 L 52.09,-37.54 L 51.56,-37.09 L 51.03,-36.63 L 50.50,-36.17 L 49.97,-35.72 L 49.44,-35.26 L 48.91,-34.80 L 48.38,-34.34 L 47.84,-33.88 L 47.31,-33.42 L 46.77,-32.96 L 46.23,-32.49 L 45.69,-32.03 L 45.15,-31.56 L 44.60,-31.09 L 44.05,-30.61 L 43.49,-30.13 L 42.93,-29.65 L 42.37,-29.16 L 41.80,-28.67 L 41.22,-28.18 L 40.64,-27.68 L 40.05,-27.17 L 39.46,-26.66 L 38.86,-26.14 L 38.25,-25.61 L 37.63,-25.08 L 37.00,-24.54 L 36.36,-23.99 L 35.71,-23.43 L 35.05,-22.86 L 34.38,-22.28 L 33.70,-21.69 L 33.00,-21.09 L 32.29,-20.48 L 31.56,-19.85 L 30.82,-19.21 L 30.06,-18.56 L 29.29,-17.89 L 28.49,-17.21 L 27.68,-16.50 L 26.84,-15.78 L 25.98,-15.04 L 25.10,-14.28 L 24.18,-13.50 L 23.25,-12.69 L 22.28,-11.85 L 21.28,-10.99 L 20.24,-10.10 L 19.17,-9.18 L 18.06,-8.22 L 16.91,-7.23 L 15.72,-6.20 L 14.47,-5.13 L 13.17,-4.01 L 11.82,-2.84 L 10.41,-1.63 L 9.00,-0.66 L 7.61,0.01 L 6.26,0.45 L 4.93,0.70 L 3.63,0.78 L 2.37,0.70 L 1.14,0.49 L -0.05,0.13 L -1.18,-0.36 L -2.27,-0.98 L -3.28,-1.74 L -4.23,-2.63 L -5.09,-3.68 L -5.84,-4.89 L -6.47,-6.29 L -6.93,-7.94 L -7.23,-9.78 L -7.52,-11.54 L -7.79,-13.23 L -8.06,-14.85 L -8.31,-16.41 L -8.55,-17.91 L -8.79,-19.36 L -9.02,-20.75 L -9.24,-22.10 L -9.45,-23.40 L -9.65,-24.66 L -9.85,-25.88 L -10.05,-27.07 L -10.23,-28.22 L -10.42,-29.34 L -10.59,-30.43 L -10.77,-31.50 L -10.93,-32.53 L -11.10,-33.54 L -11.26,-34.53 L -11.42,-35.50 L -11.57,-36.44 L -11.72,-37.37 L -11.87,-38.28 L -12.02,-39.17 L -12.16,-40.04 L -12.30,-40.90 L -12.43,-41.75 L -12.57,-42.58 L -12.70,-43.40 L -12.84,-44.20 L -12.96,-45.00 L -13.09,-45.78 L -13.22,-46.56 L -13.34,-47.32 L -13.47,-48.08 L -13.59,-48.83 L -13.71,-49.57 L -13.83,-50.31 L -13.95,-51.04 L -14.07,-51.76 L -14.18,-52.48 L -14.30,-53.20 L -14.41,-53.90 L -14.53,-54.61 L -14.64,-55.31 L -14.76,-56.01 L -14.87,-56.71 L -14.98,-57.40 L -15.10,-58.10 L -15.21,-58.79 L -15.32,-59.48 L -15.44,-60.17 L -15.55,-60.86 L -15.66,-61.55 L -15.77,-62.25 L -15.89,-62.94 L -16.00,-63.64 L -16.11,-64.33 L -16.23,-65.04 L -16.34,-65.74 L -16.46,-66.45 L -16.57,-67.16 L -16.69,-67.87 L -16.81,-68.59 L -16.93,-69.32 L -17.04,-70.05 L -17.16,-70.79 L -17.29,-71.54 L -17.41,-72.29 L -17.53,-73.05 L -17.66,-73.82 L -17.79,-74.60 L -17.91,-75.39 L -18.04,-76.20 L -18.15,-77.00 L -18.19,-77.80 L -18.17,-78.59 L -18.10,-79.37 L -17.97,-80.14 L -17.78,-80.90 L -17.54,-81.63 L -17.25,-82.35 L -16.91,-83.05 L -16.51,-83.72 L -16.07,-84.37 L -15.57,-84.99 L -15.03,-85.57 L -14.43,-86.12 L -13.82,-86.65 L -13.21,-87.17 L -12.61,-87.69 L -12.02,-88.20 L -11.44,-88.70 L -10.86,-89.20 L -10.28,-89.70 L -9.72,-90.18 L -9.16,-90.67 L -8.60,-91.15 L -8.04,-91.63 L -7.49,-92.10 L -6.95,-92.57 L -6.41,-93.04 L -5.87,-93.50 L -5.33,-93.97 L -4.79,-94.43 L -4.26,-94.89 L -3.73,-95.35 L -3.19,-95.81 L -2.66,-96.26 L -2.13,-96.72 L -1.60,-97.18 L -1.07,-97.63 L -0.54,-98.09 L -0.01,-98.55 L 0.53,-99.01 L 1.06,-99.47 L 1.60,-99.93 L 2.14,-100.40 L 2.68,-100.86 L 3.22,-101.33 L 3.77,-101.81 L 4.32,-102.28 L 4.88,-102.76 L 5.44,-103.24 L 6.00,-103.73 L 6.57,-104.22 L 7.15,-104.72 L 7.73,-105.22 L 8.32,-105.72 L 8.91,-106.24 L 9.51,-106.76 L 10.12,-107.28 L 10.74,-107.82 L 11.37,-108.36 L 12.01,-108.91 L 12.66,-109.46 L 13.32,-110.03 L 13.99,-110.61 L 14.67,-111.20 L 15.37,-111.80 L 16.08,-112.41 L 16.80,-113.04 L 17.55,-113.68 L 18.30,-114.33 L 19.08,-115.00 L 19.88,-115.69 L 20.69,-116.39 L 21.53,-117.11 L 22.39,-117.85 L 23.27,-118.61 L 24.18,-119.40 L 25.12,-120.21 L 26.09,-121.04 L 27.09,-121.90 L 28.12,-122.79 L 29.19,-123.71 L 30.30,-124.67 L 31.46,-125.66 L 32.65,-126.69 L 33.90,-127.77 L 35.19,-128.88 L 36.55,-130.05 L 37.96,-131.26 L 39.37,-132.23 L 40.75,-132.90 L 42.11,-133.34 L 43.44,-133.59 L 44.74,-133.67 L 46.00,-133.60 L 47.23,-133.38 L 48.42,-133.02 L 49.55,-132.53 L 50.63,-131.91 L 51.65,-131.16 L 52.60,-130.26 L 53.45,-129.22 L 54.21,-128.01 L 54.84,-126.61 L 55.29,-124.95 L 55.60,-123.12 L 55.89,-121.35 L 56.16,-119.66 L 56.42,-118.04 L 56.68,-116.48 L 56.92,-114.98 L 57.16,-113.54 L 57.38,-112.14 L 57.60,-110.80 L 57.82,-109.49 L 58.02,-108.23 L 58.22,-107.01 L 58.41,-105.82 L 58.60,-104.67 L 58.78,-103.55 L 58.96,-102.46 L 59.13,-101.40 L 59.30,-100.36 L 59.47,-99.35 L 59.63,-98.36 L 59.79,-97.39 L 59.94,-96.45 L 60.09,-95.52 L 60.24,-94.62 L 60.38,-93.72 L 60.53,-92.85 L 60.67,-91.99 L 60.80,-91.15 L 60.94,-90.32 L 61.07,-89.50 L 61.20,-88.69 L 61.33,-87.89 L 61.46,-87.11 L 61.59,-86.33 L 61.71,-85.57 L 61.84,-84.81 L 61.96,-84.06 L 62.08,-83.32 L 62.20,-82.58 L 62.32,-81.85 L 62.44,-81.13 L 62.55,-80.41 L 62.67,-79.70 L 62.78,-78.99 L 62.90,-78.28 L 63.01,-77.58 L 63.13,-76.88 L 63.24,-76.18 L 63.35,-75.49 L 63.47,-74.80 L 63.58,-74.10 L 63.69,-73.41 L 63.80,-72.72 L 63.92,-72.03 L 64.03,-71.34 L 64.14,-70.65 L 64.26,-69.95 L 64.37,-69.26 L 64.48,-68.56 L 64.60,-67.86 L 64.71,-67.15 Z" fill="#ffa5b9" clip-path="url(#clip-petal2)" />
    <path d="M 119.40,-24.18 L 118.61,-23.27 L 117.85,-22.39 L 117.11,-21.53 L 116.39,-20.69 L 115.69,-19.88 L 115.00,-19.08 L 114.33,-18.30 L 113.68,-17.55 L 113.04,-16.80 L 112.41,-16.08 L 111.80,-15.37 L 111.20,-14.67 L 110.61,-13.99 L 110.03,-13.32 L 109.46,-12.66 L 108.91,-12.01 L 108.36,-11.37 L 107.82,-10.74 L 107.28,-10.12 L 106.76,-9.51 L 106.24,-8.91 L 105.72,-8.32 L 105.22,-7.73 L 104.72,-7.15 L 104.22,-6.57 L 103.73,-6.00 L 103.24,-5.44 L 102.76,-4.88 L 102.28,-4.32 L 101.81,-3.77 L 101.33,-3.22 L 100.86,-2.68 L 100.40,-2.14 L 99.93,-1.60 L 99.47,-1.06 L 99.01,-0.53 L 98.55,0.01 L 98.09,0.54 L 97.63,1.07 L 97.18,1.60 L 96.72,2.13 L 96.26,2.66 L 95.81,3.19 L 95.35,3.73 L 94.89,4.26 L 94.43,4.79 L 93.97,5.33 L 93.50,5.87 L 93.04,6.41 L 92.57,6.95 L 92.10,7.49 L 91.63,8.04 L 91.15,8.60 L 90.67,9.16 L 90.18,9.72 L 89.70,10.28 L 89.20,10.86 L 88.70,11.44 L 88.20,12.02 L 87.69,12.61 L 87.17,13.21 L 86.65,13.82 L 86.12,14.43 L 85.57,15.03 L 84.99,15.57 L 84.37,16.07 L 83.72,16.51 L 83.05,16.91 L 82.35,17.25 L 81.63,17.54 L 80.90,17.78 L 80.14,17.97 L 79.37,18.10 L 78.59,18.17 L 77.80,18.19 L 77.00,18.15 L 76.20,18.04 L 75.39,17.91 L 74.60,17.79 L 73.82,17.66 L 73.05,17.53 L 72.29,17.41 L 71.54,17.29 L 70.79,17.16 L 70.05,17.04 L 69.32,16.93 L 68.59,16.81 L 67.87,16.69 L 67.16,16.57 L 66.45,16.46 L 65.74,16.34 L 65.04,16.23 L 64.33,16.11 L 63.64,16.00 L 62.94,15.89 L 62.25,15.77 L 61.55,15.66 L 60.86,15.55 L 60.17,15.44 L 59.48,15.32 L 58.79,15.21 L 58.10,15.10 L 57.40,14.98 L 56.71,14.87 L 56.01,14.76 L 55.31,14.64 L 54.61,14.53 L 53.90,14.41 L 53.20,14.30 L 52.48,14.18 L 51.76,14.07 L 51.04,13.95 L 50.31,13.83 L 49.57,13.71 L 48.83,13.59 L 48.08,13.47 L 47.32,13.34 L 46.56,13.22 L 45.78,13.09 L 45.00,12.96 L 44.20,12.84 L 43.40,12.70 L 42.58,12.57 L 41.75,12.43 L 40.90,12.30 L 40.04,12.16 L 39.17,12.02 L 38.28,11.87 L 37.37,11.72 L 36.44,11.57 L 35.50,11.42 L 34.53,11.26 L 33.54,11.10 L 32.53,10.93 L 31.50,10.77 L 30.43,10.59 L 29.34,10.42 L 28.22,10.23 L 27.07,10.05 L 25.88,9.85 L 24.66,9.65 L 23.40,9.45 L 22.10,9.24 L 20.75,9.02 L 19.36,8.79 L 17.91,8.55 L 16.41,8.31 L 14.85,8.06 L 13.23,7.79 L 11.54,7.52 L 9.78,7.23 L 7.94,6.93 L 6.29,6.47 L 4.89,5.84 L 3.68,5.09 L 2.63,4.23 L 1.74,3.28 L 0.98,2.27 L 0.36,1.18 L -0.13,0.05 L -0.49,-1.14 L -0.70,-2.37 L -0.78,-3.63 L -0.70,-4.93 L -0.45,-6.26 L -0.01,-7.61 L 0.66,-9.00 L 1.63,-10.41 L 2.84,-11.82 L 4.01,-13.17 L 5.13,-14.47 L 6.20,-15.72 L 7.23,-16.91 L 8.22,-18.06 L 9.18,-19.17 L 10.10,-20.24 L 10.99,-21.28 L 11.85,-22.28 L 12.69,-23.25 L 13.50,-24.18 L 14.28,-25.10 L 15.04,-25.98 L 15.78,-26.84 L 16.50,-27.68 L 17.21,-28.49 L 17.89,-29.29 L 18.56,-30.06 L 19.21,-30.82 L 19.85,-31.56 L 20.48,-32.29 L 21.09,-33.00 L 21.69,-33.70 L 22.28,-34.38 L 22.86,-35.05 L 23.43,-35.71 L 23.99,-36.36 L 24.54,-37.00 L 25.08,-37.63 L 25.61,-38.25 L 26.14,-38.86 L 26.66,-39.46 L 27.17,-40.05 L 27.68,-40.64 L 28.18,-41.22 L 28.67,-41.80 L 29.16,-42.37 L 29.65,-42.93 L 30.13,-43.49 L 30.61,-44.05 L 31.09,-44.60 L 31.56,-45.15 L 32.03,-45.69 L 32.49,-46.23 L 32.96,-46.77 L 33.42,-47.31 L 33.88,-47.84 L 34.34,-48.38 L 34.80,-48.91 L 35.26,-49.44 L 35.72,-49.97 L 36.17,-50.50 L 36.63,-51.03 L 37.09,-51.56 L 37.54,-52.09 L 38.00,-52.63 L 38.46,-53.16 L 38.93,-53.70 L 39.39,-54.23 L 39.85,-54.77 L 40.32,-55.32 L 40.79,-55.86 L 41.27,-56.41 L 41.74,-56.97 L 42.22,-57.52 L 42.71,-58.09 L 43.20,-58.65 L 43.69,-59.23 L 44.19,-59.80 L 44.69,-60.39 L 45.20,-60.98 L 45.72,-61.58 L 46.24,-62.19 L 46.77,-62.80 L 47.32,-63.40 L 47.91,-63.94 L 48.52,-64.44 L 49.17,-64.88 L 49.84,-65.28 L 50.54,-65.62 L 51.26,-65.91 L 52.00,-66.15 L 52.75,-66.33 L 53.52,-66.47 L 54.30,-66.54 L 55.09,-66.56 L 55.89,-66.52 L 56.70,-66.41 L 57.50,-66.28 L 58.29,-66.15 L 59.07,-66.03 L 59.84,-65.90 L 60.60,-65.78 L 61.35,-65.66 L 62.10,-65.53 L 62.84,-65.41 L 63.57,-65.29 L 64.30,-65.18 L 65.02,-65.06 L 65.73,-64.94 L 66.45,-64.83 L 67.15,-64.71 L 67.86,-64.60 L 68.56,-64.48 L 69.26,-64.37 L 69.95,-64.26 L 70.65,-64.14 L 71.34,-64.03 L 72.03,-63.92 L 72.72,-63.80 L 73.41,-63.69 L 74.10,-63.58 L 74.80,-63.47 L 75.49,-63.35 L 76.18,-63.24 L 76.88,-63.13 L 77.58,-63.01 L 78.28,-62.90 L 78.99,-62.78 L 79.70,-62.67 L 80.41,-62.55 L 81.13,-62.44 L 81.85,-62.32 L 82.58,-62.20 L 83.32,-62.08 L 84.06,-61.96 L 84.81,-61.84 L 85.57,-61.71 L 86.33,-61.59 L 87.11,-61.46 L 87.89,-61.33 L 88.69,-61.20 L 89.50,-61.07 L 90.32,-60.94 L 91.15,-60.80 L 91.99,-60.67 L 92.85,-60.53 L 93.72,-60.38 L 94.62,-60.24 L 95.52,-60.09 L 96.45,-59.94 L 97.39,-59.79 L 98.36,-59.63 L 99.35,-59.47 L 100.36,-59.30 L 101.40,-59.13 L 102.46,-58.96 L 103.55,-58.78 L 104.67,-58.60 L 105.82,-58.41 L 107.01,-58.22 L 108.23,-58.02 L 109.49,-57.82 L 110.80,-57.60 L 112.14,-57.38 L 113.54,-57.16 L 114.98,-56.92 L 116.48,-56.68 L 118.04,-56.42 L 119.66,-56.16 L 121.35,-55.89 L 123.12,-55.60 L 124.95,-55.29 L 126.61,-54.84 L 128.01,-54.21 L 129.22,-53.45 L 130.26,-52.60 L 131.16,-51.65 L 131.91,-50.63 L 132.53,-49.55 L 133.02,-48.42 L 133.38,-47.23 L 133.60,-46.00 L 133.67,-44.74 L 133.59,-43.44 L 133.34,-42.11 L 132.90,-40.75 L 132.23,-39.37 L 131.26,-37.96 L 130.05,-36.55 L 128.88,-35.19 L 127.77,-33.90 L 126.69,-32.65 L 125.66,-31.46 L 124.67,-30.30 L 123.71,-29.19 L 122.79,-28.12 L 121.90,-27.09 L 121.04,-26.09 L 120.21,-25.12 Z" fill="#ff99af" clip-path="url(#clip-petal3)" />
  </g>
</svg>